<?xml version="1.0" encoding="UTF-8"?>
<svg version="1.1" xmlns="http://www.w3.org/2000/svg" width="512" height="512">
<path d="M0 0 C4.42424883 0.8003913 6.61783672 2.77223863 9.64453125 5.88671875 C10.7821077 6.99654943 11.9201414 8.10591158 13.05859375 9.21484375 C13.63254883 9.78525391 14.20650391 10.35566406 14.79785156 10.94335938 C17.47536884 13.57683355 20.24812082 16.10290576 23.01953125 18.63671875 C24.10338932 19.63614998 25.1867215 20.63615183 26.26953125 21.63671875 C26.80578125 22.13171875 27.34203125 22.62671875 27.89453125 23.13671875 C32.76953125 27.63671875 32.76953125 27.63671875 34.39477539 29.13696289 C35.47726996 30.13617613 36.55978946 31.13536237 37.64233398 32.13452148 C40.36370633 34.6463371 43.0846332 37.15863208 45.8046875 39.671875 C51.0342825 44.50302467 56.26877503 49.32856825 61.51953125 54.13671875 C67.32056389 59.44876083 73.10122242 64.78266209 78.87841797 70.12060547 C82.13116488 73.12559778 85.38556388 76.128801 88.63989258 79.13208008 C91.37437513 81.65580619 94.10796602 84.18048549 96.83984375 86.70703125 C97.38745361 87.21282715 97.93506348 87.71862305 98.49926758 88.23974609 C99.58690249 89.24587698 100.67271278 90.25398426 101.7565918 91.26416016 C104.38403268 93.70539178 107.03601913 96.09387292 109.78125 98.40234375 C110.2954248 98.84304199 110.80959961 99.28374023 111.33935547 99.73779297 C112.73926781 100.93254969 114.15430167 102.10952386 115.5703125 103.28515625 C117.51953125 105.63671875 117.51953125 105.63671875 118.0625 108.73828125 C117.51953125 111.63671875 117.51953125 111.63671875 113.51953125 114.63671875 C109.22953125 114.63671875 104.93953125 114.63671875 100.51953125 114.63671875 C100.51953125 167.76671875 100.51953125 220.89671875 100.51953125 275.63671875 C103.48953125 275.63671875 106.45953125 275.63671875 109.51953125 275.63671875 C112.05102539 276.69897461 112.05102539 276.69897461 113.51953125 278.63671875 C114.02124023 281.79125977 114.02124023 281.79125977 114.015625 285.640625 C114.01708023 286.3197142 114.01853546 286.99880341 114.02003479 287.69847107 C114.01837701 289.13162535 114.00682887 290.56479765 113.98608398 291.99780273 C113.95708344 294.19526411 113.96548315 296.39031958 113.97851562 298.58789062 C113.97227936 299.98048051 113.96388928 301.37306276 113.953125 302.765625 C113.94337646 304.0347876 113.93362793 305.3039502 113.92358398 306.61157227 C113.72357788 308.10901978 113.72357788 308.10901978 113.51953125 309.63671875 C109.60121878 312.24892707 106.29647332 311.91446018 101.75097656 311.89068604 C100.39048376 311.89536601 100.39048376 311.89536601 99.00250626 311.90014052 C95.95082428 311.908144 92.89933985 311.90178772 89.84765625 311.89550781 C87.6649158 311.89821663 85.48217627 311.90177694 83.29943848 311.90612793 C77.36156485 311.91526718 71.4237605 311.91170134 65.48588562 311.90536976 C59.28127857 311.90031771 53.07667759 311.90499899 46.87207031 311.90814209 C35.78304678 311.91201756 24.69405058 311.9057895 13.60503244 311.89562342 C3.54656847 311.88668767 -6.51184935 311.88823964 -16.5703125 311.89746094 C-28.24518195 311.90815907 -39.92002445 311.91215061 -51.59489822 311.90623641 C-57.77710326 311.90311309 -63.95927648 311.90271728 -70.14147949 311.90930939 C-75.95265377 311.91507267 -81.7637406 311.91110463 -87.5749054 311.89952087 C-89.71189732 311.89686883 -91.84889657 311.8976486 -93.98588562 311.9020462 C-96.89466226 311.90748164 -99.80315565 311.9006919 -102.71191406 311.89068604 C-103.5649197 311.89514748 -104.41792534 311.89960892 -105.29677963 311.90420556 C-109.20792669 311.87796733 -111.15140428 311.85609506 -114.48046875 309.63671875 C-114.88452148 306.61157227 -114.88452148 306.61157227 -114.9140625 302.765625 C-114.91930435 302.08749252 -114.9245462 301.40936005 -114.9299469 300.7106781 C-114.93637254 299.27580128 -114.935023 297.84087183 -114.92651367 296.40600586 C-114.91801232 294.21046995 -114.94673571 292.01754357 -114.97851562 289.82226562 C-114.98012797 288.4283862 -114.97954946 287.03450216 -114.9765625 285.640625 C-114.97841553 284.37033447 -114.98026855 283.10004395 -114.98217773 281.79125977 C-114.48046875 278.63671875 -114.48046875 278.63671875 -113.01196289 276.69897461 C-110.48046875 275.63671875 -110.48046875 275.63671875 -101.48046875 275.63671875 C-101.48046875 222.50671875 -101.48046875 169.37671875 -101.48046875 114.63671875 C-105.77046875 114.63671875 -110.06046875 114.63671875 -114.48046875 114.63671875 C-118.48046875 111.63671875 -118.48046875 111.63671875 -119.19921875 108.9140625 C-118.09101879 103.8609116 -114.78528349 101.5149394 -110.98046875 98.19921875 C-110.284375 97.56951172 -109.58828125 96.93980469 -108.87109375 96.29101562 C-106.14827917 93.83796138 -103.39172006 91.42568817 -100.62109375 89.02685547 C-99.33780301 87.91374903 -98.07221983 86.78001158 -96.82177734 85.63012695 C-94.95535054 84.04103677 -93.15917544 82.74170378 -91.12744141 81.39526367 C-86.44746574 78.0609379 -82.33072127 74.79944244 -80.78747559 69.05895996 C-79.77604149 61.73382014 -80.09334854 54.38032933 -80.35546875 47.01171875 C-80.41891321 43.68905571 -80.46409288 40.36696221 -80.49612427 37.04385376 C-80.52174606 34.98679812 -80.56880344 32.92987528 -80.63937378 30.87387085 C-80.66153961 29.95175812 -80.68370544 29.02964539 -80.70654297 28.07958984 C-80.73465057 27.26751068 -80.76275818 26.45543152 -80.79171753 25.6187439 C-80.68900543 24.9646756 -80.58629333 24.3106073 -80.48046875 23.63671875 C-77.02686432 21.3343158 -75.67547491 21.37980098 -71.60546875 21.37109375 C-70.455625 21.36851563 -69.30578125 21.3659375 -68.12109375 21.36328125 C-66.31898438 21.37488281 -66.31898438 21.37488281 -64.48046875 21.38671875 C-63.2790625 21.37898438 -62.07765625 21.37125 -60.83984375 21.36328125 C-59.11507812 21.36714844 -59.11507812 21.36714844 -57.35546875 21.37109375 C-55.77378906 21.37447754 -55.77378906 21.37447754 -54.16015625 21.37792969 C-51.48046875 21.63671875 -51.48046875 21.63671875 -48.48046875 23.63671875 C-47.37532109 26.95216174 -47.15939244 29.84081986 -46.91796875 33.32421875 C-46.83417969 34.50371094 -46.75039062 35.68320312 -46.6640625 36.8984375 C-46.60347656 37.80207031 -46.54289062 38.70570312 -46.48046875 39.63671875 C-41.0072438 34.94065867 -35.69254855 30.08581465 -30.40380859 25.18481445 C-26.31323695 21.39687668 -22.19254714 17.64648364 -18.01953125 13.94921875 C-16.11194557 12.21184841 -14.27057299 10.45327055 -12.44140625 8.63671875 C-11.91812744 8.12826416 -11.39484863 7.61980957 -10.85571289 7.09594727 C-9.84102061 6.10788649 -8.83923621 5.10632871 -7.85327148 4.08959961 C-5.26191322 1.59476374 -3.56022256 0.65130895 0 0 Z " fill="#080203" transform="translate(256.48046875,-0.63671875)"/>
<path d="M0 0 C5.87519574 4.43269244 9.16037453 10.98755122 11.15234375 17.90234375 C11.4207859 21.21521187 11.4207859 21.21521187 11.44668579 24.88308716 C11.45403917 25.56170016 11.46139254 26.24031317 11.46896875 26.9394902 C11.49089625 29.20073971 11.49870473 31.46180499 11.50634766 33.72314453 C11.51888812 35.34986443 11.53218271 36.97657867 11.5461731 38.60328674 C11.58812782 43.93470315 11.60896667 49.26611987 11.62890625 54.59765625 C11.63700625 56.43801812 11.64524024 58.2783794 11.65360641 60.11874008 C11.69168295 68.76742798 11.72014999 77.41608204 11.73683035 86.06483757 C11.75636245 96.02584801 11.80897727 105.98596807 11.88983214 115.94666493 C11.95028668 123.66071743 11.9797805 131.37451564 11.98639238 139.08880031 C11.99107873 143.68935478 12.00880241 148.28895664 12.05931473 152.88925552 C12.10612176 157.22188842 12.11424858 161.55294989 12.09379196 165.8857708 C12.09280683 167.46754521 12.10528289 169.04940022 12.13290405 170.63093376 C12.311458 181.4691528 10.22168837 188.31969305 3.15234375 196.90234375 C1.97257907 198.47357942 0.7960605 200.04726633 -0.375 201.625 C-1.5070006 203.07530959 -2.64373958 204.52193306 -3.78515625 205.96484375 C-4.38996826 206.73578369 -4.99478027 207.50672363 -5.61791992 208.30102539 C-10.28423113 214.23267149 -15.03307108 220.09038689 -19.84765625 225.90234375 C-21.34880125 227.73473967 -22.84878041 229.56809122 -24.34765625 231.40234375 C-25.09660156 232.31757813 -25.84554687 233.2328125 -26.6171875 234.17578125 C-28.0526556 235.93052159 -29.48759421 237.6856953 -30.921875 239.44140625 C-33.2282088 242.26357441 -35.53692862 245.08377306 -37.84765625 247.90234375 C-38.37020996 248.53978516 -38.89276367 249.17722656 -39.43115234 249.83398438 C-46.40398224 258.33442368 -53.41102299 266.80039713 -60.54296875 275.16796875 C-61.68378906 276.52148438 -61.68378906 276.52148438 -62.84765625 277.90234375 C-63.54407227 278.5269751 -64.24048828 279.15160645 -64.95800781 279.79516602 C-67.95620279 284.72514373 -67.41110644 289.69155007 -67.38671875 295.3515625 C-67.39851166 296.56052689 -67.41030457 297.76949127 -67.42245483 299.01509094 C-67.45774981 302.87347315 -67.46689115 306.73131317 -67.47265625 310.58984375 C-67.48896832 314.45892375 -67.51092417 318.32776007 -67.54428101 322.19673157 C-67.56399867 324.60388392 -67.57323653 327.01114849 -67.57119751 329.41838074 C-67.57815643 330.50323257 -67.58511536 331.58808441 -67.59228516 332.70581055 C-67.59354401 333.66335739 -67.59480286 334.62090424 -67.59609985 335.60746765 C-67.84765625 337.90234375 -67.84765625 337.90234375 -69.84765625 339.90234375 C-72.78944893 340.10116777 -75.63712974 340.17499829 -78.58007812 340.16113281 C-79.48423965 340.16463745 -80.38840118 340.16814209 -81.31996155 340.17175293 C-84.31885377 340.18057997 -87.31751149 340.17471766 -90.31640625 340.16796875 C-92.39383998 340.16931512 -94.47127341 340.17125542 -96.54870605 340.17376709 C-100.90668736 340.17671967 -105.26458679 340.17241639 -109.62255859 340.16308594 C-115.21841702 340.15169136 -120.81408362 340.15825011 -126.409935 340.17023087 C-130.70092219 340.17744583 -134.99186363 340.17516321 -139.28285217 340.16997528 C-141.34660362 340.16863778 -143.41035918 340.17029 -145.47410583 340.17493439 C-148.35459449 340.17999365 -151.2347692 340.17229784 -154.11523438 340.16113281 C-154.97452042 340.16518127 -155.83380646 340.16922974 -156.71913147 340.17340088 C-162.61912846 340.13087154 -162.61912846 340.13087154 -164.84765625 337.90234375 C-169.00844996 322.16855829 -170.60471522 305.77673971 -171.78515625 289.58984375 C-171.91962032 287.77356287 -171.91962032 287.77356287 -172.05680084 285.92058945 C-174.26562945 251.98072966 -168.33624248 227.68668322 -146.05225521 202.24988359 C-134.89884121 189.76512343 -122.9775753 178.10833774 -110.72265625 166.71484375 C-110.07738904 166.113185 -109.43212184 165.51152625 -108.76730108 164.89163542 C-95.00306077 152.06911064 -80.97380887 139.56205441 -66.53466797 127.50317383 C-65.53704406 126.66730083 -64.53942015 125.83142782 -63.51156521 124.97022533 C-62.5861395 124.20816941 -61.66071379 123.44611349 -60.70724487 122.66096497 C-59.50983579 121.67371288 -59.50983579 121.67371288 -58.28823662 120.6665163 C-54.6281956 118.0208571 -51.43171226 115.90234375 -46.84765625 115.90234375 C-46.857649 114.06857178 -46.857649 114.06857178 -46.86784363 112.19775391 C-46.9287239 100.6628164 -46.97366217 89.1279116 -47.00309277 77.59284973 C-47.01873209 71.66290579 -47.03993896 65.73309181 -47.07397461 59.80322266 C-47.10662949 54.07792894 -47.12452231 48.35276005 -47.13228798 42.62738037 C-47.13782045 40.44576046 -47.14862402 38.26414718 -47.16484642 36.08258057 C-47.18670185 33.02105069 -47.18961974 29.96003314 -47.18823242 26.8984375 C-47.19901825 26.00147659 -47.20980408 25.10451569 -47.22091675 24.18037415 C-47.17873086 15.54679319 -44.80647431 9.1194713 -38.8828125 2.73046875 C-27.63045564 -7.37721457 -12.79036334 -7.59850338 0 0 Z " fill="#F4C8A3" transform="translate(458.84765625,172.09765625)"/>
<path d="M0 0 C5.68979876 4.5960112 8.45668924 9.61225523 10.73828125 16.45703125 C10.82635089 17.82785223 10.86027676 19.20257163 10.85853577 20.57621765 C10.85991043 21.4133429 10.8612851 22.25046814 10.86270142 23.11296082 C10.8573085 24.48536674 10.8573085 24.48536674 10.85180664 25.88549805 C10.85195267 26.85153961 10.85209869 27.81758118 10.85224915 28.81289673 C10.85155166 32.01070388 10.84376687 35.20845301 10.8359375 38.40625 C10.83407274 40.62156645 10.83264911 42.83688331 10.83164978 45.05220032 C10.82782918 50.88669979 10.81800276 56.72117442 10.8069458 62.55566406 C10.79672188 68.50780908 10.79215005 74.45995811 10.78710938 80.41210938 C10.77638011 92.09376092 10.75930914 103.77539402 10.73828125 115.45703125 C11.43953125 115.53953125 12.14078125 115.62203125 12.86328125 115.70703125 C34.44078245 121.33594461 59.48360434 152.33755309 75.61328125 167.33203125 C76.24512565 167.91787286 76.87697005 168.50371448 77.52796125 169.10730886 C108.02341286 197.43598934 134.47878091 223.10476377 136.29803467 266.64898682 C136.431897 274.13574491 136.0920978 281.5538577 135.55078125 289.01953125 C135.46365623 290.23949547 135.37653122 291.45945969 135.28676605 292.71639252 C132.09960687 334.09570563 132.09960687 334.09570563 126.73828125 339.45703125 C123.79648857 339.65585527 120.94880776 339.72968579 118.00585938 339.71582031 C117.10169785 339.71932495 116.19753632 339.72282959 115.26597595 339.72644043 C112.26708373 339.73526747 109.26842601 339.72940516 106.26953125 339.72265625 C104.19209752 339.72400262 102.11466409 339.72594292 100.03723145 339.72845459 C95.67925014 339.73140717 91.32135071 339.72710389 86.96337891 339.71777344 C81.36752048 339.70637886 75.77185388 339.71293761 70.1760025 339.72491837 C65.88501531 339.73213333 61.59407387 339.72985071 57.30308533 339.72466278 C55.23933388 339.72332528 53.17557832 339.7249775 51.11183167 339.72962189 C48.23134301 339.73468115 45.3511683 339.72698534 42.47070312 339.71582031 C41.61141708 339.71986877 40.75213104 339.72391724 39.86680603 339.72808838 C33.96680904 339.68555904 33.96680904 339.68555904 31.73828125 337.45703125 C31.54728699 335.22944641 31.54728699 335.22944641 31.62573242 332.41918945 C31.64782272 331.36661453 31.66991302 330.31403961 31.69267273 329.22956848 C31.72190323 328.08388901 31.75113373 326.93820953 31.78125 325.7578125 C31.80482951 323.32620244 31.82489386 320.89455626 31.84179688 318.46289062 C31.87426236 314.63220706 31.92470189 310.80654163 32.03637695 306.97729492 C32.91317784 288.8831653 32.91317784 288.8831653 24.51171875 273.62890625 C22.84487082 272.02098199 21.14382972 270.48439069 19.38639832 268.9763031 C16.60832217 266.41540923 14.42573867 263.41573988 12.17578125 260.39453125 C8.49535996 255.62603359 4.68794187 251.00497165 0.73828125 246.45703125 C-3.73712557 241.30196162 -8.00868416 236.02809618 -12.18969727 230.63232422 C-15.25793355 226.68847109 -18.43800783 222.86713616 -21.69921875 219.08203125 C-25.78779722 214.31128952 -29.67151302 209.41506916 -33.44921875 204.39453125 C-33.91191162 203.7823877 -34.37460449 203.17024414 -34.85131836 202.53955078 C-35.77716204 201.29631677 -36.68721251 200.04116135 -37.58088303 198.77460289 C-38.76173062 197.1464254 -39.99811495 195.5577964 -41.27243423 194.001688 C-47.74318544 185.52164759 -48.39204814 178.18815665 -48.23339844 167.92333984 C-48.23769961 166.29248336 -48.24546899 164.66163296 -48.25640869 163.0308075 C-48.27565688 158.63574367 -48.24537084 154.24232606 -48.20459652 149.84746122 C-48.16923142 145.23041142 -48.17650894 140.61340401 -48.17803955 135.99624634 C-48.17430389 128.24754599 -48.1397155 120.49947564 -48.08496094 112.75097656 C-48.02202539 103.81213032 -48.00097069 94.8739725 -48.00390315 85.93492067 C-48.00661168 76.38653065 -47.97881627 66.83840336 -47.94211674 57.29009295 C-47.93362117 54.55180761 -47.93075613 51.81356509 -47.92916107 49.07526779 C-47.92512191 44.76246837 -47.9005316 40.45023924 -47.86049652 36.13762856 C-47.84888532 34.5615482 -47.84387692 32.98540218 -47.84620667 31.40928078 C-47.85543783 21.35636304 -47.20953948 12.45374086 -41.01171875 4.14453125 C-29.49804206 -7.10747097 -13.47533509 -9.1930179 0 0 Z " fill="#F4C8A3" transform="translate(89.26171875,172.54296875)"/>
<path d="M0 0 C60.06 0 120.12 0 182 0 C182 53.79 182 107.58 182 163 C166.49 163 150.98 163 135 163 C134.93941406 156.65910156 134.87882813 150.31820312 134.81640625 143.78515625 C134.77593371 139.77928971 134.73517165 135.77343036 134.69335938 131.76757812 C134.62695266 125.40277479 134.56164554 119.03797295 134.50268555 112.6730957 C134.45510906 107.54431133 134.40276896 102.4155961 134.34705925 97.28689384 C134.32660516 95.32560372 134.30789725 93.36429462 134.29092598 91.40297127 C134.26694931 88.66579416 134.23688596 85.928749 134.20532227 83.19165039 C134.1995668 82.37238068 134.19381134 81.55311096 134.18788147 80.70901489 C134.48227006 77.05336705 134.48227006 77.05336705 133 74 C130.38849712 73.89958543 127.80341635 73.86382943 125.19140625 73.87060547 C124.37356659 73.86885315 123.55572693 73.86710083 122.71310425 73.86529541 C119.9962149 73.86087615 117.27939007 73.86381514 114.5625 73.8671875 C112.68302396 73.86651448 110.80354801 73.86554447 108.92407227 73.86428833 C104.97964654 73.86281126 101.03524342 73.86496621 97.09082031 73.86962891 C92.02287497 73.8753262 86.95498258 73.87204724 81.88703918 73.86605644 C78.00443113 73.86245108 74.12183572 73.8635893 70.23922729 73.86618423 C68.37002557 73.86685357 66.50082272 73.86602484 64.63162231 73.86370468 C62.02391496 73.86117857 59.41629459 73.86501816 56.80859375 73.87060547 C55.63815018 73.86756912 55.63815018 73.86756912 54.44406128 73.86447144 C50.92922808 73.55527942 50.92922808 73.55527942 48 75 C47.87483363 77.73805204 47.81392327 80.45211719 47.79467773 83.19165039 C47.78477814 84.05011063 47.77487854 84.90857086 47.76467896 85.79304504 C47.73296691 88.64455359 47.70826836 91.49607882 47.68359375 94.34765625 C47.66303259 96.31921331 47.64203635 98.29076588 47.62062073 100.26231384 C47.56531347 105.46221285 47.5159425 110.6621522 47.46777344 115.86212158 C47.40881036 122.09544559 47.34253499 128.32869555 47.27747345 134.56195831 C47.17935512 144.04126048 47.09057357 153.5206092 47 163 C31.49 163 15.98 163 0 163 C0 109.21 0 55.42 0 0 Z " fill="#E3E2E2" transform="translate(165,113)"/>
<path d="M0 0 C5.87519574 4.43269244 9.16037453 10.98755122 11.15234375 17.90234375 C11.4207859 21.21521187 11.4207859 21.21521187 11.44668579 24.88308716 C11.45403917 25.56170016 11.46139254 26.24031317 11.46896875 26.9394902 C11.49089625 29.20073971 11.49870473 31.46180499 11.50634766 33.72314453 C11.51888812 35.34986443 11.53218271 36.97657867 11.5461731 38.60328674 C11.58812782 43.93470315 11.60896667 49.26611987 11.62890625 54.59765625 C11.63700625 56.43801812 11.64524024 58.2783794 11.65360641 60.11874008 C11.69168295 68.76742798 11.72014999 77.41608204 11.73683035 86.06483757 C11.75636245 96.02584801 11.80897727 105.98596807 11.88983214 115.94666493 C11.95028668 123.66071743 11.9797805 131.37451564 11.98639238 139.08880031 C11.99107873 143.68935478 12.00880241 148.28895664 12.05931473 152.88925552 C12.10612176 157.22188842 12.11424858 161.55294989 12.09379196 165.8857708 C12.09280683 167.46754521 12.10528289 169.04940022 12.13290405 170.63093376 C12.311458 181.4691528 10.22168837 188.31969305 3.15234375 196.90234375 C1.97257907 198.47357942 0.7960605 200.04726633 -0.375 201.625 C-1.5070006 203.07530959 -2.64373958 204.52193306 -3.78515625 205.96484375 C-4.38996826 206.73578369 -4.99478027 207.50672363 -5.61791992 208.30102539 C-10.28423113 214.23267149 -15.03307108 220.09038689 -19.84765625 225.90234375 C-21.34880125 227.73473967 -22.84878041 229.56809122 -24.34765625 231.40234375 C-25.09660156 232.31757813 -25.84554687 233.2328125 -26.6171875 234.17578125 C-28.0526556 235.93052159 -29.48759421 237.6856953 -30.921875 239.44140625 C-33.2282088 242.26357441 -35.53692862 245.08377306 -37.84765625 247.90234375 C-38.37020996 248.53978516 -38.89276367 249.17722656 -39.43115234 249.83398438 C-46.40398224 258.33442368 -53.41102299 266.80039713 -60.54296875 275.16796875 C-61.68378906 276.52148438 -61.68378906 276.52148438 -62.84765625 277.90234375 C-63.54407227 278.5269751 -64.24048828 279.15160645 -64.95800781 279.79516602 C-67.95620279 284.72514373 -67.41110644 289.69155007 -67.38671875 295.3515625 C-67.39851166 296.56052689 -67.41030457 297.76949127 -67.42245483 299.01509094 C-67.45774981 302.87347315 -67.46689115 306.73131317 -67.47265625 310.58984375 C-67.48896832 314.45892375 -67.51092417 318.32776007 -67.54428101 322.19673157 C-67.56399867 324.60388392 -67.57323653 327.01114849 -67.57119751 329.41838074 C-67.57815643 330.50323257 -67.58511536 331.58808441 -67.59228516 332.70581055 C-67.59354401 333.66335739 -67.59480286 334.62090424 -67.59609985 335.60746765 C-67.84765625 337.90234375 -67.84765625 337.90234375 -69.84765625 339.90234375 C-72.78944893 340.10116777 -75.63712974 340.17499829 -78.58007812 340.16113281 C-79.48423965 340.16463745 -80.38840118 340.16814209 -81.31996155 340.17175293 C-84.31885377 340.18057997 -87.31751149 340.17471766 -90.31640625 340.16796875 C-92.39383998 340.16931512 -94.47127341 340.17125542 -96.54870605 340.17376709 C-100.90668736 340.17671967 -105.26458679 340.17241639 -109.62255859 340.16308594 C-115.21841702 340.15169136 -120.81408362 340.15825011 -126.409935 340.17023087 C-130.70092219 340.17744583 -134.99186363 340.17516321 -139.28285217 340.16997528 C-141.34660362 340.16863778 -143.41035918 340.17029 -145.47410583 340.17493439 C-148.35459449 340.17999365 -151.2347692 340.17229784 -154.11523438 340.16113281 C-154.97452042 340.16518127 -155.83380646 340.16922974 -156.71913147 340.17340088 C-162.61912846 340.13087154 -162.61912846 340.13087154 -164.84765625 337.90234375 C-169.00844996 322.16855829 -170.60471522 305.77673971 -171.78515625 289.58984375 C-171.91962032 287.77356287 -171.91962032 287.77356287 -172.05680084 285.92058945 C-174.26562945 251.98072966 -168.33624248 227.68668322 -146.05225521 202.24988359 C-134.89884121 189.76512343 -122.9775753 178.10833774 -110.72265625 166.71484375 C-110.07738904 166.113185 -109.43212184 165.51152625 -108.76730108 164.89163542 C-95.00306077 152.06911064 -80.97380887 139.56205441 -66.53466797 127.50317383 C-65.53704406 126.66730083 -64.53942015 125.83142782 -63.51156521 124.97022533 C-62.5861395 124.20816941 -61.66071379 123.44611349 -60.70724487 122.66096497 C-59.50983579 121.67371288 -59.50983579 121.67371288 -58.28823662 120.6665163 C-54.6281956 118.0208571 -51.43171226 115.90234375 -46.84765625 115.90234375 C-46.857649 114.06857178 -46.857649 114.06857178 -46.86784363 112.19775391 C-46.9287239 100.6628164 -46.97366217 89.1279116 -47.00309277 77.59284973 C-47.01873209 71.66290579 -47.03993896 65.73309181 -47.07397461 59.80322266 C-47.10662949 54.07792894 -47.12452231 48.35276005 -47.13228798 42.62738037 C-47.13782045 40.44576046 -47.14862402 38.26414718 -47.16484642 36.08258057 C-47.18670185 33.02105069 -47.18961974 29.96003314 -47.18823242 26.8984375 C-47.19901825 26.00147659 -47.20980408 25.10451569 -47.22091675 24.18037415 C-47.17873086 15.54679319 -44.80647431 9.1194713 -38.8828125 2.73046875 C-27.63045564 -7.37721457 -12.79036334 -7.59850338 0 0 Z M-32.84765625 11.90234375 C-36.76580699 17.60194004 -37.414397 21.67568306 -37.30175781 28.50952148 C-37.30234192 29.44688644 -37.30292603 30.3842514 -37.30352783 31.35002136 C-37.30075502 34.429045 -37.26970068 37.50708428 -37.23828125 40.5859375 C-37.23081602 42.72827119 -37.22512442 44.87061174 -37.22113037 47.01295471 C-37.20589638 52.63714627 -37.1666335 58.26092119 -37.12231445 63.88494873 C-37.08131369 69.62962204 -37.06310908 75.37436301 -37.04296875 81.11914062 C-37.00013736 92.38039086 -36.93191286 103.64133259 -36.84765625 114.90234375 C-36.17508789 115.08772705 -35.50251953 115.27311035 -34.80957031 115.46411133 C-33.91979492 115.71829834 -33.03001953 115.97248535 -32.11328125 116.234375 C-31.23446289 116.4816333 -30.35564453 116.7288916 -29.45019531 116.98364258 C-21.07965283 119.93845978 -15.28036774 126.92634298 -11.47265625 134.71484375 C-9.75367125 143.48166726 -10.42255257 151.07913503 -14.84765625 158.90234375 C-25.27769709 171.97043372 -38.06945986 183.49874397 -49.83178711 195.34643555 C-52.64883376 198.18593923 -55.4557474 201.03493495 -58.25463867 203.89233398 C-61.65369297 207.36224586 -65.06942732 210.8148648 -68.49791908 214.25568581 C-69.79691404 215.56509208 -71.08988056 216.88050768 -72.37660789 218.20197105 C-74.16895117 220.04026638 -75.98189896 221.85550026 -77.80151367 223.66674805 C-78.32684692 224.21567719 -78.85218018 224.76460632 -79.39343262 225.33016968 C-80.90885925 226.8120575 -80.90885925 226.8120575 -83.84765625 228.90234375 C-87.22554016 228.72956848 -87.22554016 228.72956848 -89.84765625 227.90234375 C-90.26499174 225.02127409 -90.45333593 222.82278574 -88.80466461 220.31732559 C-87.21870429 218.56281258 -85.56353958 216.92252852 -83.85253906 215.28955078 C-83.21522858 214.65778931 -82.57791809 214.02602783 -81.92129517 213.37512207 C-79.81107927 211.28947781 -77.68088654 209.22546545 -75.55078125 207.16015625 C-74.07903768 205.70977181 -72.60890535 204.25775073 -71.14031982 202.8041687 C-67.26780406 198.97724989 -63.37941507 195.16692601 -59.48571777 191.36157227 C-53.26496224 185.28104845 -47.0588747 179.18590293 -40.87117767 173.07174301 C-38.71071193 170.94454899 -36.537757 168.83073169 -34.36358643 166.71755981 C-33.02864327 165.40355492 -31.69420512 164.08903672 -30.36035156 162.77392578 C-29.75758392 162.19496552 -29.15481628 161.61600525 -28.53378296 161.01950073 C-23.69077606 156.20388788 -19.87085605 150.89062045 -19.34765625 143.90234375 C-19.65546799 138.67980464 -21.71597772 134.15371546 -25.30859375 130.359375 C-29.46856165 126.75899669 -33.07932968 124.6142252 -38.59765625 124.46484375 C-39.79648437 124.40490234 -39.79648437 124.40490234 -41.01953125 124.34375 C-49.18600004 125.95674038 -56.06624042 133.17071782 -62.2109375 138.38574219 C-63.21643174 139.23718591 -64.22192598 140.08862963 -65.25788975 140.96587467 C-78.43463222 152.18136043 -91.22242086 163.82208818 -103.84765625 175.65234375 C-104.45433341 176.21915186 -105.06101056 176.78595998 -105.68607187 177.3699441 C-146.90128118 215.60819021 -146.90128118 215.60819021 -162.0362854 268.13803101 C-162.40926208 289.02983447 -159.04368928 309.51061905 -154.84765625 329.90234375 C-129.43765625 329.90234375 -104.02765625 329.90234375 -77.84765625 329.90234375 C-77.87463679 313.61329929 -77.87463679 313.61329929 -78.00024414 297.32495117 C-77.97777903 278.72804978 -77.97777903 278.72804978 -72.7109375 272.2890625 C-71.12530415 270.78844382 -69.50592157 269.32228941 -67.84765625 267.90234375 C-66.63253232 266.48235072 -65.44533485 265.03778612 -64.29296875 263.56640625 C-58.89506868 256.9961224 -53.48301513 250.44126661 -47.97265625 243.96484375 C-44.25760049 239.59633622 -40.62445081 235.17400989 -37.0625 230.6796875 C-34.79998863 227.84257007 -32.51165865 225.0280115 -30.21801758 222.21606445 C-22.50193201 212.83962146 -22.50193201 212.83962146 -15.05172729 203.25335693 C-12.78873339 200.24335798 -10.52779702 197.53639506 -7.73779297 195.00195312 C1.7048071 185.72867067 2.43865282 175.62735392 2.6103096 163.08128166 C2.6459578 158.06375523 2.58275335 153.04969539 2.50079727 148.03290939 C2.44005335 143.58853587 2.44533595 139.14418197 2.44213867 134.69946289 C2.42743833 127.24834241 2.36791304 119.79871157 2.27734375 112.34814453 C2.16151463 102.80050159 2.12040585 93.25404941 2.10261536 83.70578003 C2.08667344 75.46454436 2.03670441 67.22356452 1.98122787 58.98251343 C1.96488756 56.34690943 1.95315791 53.71131428 1.94204712 51.07568359 C1.92239437 46.93181554 1.88145014 42.78865858 1.82429504 38.64514351 C1.80629826 37.12952668 1.79487101 35.61381469 1.79066467 34.09809685 C1.76011623 25.10416168 1.56636849 17.90490512 -4.6640625 10.84375 C-5.24027344 10.38871094 -5.81648437 9.93367187 -6.41015625 9.46484375 C-7.27833984 8.75521484 -7.27833984 8.75521484 -8.1640625 8.03125 C-16.06291979 2.73480044 -26.91393392 5.01113441 -32.84765625 11.90234375 Z " fill="#070604" transform="translate(458.84765625,172.09765625)"/>
<path d="M0 0 C5.68979876 4.5960112 8.45668924 9.61225523 10.73828125 16.45703125 C10.82635089 17.82785223 10.86027676 19.20257163 10.85853577 20.57621765 C10.85991043 21.4133429 10.8612851 22.25046814 10.86270142 23.11296082 C10.8573085 24.48536674 10.8573085 24.48536674 10.85180664 25.88549805 C10.85195267 26.85153961 10.85209869 27.81758118 10.85224915 28.81289673 C10.85155166 32.01070388 10.84376687 35.20845301 10.8359375 38.40625 C10.83407274 40.62156645 10.83264911 42.83688331 10.83164978 45.05220032 C10.82782918 50.88669979 10.81800276 56.72117442 10.8069458 62.55566406 C10.79672188 68.50780908 10.79215005 74.45995811 10.78710938 80.41210938 C10.77638011 92.09376092 10.75930914 103.77539402 10.73828125 115.45703125 C11.43953125 115.53953125 12.14078125 115.62203125 12.86328125 115.70703125 C34.44078245 121.33594461 59.48360434 152.33755309 75.61328125 167.33203125 C76.24512565 167.91787286 76.87697005 168.50371448 77.52796125 169.10730886 C108.02341286 197.43598934 134.47878091 223.10476377 136.29803467 266.64898682 C136.431897 274.13574491 136.0920978 281.5538577 135.55078125 289.01953125 C135.46365623 290.23949547 135.37653122 291.45945969 135.28676605 292.71639252 C132.09960687 334.09570563 132.09960687 334.09570563 126.73828125 339.45703125 C123.79648857 339.65585527 120.94880776 339.72968579 118.00585938 339.71582031 C117.10169785 339.71932495 116.19753632 339.72282959 115.26597595 339.72644043 C112.26708373 339.73526747 109.26842601 339.72940516 106.26953125 339.72265625 C104.19209752 339.72400262 102.11466409 339.72594292 100.03723145 339.72845459 C95.67925014 339.73140717 91.32135071 339.72710389 86.96337891 339.71777344 C81.36752048 339.70637886 75.77185388 339.71293761 70.1760025 339.72491837 C65.88501531 339.73213333 61.59407387 339.72985071 57.30308533 339.72466278 C55.23933388 339.72332528 53.17557832 339.7249775 51.11183167 339.72962189 C48.23134301 339.73468115 45.3511683 339.72698534 42.47070312 339.71582031 C41.61141708 339.71986877 40.75213104 339.72391724 39.86680603 339.72808838 C33.96680904 339.68555904 33.96680904 339.68555904 31.73828125 337.45703125 C31.54728699 335.22944641 31.54728699 335.22944641 31.62573242 332.41918945 C31.64782272 331.36661453 31.66991302 330.31403961 31.69267273 329.22956848 C31.72190323 328.08388901 31.75113373 326.93820953 31.78125 325.7578125 C31.80482951 323.32620244 31.82489386 320.89455626 31.84179688 318.46289062 C31.87426236 314.63220706 31.92470189 310.80654163 32.03637695 306.97729492 C32.91317784 288.8831653 32.91317784 288.8831653 24.51171875 273.62890625 C22.84487082 272.02098199 21.14382972 270.48439069 19.38639832 268.9763031 C16.60832217 266.41540923 14.42573867 263.41573988 12.17578125 260.39453125 C8.49535996 255.62603359 4.68794187 251.00497165 0.73828125 246.45703125 C-3.73712557 241.30196162 -8.00868416 236.02809618 -12.18969727 230.63232422 C-15.25793355 226.68847109 -18.43800783 222.86713616 -21.69921875 219.08203125 C-25.78779722 214.31128952 -29.67151302 209.41506916 -33.44921875 204.39453125 C-33.91191162 203.7823877 -34.37460449 203.17024414 -34.85131836 202.53955078 C-35.77716204 201.29631677 -36.68721251 200.04116135 -37.58088303 198.77460289 C-38.76173062 197.1464254 -39.99811495 195.5577964 -41.27243423 194.001688 C-47.74318544 185.52164759 -48.39204814 178.18815665 -48.23339844 167.92333984 C-48.23769961 166.29248336 -48.24546899 164.66163296 -48.25640869 163.0308075 C-48.27565688 158.63574367 -48.24537084 154.24232606 -48.20459652 149.84746122 C-48.16923142 145.23041142 -48.17650894 140.61340401 -48.17803955 135.99624634 C-48.17430389 128.24754599 -48.1397155 120.49947564 -48.08496094 112.75097656 C-48.02202539 103.81213032 -48.00097069 94.8739725 -48.00390315 85.93492067 C-48.00661168 76.38653065 -47.97881627 66.83840336 -47.94211674 57.29009295 C-47.93362117 54.55180761 -47.93075613 51.81356509 -47.92916107 49.07526779 C-47.92512191 44.76246837 -47.9005316 40.45023924 -47.86049652 36.13762856 C-47.84888532 34.5615482 -47.84387692 32.98540218 -47.84620667 31.40928078 C-47.85543783 21.35636304 -47.20953948 12.45374086 -41.01171875 4.14453125 C-29.49804206 -7.10747097 -13.47533509 -9.1930179 0 0 Z M-33.01171875 12.39453125 C-36.61452068 17.29834498 -37.51119163 20.99782442 -37.58970642 27.05609131 C-37.60058763 27.70582074 -37.61146883 28.35555018 -37.62267977 29.02496839 C-37.6563191 31.19468743 -37.67581952 33.36428871 -37.69506836 35.53417969 C-37.71579612 37.09353003 -37.73720112 38.6528715 -37.75923157 40.21220398 C-37.82705916 45.33015343 -37.87266843 50.4481829 -37.9140625 55.56640625 C-37.92130569 56.43962052 -37.92854887 57.3128348 -37.93601155 58.21251011 C-38.00324063 66.46235601 -38.06134023 74.71222683 -38.09953976 82.9622612 C-38.14890163 93.47886055 -38.24138876 103.99308508 -38.39345163 114.50871444 C-38.49696343 121.92131355 -38.54977565 129.33327559 -38.56620985 136.74657273 C-38.57735694 141.16419337 -38.60990595 145.57907835 -38.69734001 149.99590302 C-39.83445099 173.52652093 -39.83445099 173.52652093 -29.29595089 193.669384 C-28.18221328 194.76293469 -27.04973111 195.83780628 -25.89712715 196.89031219 C-23.19687258 199.47715246 -21.05174846 202.46582135 -18.82421875 205.45703125 C-12.96858581 212.93509979 -6.89299553 220.23503559 -0.83642578 227.55029297 C1.26319294 230.092622 3.34474637 232.64948033 5.42578125 235.20703125 C9.13541516 239.75098803 12.92350147 244.22407543 16.72338867 248.69238281 C20.10240466 252.67688721 23.37568477 256.73466397 26.6171875 260.83203125 C29.7205354 264.6726386 32.92790561 268.42364604 36.14648438 272.16796875 C39.58387882 276.18888665 40.85305031 278.11363656 40.94360352 283.36572266 C40.9637854 284.40092041 40.98396729 285.43611816 41.00476074 286.50268555 C41.02947449 288.13911011 41.02947449 288.13911011 41.0546875 289.80859375 C41.07333862 290.80914795 41.09198975 291.80970215 41.11120605 292.84057617 C41.17964097 296.58763577 41.23970195 300.33484453 41.30078125 304.08203125 C41.51734375 316.64265625 41.51734375 316.64265625 41.73828125 329.45703125 C67.14828125 329.45703125 92.55828125 329.45703125 118.73828125 329.45703125 C121.71853155 315.3063613 124.10388845 301.83472741 125.30078125 287.51953125 C125.38977943 286.45687798 125.47877762 285.3942247 125.57047272 284.29936981 C127.65845613 255.84171357 122.25459754 233.68765727 103.90388209 212.01415163 C92.27904274 198.584152 79.57260468 186.20811388 66.61328125 174.08203125 C65.99182677 173.49883448 65.37037229 172.91563771 64.73008585 172.31476831 C51.45044614 159.86091509 37.93595649 147.68170874 24.05810547 135.89697266 C23.09788262 135.07811112 22.13765978 134.25924959 21.14833927 133.41557407 C14.39395726 127.75602632 9.36333511 123.75145726 0.26953125 124.0390625 C-5.21238539 124.94425553 -8.94432919 128.03563725 -12.63671875 132.01953125 C-15.02677722 135.60461895 -16.55818383 138.34048951 -16.63671875 142.70703125 C-16.66507813 143.4134375 -16.6934375 144.11984375 -16.72265625 144.84765625 C-15.42891634 152.17153982 -10.95719927 157.32614356 -5.74902344 162.32861328 C-5.10470367 162.96387939 -4.46038391 163.59914551 -3.79653931 164.25366211 C-2.40736602 165.62104655 -1.01365832 166.98383687 0.38413239 168.34241104 C2.5959168 170.49354508 4.7937962 172.65804382 6.98846436 174.82662964 C13.2266854 180.98558079 19.49034689 187.1184327 25.75976562 193.24560547 C29.60239552 197.00289561 33.43036584 200.7746292 37.25002289 204.55526352 C38.70674271 205.99084224 40.16926295 207.42055963 41.63761139 208.8442421 C43.68648581 210.83084253 45.7164002 212.83512129 47.74316406 214.84423828 C48.35402863 215.42724701 48.96489319 216.01025574 49.5942688 216.6109314 C52.47103256 219.50061105 53.65437627 220.69269504 54.11297607 224.87033081 C53.98932678 225.72394196 53.86567749 226.5775531 53.73828125 227.45703125 C51.16029358 228.32540894 51.16029358 228.32540894 47.73828125 228.45703125 C45.10328476 226.89778409 43.10744674 224.75144031 40.98608398 222.56298828 C40.33975006 221.92410172 39.69341614 221.28521515 39.02749634 220.62696838 C36.89139821 218.50640678 34.78163706 216.3615848 32.671875 214.21484375 C31.19151353 212.73157848 29.70989156 211.24957026 28.22706604 209.76876831 C25.11858957 206.65707101 22.02236397 203.53382737 18.93481445 200.40136719 C14.99028461 196.40039137 11.02219182 192.42386393 7.04521084 188.45517159 C3.980583 185.39335289 0.92629917 182.32138511 -2.12476921 179.24605942 C-3.58340001 177.77726031 -5.04455628 176.31096449 -6.50833321 174.84729385 C-8.5620052 172.78962111 -10.6020245 170.71928826 -12.63891602 168.64501953 C-13.23801285 168.04930649 -13.83710968 167.45359344 -14.45436096 166.83982849 C-22.04798792 159.0351994 -25.67982179 151.21088001 -25.53515625 140.33203125 C-24.76270611 132.21026973 -20.10783836 125.89614253 -14.26171875 120.45703125 C-9.66318694 116.95091084 -4.78042138 115.76964925 0.73828125 114.45703125 C0.85427125 102.07845249 0.94304582 89.7000036 0.99734211 77.32099152 C1.02340531 71.57252265 1.05874425 65.82442635 1.11547852 60.07617188 C1.16991403 54.52591809 1.19972644 48.97602204 1.21266747 43.42552185 C1.22188655 41.31085074 1.23988945 39.1961986 1.26693153 37.0816803 C1.30337465 34.1132722 1.30822014 31.14633116 1.3059082 28.17773438 C1.33287277 26.87437134 1.33287277 26.87437134 1.36038208 25.54467773 C1.30861269 19.37786284 -0.29094849 15.20852571 -4.26171875 10.45703125 C-9.55647935 5.65323194 -14.3960591 4.70880244 -21.4921875 5.0390625 C-26.72519249 5.82881078 -29.61720423 8.60871823 -33.01171875 12.39453125 Z " fill="#070604" transform="translate(89.26171875,172.54296875)"/>
<path d="M0 0 C3.48654476 1.4841373 5.64191072 3.46214052 8.25 6.1875 C11.6433943 9.72331778 15.20373014 12.95360194 18.90332031 16.15942383 C22.26233991 19.10814865 25.50242911 22.17969387 28.75 25.25 C34.48814337 30.65236904 40.25935409 36.01259914 46.078125 41.328125 C49.20643985 44.18877655 52.3236772 47.0610975 55.4375 49.9375 C55.97785889 50.43660889 56.51821777 50.93571777 57.07495117 51.44995117 C58.16964892 52.46120612 59.26429396 53.47251812 60.35888672 54.48388672 C63.61163363 57.48887903 66.86603263 60.49208225 70.12036133 63.49536133 C72.85484388 66.01908744 75.58843477 68.54376674 78.3203125 71.0703125 C79.42185934 72.08855861 80.52342171 73.10678792 81.625 74.125 C82.15697998 74.61718018 82.68895996 75.10936035 83.23706055 75.61645508 C85.89769625 78.07427483 88.56878714 80.51898266 91.26171875 82.94140625 C91.77589355 83.40466309 92.29006836 83.86791992 92.81982422 84.34521484 C94.22796195 85.61147936 95.63927212 86.87421344 97.05078125 88.13671875 C98.01564453 89.05904297 98.01564453 89.05904297 99 90 C99 90.33 99 90.66 99 91 C33.66 91 -31.68 91 -99 91 C-97.35 89.35 -95.7 87.7 -94 86 C-93.20980469 85.19820313 -92.41960937 84.39640625 -91.60546875 83.5703125 C-87.28322206 79.19918742 -82.92201281 74.96728976 -78.25390625 70.96875 C-75.32479002 68.4102152 -72.47640056 65.76952699 -69.625 63.125 C-64.98656905 58.82570745 -60.31252457 54.57147966 -55.6015625 50.3515625 C-52.50290734 47.550676 -49.43848818 44.71422368 -46.375 41.875 C-42.99681287 38.74468215 -39.61582816 35.63014772 -36.125 32.625 C-32.14927867 29.19065349 -28.33171188 25.59292945 -24.5 22 C-20.0113337 17.79214958 -15.51431855 13.61337787 -10.8515625 9.59765625 C-7.19545062 6.44290993 -3.60504772 3.21283188 0 0 Z " fill="#FD0334" transform="translate(256,12)"/>
<path d="M0 0 C22.44 0 44.88 0 68 0 C68 26.4 68 52.8 68 80 C45.56 80 23.12 80 0 80 C0 53.6 0 27.2 0 0 Z " fill="#7E483E" transform="translate(222,196)"/>
<path d="M0 0 C68.64 0 137.28 0 208 0 C208 4.62 208 9.24 208 14 C139.36 14 70.72 14 0 14 C0 9.38 0 4.76 0 0 Z " fill="#FE0334" transform="translate(152,286)"/>
<path d="M0 0 C5.45256971 2.37433671 8.71751643 6.33195297 11.71484375 11.3828125 C13.55636748 16.90738368 13.53182925 22.29286911 11.08984375 27.6328125 C7.98591345 33.13872419 3.70948561 36.35208323 -2.28515625 38.3828125 C-8.95141526 39.32944121 -14.13084416 38.80286524 -19.6328125 34.80859375 C-23.95955906 31.07511268 -26.81664397 27.08122005 -27.54296875 21.34765625 C-27.84233823 15.52990939 -26.67514051 11.14542842 -23.28515625 6.3828125 C-16.72231858 -0.53097905 -9.22911518 -2.49264991 0 0 Z " fill="#060001" transform="translate(263.28515625,49.6171875)"/>
<path d="M0 0 C2.9375 2.4375 2.9375 2.4375 5 5 C5.33 5.33 5.66 5.66 6 6 C6.61192269 11.26253509 5.24509023 13.8959153 2 18 C-1.21694364 19.60847182 -4.52137222 19.61309149 -8 19 C-11.64345196 16.05423033 -13.79099354 13.88105815 -14.3125 9.1875 C-13.92835642 5.2692355 -12.70743683 3.78706733 -10 1 C-6.78540014 -0.60729993 -3.47611897 -0.61930855 0 0 Z " fill="#F60333" transform="translate(260,59)"/>
<path d="M0 0 C3.96 0 7.92 0 12 0 C13.63697858 17.03119128 13.63697858 17.03119128 10.93652344 21.92871094 C8.13462546 25.30192868 4.77039704 27.76481923 1 30 C0.67 30 0.34 30 0 30 C0 20.1 0 10.2 0 0 Z " fill="#E3E2E2" transform="translate(186,32)"/>
<path d="M0 0 C0.66 0.33 1.32 0.66 2 1 C1.52578613 1.46374023 1.05157227 1.92748047 0.56298828 2.40527344 C-1.58827255 4.51489016 -3.73167538 6.632322 -5.875 8.75 C-6.62136719 9.47960937 -7.36773437 10.20921875 -8.13671875 10.9609375 C-8.85214844 11.66992188 -9.56757813 12.37890625 -10.3046875 13.109375 C-10.96452637 13.75874023 -11.62436523 14.40810547 -12.30419922 15.07714844 C-13.97260712 16.96893948 -14.99293246 18.69941016 -16 21 C-16.5 18.4921875 -16.5 18.4921875 -16 15 C-13.65185079 12.02353743 -10.85170849 9.61061078 -8 7.125 C-6.8553125 6.09246094 -6.8553125 6.09246094 -5.6875 5.0390625 C-3.80432855 3.34420819 -1.90885251 1.6658038 0 0 Z " fill="#43000E" transform="translate(154,90)"/>
<path d="M0 0 C0.99 0.33 1.98 0.66 3 1 C0.69 3.31 -1.62 5.62 -4 8 C-4.33 7.01 -4.66 6.02 -5 5 C-3.35 3.35 -1.7 1.7 0 0 Z " fill="#302620" transform="translate(422,173)"/>
</svg>
