<?xml version="1.0" encoding="UTF-8"?>
<svg version="1.1" xmlns="http://www.w3.org/2000/svg" width="512" height="512">
<path d="M0 0 C28.44232794 -0.84024602 57.24456544 9.12201038 79.14453125 27.171875 C79.68480957 27.61192871 80.22508789 28.05198242 80.78173828 28.50537109 C101.28569416 45.49783468 112.69200775 67.04936334 120.14453125 92.171875 C120.40427734 93.04585938 120.66402344 93.91984375 120.93164062 94.8203125 C121.67003156 97.34868455 122.38288907 99.8823922 123.08203125 102.421875 C123.2936792 103.17114258 123.50532715 103.92041016 123.72338867 104.69238281 C125.20021817 110.31301103 126.87811408 116.96894386 123.98486328 122.31445312 C121.59969973 124.72176598 119.64905572 125.23159443 116.3828125 126.09375 C115.26455078 126.39667969 114.14628906 126.69960937 112.99414062 127.01171875 C111.24327148 127.46224609 111.24327148 127.46224609 109.45703125 127.921875 C107.68875977 128.39560547 107.68875977 128.39560547 105.88476562 128.87890625 C102.97460004 129.65652135 100.06148865 130.4202158 97.14453125 131.171875 C97.47775391 132.38431885 97.81097656 133.5967627 98.15429688 134.84594727 C112.95437014 189.12608424 112.95437014 189.12608424 105.14453125 210.171875 C104.79261719 211.17089844 104.44070313 212.16992188 104.078125 213.19921875 C96.96657042 231.81130713 83.10059805 245.21697537 65.39453125 253.81640625 C59.79548716 256.1515845 54.02330671 257.69348472 48.14453125 259.171875 C48.28890625 259.92210937 48.43328125 260.67234375 48.58203125 261.4453125 C51.15945537 275.6569427 50.81416734 287.3862156 42.8203125 299.8828125 C38.99338541 305.11027001 34.29469308 309.27023725 29.14453125 313.171875 C29.59183594 313.63335937 30.03914063 314.09484375 30.5 314.5703125 C40.16757424 325.00057384 42.62489712 334.70316757 42.4375 348.5859375 C42.15525959 355.55741894 39.99296883 361.39921863 36.14453125 367.171875 C36.94117188 367.19765625 37.7378125 367.2234375 38.55859375 367.25 C49.45408663 367.83321373 49.45408663 367.83321373 54.14453125 372.171875 C57.71840562 376.69447141 58.63325941 379.58127764 58.53515625 385.3203125 C58.52949646 385.97770416 58.52383667 386.63509583 58.51800537 387.31240845 C58.495794 389.39133691 58.44563545 391.46847663 58.39453125 393.546875 C58.37444614 394.96481868 58.3561989 396.38278965 58.33984375 397.80078125 C58.29598192 401.25838377 58.22706562 404.71495451 58.14453125 408.171875 C60.70789379 408.05741228 63.2696657 407.93067999 65.83203125 407.796875 C66.91387695 407.75046875 66.91387695 407.75046875 68.01757812 407.703125 C73.82991381 407.39073974 73.82991381 407.39073974 79.14453125 405.171875 C80.82564044 401.754343 81.39458541 398.9802426 81.39608765 395.19371033 C81.40147049 394.21657578 81.40685333 393.23944122 81.41239929 392.23269653 C81.4062133 390.64205887 81.4062133 390.64205887 81.39990234 389.01928711 C81.4035228 387.89356796 81.40714325 386.76784882 81.41087341 385.60801697 C81.41776178 383.16627246 81.4202739 380.72451257 81.41892624 378.28275871 C81.41796165 374.42078586 81.43089443 370.55909179 81.44790649 366.69715881 C81.4942082 355.71796734 81.51888135 344.73880705 81.52539062 333.75952148 C81.52954076 327.0428094 81.55458726 320.32643085 81.59071732 313.60980415 C81.6005374 311.04811924 81.60283531 308.48639425 81.59754562 305.92469597 C81.59050424 302.34783373 81.60769704 298.77184771 81.63037109 295.19506836 C81.61811241 293.60139435 81.61811241 293.60139435 81.60560608 291.9755249 C81.68614196 284.85668982 81.68614196 284.85668982 83.92276001 281.51527405 C86.27226356 280.09464137 87.48854484 279.66684129 90.20703125 279.65429688 C91.38845703 279.63538391 91.38845703 279.63538391 92.59375 279.61608887 C93.85638672 279.62823425 93.85638672 279.62823425 95.14453125 279.640625 C96.01722656 279.6367981 96.88992188 279.63297119 97.7890625 279.62902832 C99.63152217 279.6263101 101.47402049 279.63366506 103.31640625 279.65039062 C106.13499059 279.67180252 108.9510261 279.65058699 111.76953125 279.625 C113.56120354 279.62764329 115.35287424 279.63276831 117.14453125 279.640625 C117.98628906 279.63252808 118.82804687 279.62443115 119.6953125 279.61608887 C120.87673828 279.63500183 120.87673828 279.63500183 122.08203125 279.65429688 C122.77167969 279.65747925 123.46132813 279.66066162 124.171875 279.66394043 C127.21636136 280.44785799 128.24662069 281.6577135 130.14453125 284.171875 C130.74626937 287.15316093 130.68403602 290.09703664 130.65246582 293.12988281 C130.65870578 294.04519398 130.66494575 294.96050514 130.6713748 295.90355301 C130.68735876 298.97762893 130.67467928 302.05091787 130.66210938 305.125 C130.66752808 307.32597314 130.67464932 309.52694266 130.68334961 311.72790527 C130.70161566 317.71130736 130.69450176 323.69443417 130.68183327 329.67784119 C130.67172265 335.93269607 130.68109355 342.18752702 130.68737793 348.44238281 C130.69512672 359.62062712 130.68267785 370.79877016 130.66234058 381.97699022 C130.64446934 392.11362857 130.64757338 402.2500837 130.66601562 412.38671875 C130.6874184 424.15610905 130.69539154 435.92541008 130.68356657 447.6948204 C130.6773229 453.9257014 130.67652007 460.15645616 130.68971252 466.3873291 C130.70124713 472.24457901 130.69328875 478.10148211 130.6701355 483.95869446 C130.66483565 486.11138838 130.66638385 488.26411137 130.67518616 490.41679382 C130.68607469 493.34954883 130.67245884 496.28118405 130.65246582 499.21386719 C130.66138871 500.07105976 130.67031159 500.92825233 130.67950487 501.81142044 C130.60330282 507.55180575 130.60330282 507.55180575 128.27404022 510.70000458 C125.55692097 512.57801848 123.90382463 512.6787006 120.61328125 512.68945312 C119.50533203 512.70206177 118.39738281 512.71467041 117.25585938 512.72766113 C116.06412109 512.71956421 114.87238281 512.71146729 113.64453125 512.703125 C112.41669922 512.7069519 111.18886719 512.71077881 109.92382812 512.71472168 C107.32811666 512.71744342 104.73237789 512.71006411 102.13671875 512.69335938 C98.15953526 512.67195575 94.18415843 512.69315463 90.20703125 512.71875 C87.68619392 512.71610677 85.16535772 512.71098191 82.64453125 512.703125 C81.45279297 512.71122192 80.26105469 512.71931885 79.03320312 512.72766113 C77.3712793 512.70874817 77.3712793 512.70874817 75.67578125 512.68945312 C74.70189453 512.68627075 73.72800781 512.68308838 72.72460938 512.67980957 C69.38300743 512.0219554 68.19224135 510.85226654 66.14453125 508.171875 C65.79543075 505.2822238 65.67637505 502.7859479 65.75390625 499.90625 C65.75956604 499.11285217 65.76522583 498.31945435 65.77105713 497.50201416 C65.79339978 494.97468027 65.84358949 492.44877835 65.89453125 489.921875 C65.91459911 488.20574968 65.93284938 486.48960208 65.94921875 484.7734375 C65.9932573 480.5723672 66.06226799 476.37236365 66.14453125 472.171875 C65.35463303 472.18075745 64.5647348 472.18963989 63.75090027 472.1987915 C56.26384376 472.27933255 48.7770008 472.34003827 41.28962231 472.37912369 C37.4413455 472.3998943 33.59343017 472.42801572 29.74536133 472.47363281 C26.02354248 472.51747123 22.30206871 472.541091 18.58001137 472.55138397 C17.1683847 472.55870794 15.75677438 472.57300767 14.34529686 472.59479523 C1.11253164 472.79071309 -9.10788481 470.4772245 -18.85546875 461.171875 C-27.83498069 451.76561398 -30.30652609 442.33937142 -30.06030273 429.65820312 C-30.00578216 427.82896525 -29.93263547 426.00029754 -29.85546875 424.171875 C-30.79648437 424.21828125 -31.7375 424.2646875 -32.70703125 424.3125 C-42.883741 424.60747709 -42.883741 424.60747709 -47.48046875 422.546875 C-51.91858122 418.10876253 -54.29558764 414.58729077 -54.41125488 408.15722656 C-54.3991095 407.05072754 -54.3991095 407.05072754 -54.38671875 405.921875 C-54.39054565 405.14553711 -54.39437256 404.36919922 -54.39831543 403.56933594 C-54.40102529 401.9355336 -54.39372906 400.3016872 -54.37695312 398.66796875 C-54.35552746 396.17869604 -54.37678341 393.69230882 -54.40234375 391.203125 C-54.39970031 389.60936868 -54.39457498 388.01561415 -54.38671875 386.421875 C-54.39481567 385.68420898 -54.4029126 384.94654297 -54.41125488 384.18652344 C-54.31870619 379.04164421 -53.06758998 376.14934986 -49.85546875 372.171875 C-44.55705356 367.27084095 -38.74049821 367.39469149 -31.85546875 367.171875 C-32.20480469 366.49640625 -32.55414063 365.8209375 -32.9140625 365.125 C-33.36910156 364.23296875 -33.82414062 363.3409375 -34.29296875 362.421875 C-34.74542969 361.54015625 -35.19789063 360.6584375 -35.6640625 359.75 C-38.04568612 354.59632266 -38.0384563 349.88328906 -38.04296875 344.296875 C-38.05521484 343.50667969 -38.06746094 342.71648437 -38.08007812 341.90234375 C-38.09167825 337.25455952 -37.63421586 333.54492127 -35.85546875 329.171875 C-36.726875 329.09710938 -37.59828125 329.02234375 -38.49609375 328.9453125 C-50.12315734 327.66180548 -60.03729428 324.30775713 -68.10546875 315.5 C-72.58880266 309.53556471 -75.52329138 303.27675121 -76.93212891 295.96435547 C-77.1066861 295.0661911 -77.28124329 294.16802673 -77.46109009 293.24264526 C-77.65630753 292.21761398 -77.65630753 292.21761398 -77.85546875 291.171875 C-79.26795898 291.54575348 -79.26795898 291.54575348 -80.70898438 291.92718506 C-98.99184053 296.7638445 -117.2834988 301.56346351 -135.60546875 306.25 C-136.42427835 306.45947077 -137.24308796 306.66894154 -138.08670998 306.8847599 C-145.79041828 308.85486854 -153.49532249 310.82028353 -161.20053101 312.78451538 C-166.60015162 314.16108703 -171.99944569 315.53893296 -177.3984375 316.91796875 C-178.2786727 317.14275091 -179.15890789 317.36753307 -180.06581688 317.59912682 C-190.97941503 320.38795528 -201.88069103 323.2177807 -212.7638588 326.12313461 C-215.91396392 326.9633114 -219.06553242 327.79797291 -222.21679688 328.63378906 C-226.70862139 329.82564629 -231.19445161 331.03720316 -235.67773438 332.26074219 C-260.68699204 338.97015651 -260.68699204 338.97015651 -272.44921875 333.56640625 C-277.00498915 330.92613022 -280.93381734 327.66667999 -284.85546875 324.171875 C-285.4484375 323.66140625 -286.04140625 323.1509375 -286.65234375 322.625 C-322.87477678 289.16237139 -341.54779413 222.26207861 -344.33984375 174.73046875 C-344.4284668 173.46460938 -344.51708984 172.19875 -344.60839844 170.89453125 C-344.76944449 168.42728031 -344.88187432 165.9562284 -344.93847656 163.484375 C-345.17229916 160.00987064 -345.4669403 157.3710057 -346.85546875 154.171875 C-350.56137221 151.35203794 -354.54130171 149.84753393 -358.85546875 148.171875 C-370.68430797 139.93472849 -376.32550376 128.81279499 -379.85546875 115.171875 C-380.08105469 114.41777344 -380.30664062 113.66367188 -380.5390625 112.88671875 C-381.88271252 108.22564315 -382.92092943 102.9754774 -381.85546875 98.171875 C-378.61282003 93.96843426 -374.75062964 92.95466988 -369.79882812 91.72900391 C-369.00439049 91.52072779 -368.20995285 91.31245167 -367.39144135 91.09786415 C-364.8825357 90.44318751 -362.36931862 89.80726575 -359.85546875 89.171875 C-358.30734296 88.76998307 -356.75956358 88.36675405 -355.2121582 87.96209717 C-351.24801398 86.92914323 -347.2795613 85.91397752 -343.30921936 84.90513229 C-340.65779391 84.2314052 -338.00700152 83.55523101 -335.35632324 82.87857056 C-330.63838262 81.67458453 -325.91992995 80.47261977 -321.20129395 79.2713623 C-313.76961202 77.37941222 -306.33830987 75.48597692 -298.90768433 73.5898819 C-297.06424281 73.11948952 -295.22075746 72.64926886 -293.37722778 72.17922211 C-282.83602873 69.49044007 -272.30259842 66.77430748 -261.78125 64.00878906 C-260.80223473 63.75153612 -259.82321945 63.49428318 -258.81453705 63.2292347 C-254.1090025 61.99184963 -249.40449638 60.7507055 -244.70129395 59.50448608 C-243.02548007 59.0623677 -241.34965857 58.62027824 -239.67382812 58.17822266 C-238.90684097 57.97375141 -238.13985382 57.76928017 -237.34962463 57.55861282 C-232.08157521 56.171875 -232.08157521 56.171875 -229.85546875 56.171875 C-230.0477002 55.48150146 -230.23993164 54.79112793 -230.43798828 54.07983398 C-231.30427876 50.92783688 -232.14253105 47.76902216 -232.98046875 44.609375 C-233.28339844 43.52333984 -233.58632812 42.43730469 -233.8984375 41.31835938 C-236.7183094 30.53070989 -236.7183094 30.53070989 -233.85546875 25.171875 C-229.98638148 22.93547138 -226.19938783 21.56336833 -221.88525391 20.4543457 C-220.73030426 20.15426102 -219.57535461 19.85417633 -218.38540649 19.54499817 C-217.15091766 19.23237534 -215.91642883 18.9197525 -214.64453125 18.59765625 C-213.34939366 18.26596603 -212.05434092 17.93394432 -210.7593689 17.60160828 C-208.05233117 16.90869633 -205.34402505 16.22103659 -202.63476562 15.53686523 C-199.18006285 14.66381584 -195.72938606 13.77588861 -192.27958107 12.88370991 C-189.60797117 12.1949153 -186.93413625 11.51509917 -184.25959396 10.83778954 C-182.37279093 10.35802046 -180.48807803 9.87005518 -178.60342407 9.38191223 C-166.69961027 6.40273272 -166.69961027 6.40273272 -160.85546875 7.171875 C-157.30715107 9.65891556 -156.22827799 12.17974863 -155.1875 16.3046875 C-154.93419922 17.27535156 -154.68089844 18.24601562 -154.41992188 19.24609375 C-154.17177734 20.25285156 -153.92363281 21.25960938 -153.66796875 22.296875 C-153.15513318 24.29986057 -152.64088065 26.30248405 -152.125 28.3046875 C-151.90432861 29.19043457 -151.68365723 30.07618164 -151.45629883 30.98876953 C-150.92534709 33.19365474 -150.92534709 33.19365474 -149.85546875 35.171875 C-148.69877686 34.87643799 -147.54208496 34.58100098 -146.3503418 34.27661133 C-135.29398249 31.45275991 -124.23740139 28.62977829 -113.18061829 25.80758667 C-107.50018841 24.35765579 -101.81982942 22.90744862 -96.13964844 21.45654297 C-82.31526472 17.92551965 -68.48920024 14.40118479 -54.66088486 10.8855896 C-51.99498831 10.20736961 -49.32942386 9.52786152 -46.66397095 8.84790039 C-42.87749203 7.88228669 -39.08989329 6.92121634 -35.30119324 5.96435547 C-33.36649203 5.47469903 -31.432913 4.98061511 -29.49938965 4.48632812 C-19.63482048 2.00504126 -10.14646607 0.6107312 0 0 Z " fill="#333434" transform="translate(381.85546875,-0.171875)"/>
<path d="M0 0 C23.68976779 17.92167352 36.99721047 41.81443963 43.16748047 70.57397461 C43.16748047 71.89397461 43.16748047 73.21397461 43.16748047 74.57397461 C42.37688232 74.77031494 41.58628418 74.96665527 40.77172852 75.16894531 C37.78385024 75.91160471 34.79625603 76.65539434 31.80883789 77.39990234 C29.9019035 77.87478929 27.99465671 78.34842126 26.08740234 78.82202148 C13.53722511 81.87779004 13.53722511 81.87779004 1.16748047 85.57397461 C-0.03272714 91.67138525 -0.03272714 91.67138525 1.16748047 97.57397461 C6.25761286 99.27068541 11.00545253 98.69152705 16.16748047 97.57397461 C33.79542239 149.88915709 33.79542239 149.88915709 22.88232422 174.46850586 C16.09857758 187.97931045 4.57780749 198.71048924 -9.83251953 203.57397461 C-15.17377688 205.14182766 -20.57755551 206.47472004 -25.97363281 207.83813477 C-30.12211988 208.90590078 -34.25213867 210.03901849 -38.38452148 211.16723633 C-48.45048396 213.91391068 -58.53149615 216.50606284 -68.69433594 218.86865234 C-74.65539344 220.26365793 -80.52208338 221.88162904 -86.39501953 223.61303711 C-90.26852338 224.6958575 -94.16254669 225.61526436 -98.08251953 226.51147461 C-103.88202874 227.83873521 -109.6120089 229.31509567 -115.33251953 230.94897461 C-123.78470011 233.35878521 -132.31187863 235.39251867 -140.86474609 237.41113281 C-147.39339614 238.96126203 -153.82197764 240.6687522 -160.25439453 242.57788086 C-165.81973796 244.12718498 -171.4475724 245.40220801 -177.07324219 246.7121582 C-182.2502909 247.92768825 -187.35785856 249.25399241 -192.45751953 250.76147461 C-198.19637765 252.45704633 -203.9216649 253.65718899 -209.83251953 254.57397461 C-209.18733978 251.65716197 -208.54140134 248.74052088 -207.89501953 245.82397461 C-207.62141602 244.58647461 -207.62141602 244.58647461 -207.34228516 243.32397461 C-207.16503906 242.52475586 -206.98779297 241.72553711 -206.80517578 240.90209961 C-206.64283447 240.16894531 -206.48049316 239.43579102 -206.31323242 238.68041992 C-206.00913873 237.34790576 -205.67872036 236.02089424 -205.31254578 234.7040863 C-204.82277974 232.53075437 -204.69263074 230.61073981 -204.67138672 228.38574219 C-204.6572171 227.15439796 -204.6572171 227.15439796 -204.64276123 225.8981781 C-204.63614471 224.57174034 -204.63614471 224.57174034 -204.62939453 223.21850586 C-204.62224426 222.293246 -204.61509399 221.36798615 -204.60772705 220.41468811 C-204.33098199 173.93875375 -211.38349056 129.98273942 -230.44580078 87.21655273 C-232.83251953 81.85132636 -232.83251953 81.85132636 -232.83251953 78.57397461 C-220.35688238 74.44003567 -209.94869464 72.23461686 -197.59033203 78.04272461 C-186.46534534 84.21977105 -182.58818891 93.56173995 -178.45751953 105.19897461 C-173.77771583 117.61902508 -164.85584944 125.4784781 -152.95751953 130.94897461 C-134.16088019 138.92540828 -112.44005951 130.58155278 -93.83251953 125.57397461 C-92.31924072 125.16743652 -92.31924072 125.16743652 -90.77539062 124.75268555 C-87.00131291 123.73040911 -83.23535825 122.68397206 -79.47705078 121.60522461 C-74.29227202 120.13814895 -69.07021051 118.83718243 -63.83251953 117.57397461 C-62.60121101 111.63807715 -62.60121101 111.63807715 -64.08251953 105.94897461 C-72.16626675 101.907101 -84.15433784 107.04923843 -92.27001953 109.32397461 C-93.60176399 109.68730597 -94.93388201 110.04927067 -96.26635742 110.40991211 C-101.15791374 111.73536176 -106.0455738 113.07421643 -110.92626953 114.43920898 C-136.87887207 121.67459045 -136.87887207 121.67459045 -149.27001953 116.13647461 C-159.97194838 109.8757746 -163.67961925 102.11369262 -167.90600586 90.88891602 C-170.3336069 84.52828023 -172.92892346 79.40484786 -177.83251953 74.57397461 C-178.54408203 73.86112305 -179.25564453 73.14827148 -179.98876953 72.41381836 C-190.21944781 62.76124348 -202.02492835 59.11884385 -216.04370117 59.26635742 C-223.45690244 59.86824115 -230.54259015 61.9096348 -237.70751953 63.82397461 C-239.25532828 64.22513805 -240.8035051 64.62488405 -242.35205078 65.02319336 C-248.88589789 66.71125478 -255.40381742 68.45867641 -261.92289734 70.20269775 C-268.23253841 71.89063554 -274.55092281 73.5211129 -280.89501953 75.07397461 C-286.4711226 76.45103054 -292.01151506 77.88057832 -297.52001953 79.51147461 C-305.14203319 81.74208761 -312.86365596 83.5299017 -320.58984375 85.3605957 C-327.46010952 86.99224512 -334.28534679 88.72054573 -341.09814453 90.57788086 C-345.68336344 91.80092565 -350.28787241 92.93690612 -354.89501953 94.07397461 C-361.87445726 95.80017862 -368.79558718 97.64347322 -375.69189453 99.67944336 C-377.24650391 100.12223633 -377.24650391 100.12223633 -378.83251953 100.57397461 C-379.4501416 100.75275146 -380.06776367 100.93152832 -380.70410156 101.11572266 C-389.85375596 103.61077767 -400.86722028 104.57693596 -409.58251953 100.32397461 C-411.02575266 99.44973187 -412.44768842 98.53806227 -413.83251953 97.57397461 C-414.76064453 96.95522461 -415.68876953 96.33647461 -416.64501953 95.69897461 C-423.2509844 89.2817516 -425.68928046 82.43429255 -427.83251953 73.57397461 C-427.83251953 72.58397461 -427.83251953 71.59397461 -427.83251953 70.57397461 C-426.30498047 70.22786133 -426.30498047 70.22786133 -424.74658203 69.87475586 C-417.13983629 68.129497 -409.58895451 66.27457458 -402.08251953 64.13647461 C-395.5353847 62.27393997 -388.961949 60.61757397 -382.33251953 59.07397461 C-375.04679423 57.37719894 -367.84279602 55.50364075 -360.64990234 53.45117188 C-353.93542369 51.55576453 -347.16134614 49.96222268 -340.36767578 48.37866211 C-334.36776674 46.96952542 -328.46280288 45.35053445 -322.55126953 43.60522461 C-317.84002182 42.29874415 -313.09303799 41.18501466 -308.33251953 40.07397461 C-302.53846278 38.72144938 -296.78866328 37.33004683 -291.08251953 35.63647461 C-283.46177064 33.38488971 -275.73424124 31.61373615 -268.00244141 29.78735352 C-261.40644525 28.21966411 -254.90962491 26.49895293 -248.41064453 24.57006836 C-242.84082385 23.01951784 -237.20819318 21.74496513 -231.57861328 20.43139648 C-225.40955033 18.98064 -219.3488636 17.32702416 -213.27001953 15.53491211 C-209.39651814 14.4520924 -205.50249961 13.5326484 -201.58251953 12.63647461 C-195.69956273 11.29062203 -189.88646912 9.78971698 -184.08251953 8.13647461 C-176.65394366 6.02317285 -169.18000014 4.20263381 -161.65869141 2.45141602 C-155.17328852 0.92789514 -148.76631509 -0.79735688 -142.35986328 -2.62133789 C-136.67681671 -4.22631907 -130.96085361 -5.59905822 -125.20410156 -6.91113281 C-120.96919443 -7.88853112 -116.7875099 -8.97688113 -112.61157227 -10.18115234 C-108.69717801 -11.30759993 -104.76792373 -12.37557353 -100.83251953 -13.42602539 C-99.83430176 -13.6927002 -98.83608398 -13.959375 -97.80761719 -14.23413086 C-63.44896313 -23.19568055 -29.48642491 -21.60740827 0 0 Z " fill="#B5EAFE" transform="translate(445.83251953125,36.426025390625)"/>
<path d="M0 0 C10.98843617 3.34329015 19.03525475 10.03700779 24.65234375 20.06640625 C25.98765725 22.97313217 27.0486501 25.87989467 28.08789062 28.90063477 C32.04566399 40.36724296 37.83271447 47.73375419 48.54296875 53.84375 C61.88877776 60.12413071 76.02013625 56.84529842 89.625 53.25 C91.02301369 52.89675596 92.42145257 52.54519037 93.8203125 52.1953125 C101.53283754 50.24895726 109.17834547 48.10224516 116.81982422 45.89306641 C121.26694998 44.64421134 125.74721459 43.58845111 130.25 42.5625 C136.87972872 41.02003422 143.45449782 39.36784138 150 37.5 C157.43226183 35.3791106 164.91260174 33.55453113 172.44287109 31.81567383 C177.57663233 30.61881386 182.59145847 29.2515326 187.625 27.6875 C198.84715194 24.44142299 207.70331268 25.66852409 218.03515625 31.0625 C225.88010643 36.02809484 229.68968695 44.32071585 232 53 C232.35191406 54.25683594 232.70382812 55.51367188 233.06640625 56.80859375 C237.53112625 73.18373578 237.53112625 73.18373578 236 78 C228.32362949 89.97421867 212.89177392 94.57002334 200 98 C198.67464843 98.35896133 197.34945487 98.71850654 196.02441406 99.07861328 C191.83281472 100.21360205 187.6357977 101.32758285 183.4375 102.4375 C182.32622742 102.73205582 182.32622742 102.73205582 181.19250488 103.03256226 C171.40300568 105.62472877 161.5990754 108.10871785 151.7331543 110.39599609 C145.90701777 111.75445564 140.17643919 113.34715826 134.4375 115.0390625 C130.56399615 116.12188289 126.66997284 117.04128975 122.75 117.9375 C116.95049079 119.2647606 111.22051063 120.74112106 105.5 122.375 C97.04781942 124.7848106 88.5206409 126.81854407 79.96777344 128.8371582 C73.43912339 130.38728742 67.01054189 132.09477759 60.578125 134.00390625 C55.01278158 135.55321037 49.38494714 136.8282334 43.75927734 138.13818359 C38.58222863 139.35371364 33.47466097 140.6800178 28.375 142.1875 C22.63614188 143.88307172 16.91085463 145.08321438 11 146 C11.64517975 143.08318736 12.2911182 140.16654627 12.9375 137.25 C13.11990234 136.425 13.30230469 135.6 13.49023438 134.75 C13.75610352 133.55117188 13.75610352 133.55117188 14.02734375 132.328125 C14.18968506 131.5949707 14.35202637 130.86181641 14.51928711 130.10644531 C14.8233808 128.77393115 15.15379917 127.44691964 15.51997375 126.13011169 C16.00973979 123.95677977 16.13988879 122.0367652 16.16113281 119.81176758 C16.17057922 118.99087143 16.18002563 118.16997528 16.1897583 117.32420349 C16.19416931 116.43991165 16.19858032 115.55561981 16.203125 114.64453125 C16.21027527 113.71927139 16.21742554 112.79401154 16.22479248 111.8407135 C16.43778958 76.07046702 12.84973392 42.20680475 1.56814575 8.09056091 C0.6408823 5.2566671 0 3.00589815 0 0 Z " fill="#DDE1E7" transform="translate(225,145)"/>
<path d="M0 0 C9.39109141 5.94452924 12.79225108 15.53140835 16.375 25.625 C21.05480371 38.04505047 29.97667009 45.90450349 41.875 51.375 C60.67163934 59.35143367 82.39246002 51.00757817 101 46 C102.51327881 45.59346191 102.51327881 45.59346191 104.05712891 45.17871094 C107.83884559 44.15436535 111.60843948 43.10155298 115.3671875 41.99609375 C119 41 119 41 122.6328125 40.34765625 C126.94966964 39.57935854 126.94966964 39.57935854 131 38 C132.03375137 35.7085178 132.42592157 33.55983809 132.90234375 31.09765625 C134 29 134 29 136.94140625 27.74609375 C141.32225599 26.75066466 145.50166758 26 150 26 C150.46792969 26.6496875 150.93585938 27.299375 151.41796875 27.96875 C152.79620021 30.15984388 152.79620021 30.15984388 154.98828125 30.53125 C162.52747776 30.42988265 173.27256128 29.68803662 178.84765625 24.171875 C180.317947 21.65110297 180.317947 21.65110297 181 17 C187.93 15.515 187.93 15.515 195 14 C195.33 15.32 195.66 16.64 196 18 C201.09013239 19.6967108 205.83797206 19.11755244 211 18 C228.91878324 71.17832447 228.91878324 71.17832447 217.50390625 95.140625 C215.36497496 99.21579583 213.43441983 102.88150603 210 106 C209.82984375 105.01902344 209.6596875 104.03804688 209.484375 103.02734375 C206.39539358 84.02658437 206.39539358 84.02658437 198 67 C197.67 66.01 197.34 65.02 197 64 C195.28480253 62.97348627 195.28480253 62.97348627 193 62 C191.906875 61.34 190.81375 60.68 189.6875 60 C180.49152782 54.78959716 171.12220163 55.01502068 161.1015625 57.57421875 C158.60572602 58.26560598 156.11361741 58.97056245 153.625 59.6875 C150.95734026 60.43292377 148.28709719 61.16893259 145.6171875 61.90625 C144.96117554 62.08894943 144.30516357 62.27164886 143.62927246 62.45988464 C138.03373724 64.01241145 132.40835579 65.38619657 126.75 66.6875 C119.6158382 68.33998377 112.56718294 70.19121986 105.52441406 72.19604492 C99.84957819 73.79895265 94.14166101 75.1689348 88.39355469 76.48071289 C83.21799374 77.67649957 78.11000819 79.05122966 73 80.5 C70.0014661 81.33867164 67.00107198 82.17046213 64 83 C63.27780273 83.20189941 62.55560547 83.40379883 61.81152344 83.61181641 C48.4500302 87.28848915 34.81140488 89.97577953 21.75 83.67578125 C9.71029493 76.33908597 3.81532396 66.68100705 -0.75317383 53.81665039 C-2.70603589 48.45088404 -4.9907303 44.14055561 -9 40 C-9.52207031 39.45085937 -10.04414063 38.90171875 -10.58203125 38.3359375 C-14.57074624 34.54338882 -18.64672376 32.73229404 -23.86328125 31.0546875 C-29.04799791 28.49550377 -30.99562675 19.01638327 -33.125 13.9375 C-33.59292969 12.83599609 -34.06085938 11.73449219 -34.54296875 10.59960938 C-34.98511719 9.54451172 -35.42726562 8.48941406 -35.8828125 7.40234375 C-36.28902832 6.43804443 -36.69524414 5.47374512 -37.11376953 4.48022461 C-38 2 -38 2 -38 -1 C-24.22183114 -5.56554708 -13.20631375 -7.33268412 0 0 Z " fill="#A1ACB2" transform="translate(251,116)"/>
<path d="M0 0 C25.03059211 5.18992839 47.27592695 22.05637231 61.52587891 42.97802734 C70.231308 56.25755748 79 74.82181119 79 91 C78.20940186 91.19634033 77.41880371 91.39268066 76.60424805 91.5949707 C73.61636977 92.3376301 70.62877556 93.08141973 67.64135742 93.82592773 C65.73442303 94.30081468 63.82717624 94.77444665 61.91992188 95.24804688 C49.36974464 98.30381543 49.36974464 98.30381543 37 102 C36.19436362 104.10584438 36.19436362 104.10584438 35.8125 106.5625 C35.65394531 107.38878906 35.49539063 108.21507812 35.33203125 109.06640625 C35.22246094 109.70449219 35.11289062 110.34257812 35 111 C26.57142857 113.28571429 26.57142857 113.28571429 22 113 C21.938125 114.0725 21.87625 115.145 21.8125 116.25 C21 120 21 120 19.1875 122.25 C11.9878527 126.20274754 2.20796253 128.58863791 -6 127 C-7.77734375 125.6015625 -7.77734375 125.6015625 -9 124 C-9 123.34 -9 122.68 -9 122 C-10.75376953 122.52013672 -10.75376953 122.52013672 -12.54296875 123.05078125 C-14.09072593 123.47289684 -15.63892756 123.89338514 -17.1875 124.3125 C-17.95642578 124.54517578 -18.72535156 124.77785156 -19.51757812 125.01757812 C-21.76079591 125.60485832 -23.67872578 126.04906946 -26 126 C-26.77988281 125.18917969 -27.55976563 124.37835938 -28.36328125 123.54296875 C-30.66344376 120.80649156 -30.66344376 120.80649156 -33.23925781 120.75219727 C-41.17679054 121.3493261 -48.80339093 123.61024332 -56.4375 125.75 C-57.76924446 126.11333136 -59.10136248 126.47529606 -60.43383789 126.8359375 C-65.3253942 128.16138715 -70.21305427 129.50024182 -75.09375 130.86523438 C-101.04635254 138.10061584 -101.04635254 138.10061584 -113.4375 132.5625 C-121.17599511 128.1449785 -126.50095193 122.61058146 -129 114 C-114.87838467 109.69368867 -100.70760767 105.8359586 -86.32739258 102.48608398 C-79.24782841 100.8282082 -72.26731931 98.96070068 -65.28564453 96.93041992 C-60.72225249 95.63817092 -56.12284456 94.55521452 -51.5 93.5 C-44.49661706 91.86921226 -37.59274367 90.06168548 -30.6953125 88.0234375 C-26.117099 86.75547562 -21.50294209 85.69402141 -16.875 84.625 C-9.54804474 82.91282029 -2.28526677 81.04844037 4.9375 78.9375 C5.75943848 78.70434082 6.58137695 78.47118164 7.42822266 78.23095703 C15.43083768 75.83399834 20.78420202 72.25435425 25 65 C29.09262268 56.03520746 26.84913646 47.85795788 23.60546875 39.03125 C17.94061601 24.44522968 9.80775916 12.12472978 0 0 Z " fill="#33CBFD" transform="translate(410,20)"/>
<path d="M0 0 C7.00871338 19.90772843 12.34767981 40.20916732 16 61 C16.17789063 62.00401855 16.17789063 62.00401855 16.359375 63.02832031 C18.1308093 73.37750342 18.21562384 83.54224365 18 94 C17.29504395 94.08040527 16.59008789 94.16081055 15.86376953 94.24365234 C12.61700181 94.61645892 9.37101417 94.99569048 6.125 95.375 C5.01640625 95.50132812 3.9078125 95.62765625 2.765625 95.7578125 C-2.99673088 96.43573672 -8.63612162 97.28335089 -14.31103516 98.48242188 C-20.08267307 99.59335999 -25.92572901 100.28652063 -31.75 101.0625 C-34.30739122 101.40681343 -36.86468661 101.75183958 -39.421875 102.09765625 C-41.10168457 102.32207397 -41.10168457 102.32207397 -42.81542969 102.55102539 C-45.88692406 102.98405806 -48.94281266 103.47614962 -52 104 C-52.04898438 103.36537842 -52.09796875 102.73075684 -52.1484375 102.0769043 C-54.63062226 71.9188944 -61.81870659 43.28163369 -72.09545898 14.87963867 C-73.02253947 11.9282448 -73.56409081 9.0593158 -74 6 C-72.83082031 5.93941406 -71.66164062 5.87882813 -70.45703125 5.81640625 C-68.90884386 5.73195966 -67.36066732 5.64731375 -65.8125 5.5625 C-65.04357422 5.52318359 -64.27464844 5.48386719 -63.48242188 5.44335938 C-62.35610352 5.38051758 -62.35610352 5.38051758 -61.20703125 5.31640625 C-60.5210083 5.27974854 -59.83498535 5.24309082 -59.12817383 5.20532227 C-56.96987075 5.03759652 -56.96987075 5.03759652 -54.76733398 4.52514648 C-51.03861914 3.8175624 -47.29503355 3.56001628 -43.515625 3.28125 C-42.29308014 3.18704773 -42.29308014 3.18704773 -41.0458374 3.09094238 C-38.44743501 2.89108916 -35.84875067 2.69526791 -33.25 2.5 C-30.66557632 2.30421033 -28.08123013 2.10750703 -25.49700928 1.90905762 C-23.89317303 1.78605279 -22.28921616 1.66460654 -20.68511963 1.54504395 C-16.09306565 1.19470666 -11.52407075 0.74448718 -6.9508667 0.19958496 C-4.62569825 -0.03829324 -2.33531518 -0.07533275 0 0 Z " fill="#676767" transform="translate(208,145)"/>
<path d="M0 0 C5.28 0 10.56 0 16 0 C16 52.8 16 105.6 16 160 C-1.985 160.0825 -19.97 160.165 -38.5 160.25 C-44.16994141 160.28641602 -49.83988281 160.32283203 -55.68164062 160.36035156 C-62.62792969 160.37841797 -62.62792969 160.37841797 -65.88415527 160.3817749 C-68.14883572 160.38790023 -70.41350346 160.40193335 -72.67810059 160.42230225 C-76.11700965 160.45167594 -79.55512449 160.45562092 -82.99414062 160.45410156 C-83.99587563 160.468494 -84.99761063 160.48288643 -86.02970123 160.497715 C-93.50902603 160.45362202 -98.7927605 158.79997099 -104.4609375 153.8515625 C-105.09257812 153.11679687 -105.72421875 152.38203125 -106.375 151.625 C-107.02210938 150.89539063 -107.66921875 150.16578125 -108.3359375 149.4140625 C-111.68981407 144.54857959 -112.24362874 139.93780818 -112.125 134.125 C-112.10695313 132.97257813 -112.08890625 131.82015625 -112.0703125 130.6328125 C-112.03550781 129.32957031 -112.03550781 129.32957031 -112 128 C-110.86962311 127.99635437 -109.73924622 127.99270874 -108.57461548 127.98895264 C-97.89363897 127.95192442 -87.21294868 127.89406627 -76.53219032 127.81609726 C-71.04179355 127.77667942 -65.55155581 127.74446295 -60.06103516 127.72900391 C-54.75698492 127.71379993 -49.45337203 127.67928778 -44.14951706 127.63169098 C-42.13149198 127.61691576 -40.11340446 127.60896121 -38.09532547 127.60811615 C-22.05319777 128.14484349 -22.05319777 128.14484349 -8.11953735 121.309021 C-1.5332243 114.44994027 -0.55444529 107.33019487 -0.56762695 98.19946289 C-0.5574353 97.13530151 -0.54724365 96.07114014 -0.53674316 94.97473145 C-0.50666372 91.4739858 -0.49735468 87.97351404 -0.48828125 84.47265625 C-0.47143088 82.03884475 -0.45328015 79.60504193 -0.43388367 77.17124939 C-0.38641681 70.77789015 -0.35658577 64.38456613 -0.33044434 57.99108887 C-0.30062228 51.46208747 -0.25409753 44.93320735 -0.20898438 38.40429688 C-0.12298881 25.60292807 -0.05562667 12.80153428 0 0 Z " fill="#9F9F9F" transform="translate(480,296)"/>
<path d="M0 0 C8.78203762 18.81655689 15.32330442 37.22706957 20.3359375 57.37744141 C20.90359891 59.61928657 21.50122997 61.84751794 22.125 64.07421875 C23.2006246 68.0279795 24.15052539 71.99277018 25 76 C25.18336914 76.86254395 25.36673828 77.72508789 25.55566406 78.61376953 C28.68203125 94.10013155 29.41811807 109.37710845 29.5 125.125 C29.51035278 126.03448395 29.52070557 126.9439679 29.53137207 127.88101196 C29.67373295 143.72867465 28.85069108 161.72860709 18.62890625 174.74609375 C15.85520422 177.51979578 14.02236124 177.998918 10.125 178.1875 C5.12139752 177.1525993 1.73706313 174.34778572 -2 171 C-2.721875 170.35933594 -3.44375 169.71867188 -4.1875 169.05859375 C-21.67060184 152.57712795 -31.50487508 128.97798511 -40 107 C-40.36367676 106.06559082 -40.72735352 105.13118164 -41.10205078 104.16845703 C-52.0805395 75.54940637 -59.48303842 43.75344583 -59 13 C-57.27192682 12.66104344 -55.54248026 12.32908475 -53.8125 12 C-52.84957031 11.814375 -51.88664062 11.62875 -50.89453125 11.4375 C-48.20131375 11.03042799 -45.71612318 10.96797497 -43 11 C-42.96559814 11.62640381 -42.93119629 12.25280762 -42.89575195 12.89819336 C-40.40824534 55.41720177 -29.0127531 98.51780696 -8.25 135.875 C-7.89760254 136.51083008 -7.54520508 137.14666016 -7.18212891 137.80175781 C-4.82033806 141.91855967 -2.27086859 145.54712759 1 149 C4.89446737 149.68323989 6.91126091 149.76266508 10.18383789 147.47021484 C12.70504057 144.04105384 12.55562247 140.94582443 12.49609375 136.8515625 C12.49886322 136.05104965 12.50163269 135.2505368 12.50448608 134.42576599 C12.50514568 131.82483586 12.47364638 129.22566187 12.4375 126.625 C12.43068207 125.73908173 12.42386414 124.85316345 12.4168396 123.94039917 C12.30845082 110.41387839 11.57512711 97.30269239 9 84 C8.83902832 83.08959961 8.67805664 82.17919922 8.51220703 81.24121094 C4.09400425 56.259903 -2.97309193 30.36683678 -15.11547852 7.93969727 C-16 6 -16 6 -16 3 C-14.08487728 2.49411853 -12.16783078 1.99551609 -10.25 1.5 C-8.64898437 1.08234375 -8.64898437 1.08234375 -7.015625 0.65625 C-4 0 -4 0 0 0 Z " fill="#9E9E9E" transform="translate(112,142)"/>
<path d="M0 0 C0.33 0 0.66 0 1 0 C2.19732989 49.33613145 2.19732989 49.33613145 -9.47436523 63.55395508 C-14.11357816 67.95114793 -22.49632903 68.98907341 -28.5625 70.4375 C-30.3426633 70.87281807 -32.12260995 71.30902303 -33.90234375 71.74609375 C-34.77101074 71.95862793 -35.63967773 72.17116211 -36.53466797 72.39013672 C-44.00060677 74.23702869 -51.41991727 76.26662834 -58.8203125 78.359375 C-60.04886963 78.70548828 -60.04886963 78.70548828 -61.30224609 79.05859375 C-62.90257705 79.51063218 -64.50191199 79.96621571 -66.10009766 80.42578125 C-69.15593773 81.28975737 -71.80759547 82 -75 82 C-74.58427734 80.33324219 -74.58427734 80.33324219 -74.16015625 78.6328125 C-73.79391747 77.13029442 -73.42805222 75.62768526 -73.0625 74.125 C-72.88009766 73.39796875 -72.69769531 72.6709375 -72.50976562 71.921875 C-69.64865088 60.06125386 -69.7207226 48.00848755 -69.4375 35.875 C-69.39422119 34.1380123 -69.35060422 32.401033 -69.30664062 30.6640625 C-69.20052656 26.44279501 -69.09899471 22.2214402 -69 18 C-64.78590005 16.0570057 -60.61940301 15.36566088 -56.05859375 14.78125 C-55.29507095 14.67784302 -54.53154816 14.57443604 -53.74488831 14.46789551 C-51.30986358 14.13916554 -48.87379405 13.81917359 -46.4375 13.5 C-43.24831961 13.07571737 -40.05962327 12.64789444 -36.87109375 12.21875 C-36.10234421 12.11573578 -35.33359467 12.01272156 -34.54154968 11.90658569 C-28.33806964 11.06681893 -22.16573354 10.08344795 -16 9 C-10.60081199 8.08488339 -5.45738533 7.88862479 0 8 C0 5.36 0 2.72 0 0 Z " fill="#4E5559" transform="translate(226,231)"/>
<path d="M0 0 C10.17567321 29.30593885 10.17567321 29.30593885 10 39 C3.54719139 40.19838948 -2.87030075 41.13692231 -9.41015625 41.7109375 C-10.66634766 41.82179687 -11.92253906 41.93265625 -13.21679688 42.046875 C-15.81486153 42.26854837 -18.41388579 42.47920968 -21.01367188 42.6796875 C-22.25826172 42.793125 -23.50285156 42.9065625 -24.78515625 43.0234375 C-25.90801025 43.11544434 -27.03086426 43.20745117 -28.18774414 43.30224609 C-31.12594162 43.75613143 -31.12594162 43.75613143 -32.88842773 46.06103516 C-33.25524658 46.70089355 -33.62206543 47.34075195 -34 48 C-35.65 47.67 -37.3 47.34 -39 47 C-39.33 46.01 -39.66 45.02 -40 44 C-41.08539063 44.144375 -42.17078125 44.28875 -43.2890625 44.4375 C-44.7343491 44.62519956 -46.17966307 44.81268838 -47.625 45 C-48.33785156 45.09539062 -49.05070312 45.19078125 -49.78515625 45.2890625 C-50.48769531 45.37929687 -51.19023437 45.46953125 -51.9140625 45.5625 C-52.5529541 45.64628906 -53.1918457 45.73007813 -53.85009766 45.81640625 C-56.57185911 46.04883466 -59.26980354 46.02719996 -62 46 C-62.22139648 45.26475098 -62.44279297 44.52950195 -62.67089844 43.77197266 C-63.6926636 40.38823942 -64.72128512 37.00662658 -65.75 33.625 C-66.09804687 32.46871094 -66.44609375 31.31242187 -66.8046875 30.12109375 C-68.68198452 23.96773131 -70.68837567 17.99343608 -73.27441406 12.09912109 C-74 10 -74 10 -74 6 C-72.83082031 5.93941406 -71.66164062 5.87882813 -70.45703125 5.81640625 C-68.90884386 5.73195966 -67.36066732 5.64731375 -65.8125 5.5625 C-65.04357422 5.52318359 -64.27464844 5.48386719 -63.48242188 5.44335938 C-62.35610352 5.38051758 -62.35610352 5.38051758 -61.20703125 5.31640625 C-60.5210083 5.27974854 -59.83498535 5.24309082 -59.12817383 5.20532227 C-56.96987075 5.03759652 -56.96987075 5.03759652 -54.76733398 4.52514648 C-51.03861914 3.8175624 -47.29503355 3.56001628 -43.515625 3.28125 C-42.29308014 3.18704773 -42.29308014 3.18704773 -41.0458374 3.09094238 C-38.44743501 2.89108916 -35.84875067 2.69526791 -33.25 2.5 C-30.66557632 2.30421033 -28.08123013 2.10750703 -25.49700928 1.90905762 C-23.89317303 1.78605279 -22.28921616 1.66460654 -20.68511963 1.54504395 C-16.09306565 1.19470666 -11.52407075 0.74448718 -6.9508667 0.19958496 C-4.62569825 -0.03829324 -2.33531518 -0.07533275 0 0 Z " fill="#676868" transform="translate(208,145)"/>
<path d="M0 0 C2.77318069 7.38023893 3.62976114 15.36478581 0.97265625 22.921875 C-2.77652247 29.77632916 -7.61980635 34.3221466 -15.13720703 36.66650391 C-20.25031551 38.08559714 -25.41472923 39.26392083 -30.58935547 40.43408203 C-33.84409919 41.19815899 -37.04390878 42.11650064 -40.25 43.0625 C-69.29942138 51.44543079 -69.29942138 51.44543079 -78.375 47.3125 C-83.90853484 44.09401545 -87.98161785 39.62043573 -91 34 C-91.42504004 32.10766837 -91.79260036 30.20184628 -92.11328125 28.2890625 C-92.28255127 27.2985791 -92.45182129 26.3080957 -92.6262207 25.28759766 C-92.74956787 24.53269043 -92.87291504 23.7777832 -93 23 C-78.80750272 19.00812766 -64.63128853 15.04113154 -50.26293945 11.72387695 C-44.79777528 10.454041 -39.3956716 9.03753714 -34 7.5 C-27.2426006 5.57977297 -20.45497279 3.83157873 -13.625 2.1875 C-12.72652344 1.96835937 -11.82804687 1.74921875 -10.90234375 1.5234375 C-10.06058594 1.32363281 -9.21882813 1.12382812 -8.3515625 0.91796875 C-7.60729004 0.74031982 -6.86301758 0.5626709 -6.09619141 0.37963867 C-4 0 -4 0 0 0 Z " fill="#AFAFAF" transform="translate(413,263)"/>
<path d="M0 0 C26.4 0 52.8 0 80 0 C80 7.92 80 15.84 80 24 C53.6 24 27.2 24 0 24 C0 16.08 0 8.16 0 0 Z " fill="#77848C" transform="translate(344,384)"/>
<path d="M0 0 C6.55117147 3.87610979 11.55391175 9.03269372 13.6875 16.4375 C14.56701682 23.99391215 13.51821044 30.2489691 9.24609375 36.5703125 C4.53706683 42.49210505 -0.50559239 45.77920737 -8.05078125 46.8125 C-14.31175126 47.08961071 -19.27478207 46.27478412 -24.3125 42.4375 C-31.12440514 36.1700633 -34.20501788 30.80906675 -34.6875 21.5 C-34.50552433 14.43506233 -31.73790204 9.72571436 -27 4.625 C-19.67917845 -2.13980978 -9.28628836 -4.19147646 0 0 Z " fill="#75828A" transform="translate(394.3125,321.5625)"/>
<path d="M0 0 C3.98918111 8.19694749 7.71039375 16.13794534 10 25 C-0.79291172 26.9131779 -11.57946408 27.77367885 -22.5 28.5625 C-25.07191277 28.75051802 -27.64368245 28.94006703 -30.21520996 29.13328552 C-31.80099291 29.252247 -33.38700602 29.36819268 -34.9732666 29.48060608 C-38.72574653 29.76020108 -42.3192169 30.23906695 -46 31 C-47.40072998 31.0747206 -48.80435061 31.10836374 -50.20703125 31.09765625 C-51.33334961 31.09282227 -51.33334961 31.09282227 -52.48242188 31.08789062 C-53.25134766 31.07951172 -54.02027344 31.07113281 -54.8125 31.0625 C-55.99489258 31.05573242 -55.99489258 31.05573242 -57.20117188 31.04882812 C-59.13414761 31.03711312 -61.06708393 31.01917998 -63 31 C-63.33 31.66 -63.66 32.32 -64 33 C-64.84212256 31.08717875 -65.67338864 29.16957527 -66.5 27.25 C-66.9640625 26.18265625 -67.428125 25.1153125 -67.90625 24.015625 C-69 21 -69 21 -69 17 C-60.87424915 14.82536383 -52.7448687 12.66524263 -44.609375 10.52734375 C-43.80512085 10.31598785 -43.0008667 10.10463196 -42.17224121 9.88687134 C-38.86200208 9.01720094 -35.55166565 8.14790213 -32.24121094 7.27905273 C-30.58688864 6.84478505 -28.93263148 6.41026918 -27.27844238 5.97549438 C-25.68316914 5.55630951 -24.08771393 5.13781641 -22.49206543 4.72006226 C-17.38521071 3.37918182 -12.30035147 1.97512386 -7.23535156 0.48266602 C-4.76821519 -0.0500479 -2.51659388 -0.08479465 0 0 Z " fill="#4E5559" transform="translate(197,120)"/>
<path d="M0 0 C2.27474277 3.41211416 2.56629644 5.6568529 3.125 9.6875 C3.29257813 10.86699219 3.46015625 12.04648438 3.6328125 13.26171875 C3.75398438 14.16535156 3.87515625 15.06898438 4 16 C3.30223953 16.09578339 2.60447906 16.19156677 1.88557434 16.29025269 C-4.74750287 17.20098362 -11.38043875 18.11273652 -18.0132246 19.02558708 C-21.421746 19.49465639 -24.83031749 19.96335474 -28.23901367 20.43115234 C-32.17382534 20.97116986 -36.10840091 21.51289618 -40.04296875 22.0546875 C-41.24455124 22.21935516 -42.44613373 22.38402283 -43.68412781 22.55368042 C-51.46834431 23.62726061 -59.23703529 24.78227807 -67 26 C-69.22687026 19.94050018 -70.48815992 14.44918507 -71 8 C-68.25032342 7.663795 -65.50031189 7.33093184 -62.75 7 C-61.97269531 6.90460938 -61.19539062 6.80921875 -60.39453125 6.7109375 C-59.64042969 6.62070313 -58.88632813 6.53046875 -58.109375 6.4375 C-57.07248535 6.31181641 -57.07248535 6.31181641 -56.01464844 6.18359375 C-54.01710903 6.00155914 -52.00581661 6 -50 6 C-49.01 7.485 -49.01 7.485 -48 9 C-45.56282742 8.72965366 -45.56282742 8.72965366 -43 8 C-42.34 7.01 -41.68 6.02 -41 5 C-38.1524712 4.46283055 -35.47306321 4.11124015 -32.59765625 3.8671875 C-31.76415146 3.78501984 -30.93064667 3.70285217 -30.07188416 3.61819458 C-27.40315189 3.35744444 -24.73312342 3.11553615 -22.0625 2.875 C-19.39590854 2.62378369 -16.72974022 2.36869892 -14.06382751 2.11038208 C-12.40378203 1.95072745 -10.74326909 1.79584667 -9.08229065 1.64620972 C-5.89222589 1.34871942 -3.0511421 1.01704737 0 0 Z " fill="#586267" transform="translate(218,183)"/>
<path d="M0 0 C2.77318069 7.38023893 3.62976114 15.36478581 0.97265625 22.921875 C-2.82240046 29.86020583 -7.70072875 34.35178817 -15.29833984 36.71484375 C-20.44504091 38.15176463 -25.63315941 39.38179463 -30.8527832 40.52270508 C-32.91179497 40.98039331 -34.95612959 41.47925207 -37 42 C-36.566875 41.2471875 -36.13375 40.494375 -35.6875 39.71875 C-30.86926229 30.5284077 -29.84523726 23.31514026 -31 13 C-31.63846272 10.99081862 -32.30101031 8.98893385 -33 7 C-28.94462159 5.99720444 -24.8878146 5.00047442 -20.82958984 4.00927734 C-19.44995189 3.67141344 -18.07071411 3.33191099 -16.69189453 2.99072266 C-14.70709142 2.49988814 -12.72091201 2.01501256 -10.734375 1.53125 C-9.54038086 1.23798828 -8.34638672 0.94472656 -7.11621094 0.64257812 C-4 0 -4 0 0 0 Z " fill="#777777" transform="translate(413,263)"/>
<path d="M0 0 C18.48 0 36.96 0 56 0 C56 11.55555556 56 11.55555556 53 15 C50.04601242 15.98466253 48.14750978 16.12127836 45.06958008 16.11352539 C44.06876907 16.11344986 43.06795807 16.11337433 42.03681946 16.11329651 C40.95861435 16.10813522 39.88040924 16.10297394 38.76953125 16.09765625 C37.66397385 16.0962413 36.55841644 16.09482635 35.4193573 16.09336853 C31.88371083 16.08776514 28.34812738 16.07521204 24.8125 16.0625 C22.41731862 16.05748544 20.02213625 16.05292246 17.62695312 16.04882812 C11.75127775 16.0377946 5.87564957 16.02052767 0 16 C0 10.72 0 5.44 0 0 Z " fill="#B3D2DF" transform="translate(344,384)"/>
<path d="M0 0 C10.56 0 21.12 0 32 0 C32 7.92 32 15.84 32 24 C21.44 24 10.88 24 0 24 C0 16.08 0 8.16 0 0 Z " fill="#77848C" transform="translate(464,472)"/>
<path d="M0 0 C2.29688569 2.29688569 2.71851303 3.78928171 3.625 6.875 C4.01558594 8.17050781 4.01558594 8.17050781 4.4140625 9.4921875 C5 12 5 12 5 16 C4.08822998 16.2266333 3.17645996 16.4532666 2.23706055 16.68676758 C-1.19808192 17.54125137 -4.63294214 18.39685309 -8.06762695 19.25317383 C-9.54440614 19.62112392 -11.02129134 19.98864886 -12.49829102 20.35571289 C-14.64107946 20.88832189 -16.78346242 21.42253679 -18.92578125 21.95703125 C-19.62357697 22.13017853 -20.32137268 22.30332581 -21.04031372 22.48171997 C-25.99709683 23.72071455 -30.90354839 25.09269679 -35.78979492 26.58862305 C-38 27 -38 27 -42 26 C-42.99 21.38 -43.98 16.76 -45 12 C-33.8753218 8.49479413 -22.69933933 5.30015856 -11.375 2.5 C-10.27873291 2.22075684 -9.18246582 1.94151367 -8.05297852 1.65380859 C-7.03260498 1.40711426 -6.01223145 1.16041992 -4.9609375 0.90625 C-4.05134277 0.68259766 -3.14174805 0.45894531 -2.20458984 0.22851562 C-1.11331787 0.11540039 -1.11331787 0.11540039 0 0 Z " fill="#586268" transform="translate(210,25)"/>
<path d="M0 0 C13.44457502 20.16686253 17.83196402 48.61507913 22 72 C22.19916016 73.10964111 22.19916016 73.10964111 22.40234375 74.24169922 C23.45226209 80.20057563 24.28160968 85.94539182 24 92 C21.66387435 89.66387435 21.08551834 87.89484971 19.9765625 84.79296875 C19.59725586 83.73811279 19.21794922 82.68325684 18.82714844 81.59643555 C18.43043945 80.47148682 18.03373047 79.34653809 17.625 78.1875 C17.21797852 77.04128174 16.81095703 75.89506348 16.39160156 74.71411133 C7.84590682 50.50762186 0.9932616 25.75630076 0 0 Z " fill="#1EDFAE" transform="translate(85,161)"/>
<path d="M0 0 C2.5625 2.0625 2.5625 2.0625 4 5 C4.07024187 9.00378676 3.71279804 11.11514726 1.1875 14.25 C-6.02715895 18.21098923 -15.78430676 20.62457211 -24 19 C-26.6875 16.9375 -26.6875 16.9375 -28 14 C-27.94260879 10.67130976 -27.83570698 8.2202533 -25.921875 5.42578125 C-23.01983244 3.27284317 -19.77017372 2.6284983 -16.3125 1.8125 C-15.62994141 1.63525391 -14.94738281 1.45800781 -14.24414062 1.27539062 C-9.39012206 0.08824161 -4.99740137 -0.33244516 0 0 Z " fill="#343535" transform="translate(428,128)"/>
<path d="M0 0 C5.28 0 10.56 0 16 0 C16 7.92 16 15.84 16 24 C10.72 24 5.44 24 0 24 C0 16.08 0 8.16 0 0 Z " fill="#B4D3E0" transform="translate(464,472)"/>
<path d="M0 0 C0.375 2.1875 0.375 2.1875 0 5 C-4.36234959 10.23481951 -9.3440904 11.06959568 -15.87890625 12.32421875 C-18.77335222 12.95092607 -21.29337538 13.81553671 -24 15 C-24.66 12.03 -25.32 9.06 -26 6 C-22.79459775 4.98966683 -19.58622585 3.99150506 -16.375 3 C-15.47136719 2.71382812 -14.56773437 2.42765625 -13.63671875 2.1328125 C-8.9673093 0.70131471 -4.94564552 -0.39433718 0 0 Z " fill="#758289" transform="translate(191,31)"/>
<path d="M0 0 C4.0743356 0.84881992 5.54405875 2.30225596 8 5.625 C8.625 8.625 8.625 8.625 8 11.625 C5.54405875 14.94774404 4.0743356 16.40118008 0 17.25 C-4.0743356 16.40118008 -5.54405875 14.94774404 -8 11.625 C-8.625 8.625 -8.625 8.625 -8 5.625 C-5.54405875 2.30225596 -4.0743356 0.84881992 0 0 Z " fill="#343434" transform="translate(384,335.375)"/>
<path d="M0 0 C3.5 1.0625 3.5 1.0625 6 3.1875 C7.97798094 6.97863014 7.63111674 8.99047973 6.5 13.0625 C5.4375 15 5.4375 15 3.5 16.0625 C0.40437069 16.45559578 -1.54336605 16.68588668 -4.5 16.0625 C-7.0625 14 -7.0625 14 -8.5 11.0625 C-8.5 7.12427557 -8.02220018 4.86588489 -5.875 1.5625 C-3.5 0.0625 -3.5 0.0625 0 0 Z " fill="#F8F8F8" transform="translate(160.5,164.9375)"/>
<path d="M0 0 C2.625 0.375 2.625 0.375 5 1 C5.625 3.375 5.625 3.375 6 6 C5.34 6.66 4.68 7.32 4 8 C1.375 7.625 1.375 7.625 -1 7 C-1.625 4.625 -1.625 4.625 -2 2 C-1.34 1.34 -0.68 0.68 0 0 Z " fill="#EFEFEF" transform="translate(170,185)"/>
</svg>
