<?xml version="1.0" encoding="UTF-8"?>
<svg version="1.1" xmlns="http://www.w3.org/2000/svg" width="512" height="512">
<path d="M0 0 C0.72960937 -0.02835938 1.45921875 -0.05671875 2.2109375 -0.0859375 C7.66671609 0.95578074 11.75118348 5.25120215 15.55078125 9.0703125 C16.42927734 9.95074219 17.30777344 10.83117187 18.21289062 11.73828125 C19.11201172 12.64964844 20.01113281 13.56101563 20.9375 14.5 C21.85595703 15.41910156 22.77441406 16.33820313 23.72070312 17.28515625 C31.57463096 25.19132751 31.57463096 25.19132751 31.75 29.3125 C31.625 32.375 31.625 32.375 30.625 35.375 C33.71443668 39.04491539 36.80417076 42.45727585 40.625 45.375 C43.15542986 45.58207282 44.91318509 45.15117879 47.34936523 44.50976562 C49.625 44.375 49.625 44.375 51.45068359 45.48974609 C52.05219238 46.05773926 52.65370117 46.62573242 53.2734375 47.2109375 C53.9648584 47.85667725 54.6562793 48.50241699 55.36865234 49.16772461 C56.48554443 50.26032593 56.48554443 50.26032593 57.625 51.375 C58.42502441 52.15431885 59.22504883 52.9336377 60.04931641 53.73657227 C62.59258808 56.24451386 65.11191859 58.77432638 67.625 61.3125 C68.49511719 62.18712891 69.36523438 63.06175781 70.26171875 63.96289062 C72.38513549 66.09797449 74.50616378 68.23537205 76.625 70.375 C78.60928655 69.39109028 80.57270263 68.40463518 82.5 67.3125 C89.1942129 64.35917078 97.07895095 65.15416725 104.25512695 65.13476562 C106.42112843 65.12507326 108.58617414 65.09400582 110.75195312 65.0625 C119.44580865 64.99567425 127.3921655 65.06234691 134.5 70.625 C139.06017493 76.52640285 140.08202279 81.65877327 140.0234375 88.90625 C140.02630768 89.70099731 140.02917786 90.49574463 140.03213501 91.3145752 C140.03416525 92.98527748 140.0287086 94.65600411 140.01611328 96.32666016 C140.00004389 98.8680593 140.01599664 101.40786842 140.03515625 103.94921875 C140.03317363 105.58073264 140.02932957 107.21224555 140.0234375 108.84375 C140.02951019 109.59499146 140.03558289 110.34623291 140.0418396 111.12023926 C139.9535883 117.81756363 137.59517873 122.43806683 134.625 128.375 C135.14368338 128.89183979 135.66236675 129.40867958 136.19676781 129.94118118 C148.8128023 142.51306128 161.42330752 155.09046293 174.02766991 167.67404556 C180.1231577 173.75921752 186.22050779 179.84250137 192.32226562 185.92138672 C197.64008788 191.21928455 202.95439401 196.52067981 208.26449454 201.82631755 C211.07668266 204.63589669 213.89060888 207.44368423 216.70875168 210.24729156 C219.36091595 212.88588693 222.00835548 215.52913146 224.65223885 218.17602348 C225.6236281 219.14686227 226.59673415 220.11598678 227.57167244 221.08326149 C228.90244442 222.40408353 230.22646999 223.73169249 231.55014038 225.05963135 C232.29310553 225.80075291 233.03607067 226.54187447 233.80154991 227.30545425 C237.42119465 231.41361188 238.08789958 234.77606405 237.9296875 240.12890625 C237.43245962 243.7943682 236.12611555 245.68630079 233.625 248.375 C227.18544161 251.95397158 220.43541179 254.38458893 213.50390625 256.83984375 C211.68285682 257.49234358 209.86180913 258.14484829 208.0408287 258.79754066 C206.1000658 259.49220796 204.15847807 260.18452242 202.21664429 260.87619019 C196.00386469 263.08960821 189.79673416 265.3187838 183.58961678 267.54802132 C182.1653619 268.05951805 180.74104887 268.57085291 179.316679 269.08202934 C164.94972693 274.23897161 150.62708545 279.51189786 136.3125 284.8125 C115.95713028 292.34459457 95.55727119 299.7423705 75.125 307.0625 C55.32077154 314.15780101 35.53929326 321.30794014 15.80175781 328.58734131 C-0.73406895 334.68530374 -17.2984915 340.70105937 -33.875 346.6875 C-56.88165076 354.99660335 -79.84752543 363.41162856 -102.79296875 371.88793945 C-103.95385513 372.3167189 -105.11474152 372.74549835 -106.31080627 373.18727112 C-108.48250656 373.98965314 -110.654016 374.79255197 -112.82530212 375.59605408 C-113.78134842 375.94946365 -114.73739471 376.30287323 -115.72241211 376.66699219 C-116.55340927 376.97449402 -117.38440643 377.28199585 -118.24058533 377.59881592 C-123.7115464 379.58834164 -128.57234976 380.13654611 -134.375 379.375 C-137.55239189 377.72791871 -139.75281742 375.61936516 -141.375 372.375 C-142.38246645 363.65733235 -140.17543336 356.61861549 -137.08203125 348.55859375 C-136.38665515 346.67972074 -135.69128067 344.80084713 -134.99596882 342.92195034 C-134.25323228 340.92552114 -133.50175785 338.93259282 -132.74749756 336.94049072 C-131.15781603 332.74145009 -129.59276577 328.53349354 -128.03173828 324.32373047 C-126.41409945 319.96440437 -124.79508721 315.60562332 -123.16766357 311.24993896 C-118.36235198 298.38657973 -113.68260279 285.48047764 -109.03213501 272.56027222 C-101.35565626 251.2439882 -93.55431515 229.97547356 -85.69671631 208.72540283 C-78.64614358 189.64732438 -71.73224735 170.52311447 -64.875 151.375 C-56.74066359 128.66132059 -48.49653402 105.99232732 -40.11547852 83.36816406 C-35.84747031 71.84017543 -31.61329138 60.30174963 -27.46197701 48.73127937 C-26.76402785 46.78684675 -26.06485124 44.84286024 -25.36521912 42.89903259 C-25.13765458 42.26668607 -24.91009005 41.63433954 -24.67562962 40.982831 C-24.44969089 40.35500312 -24.22375216 39.72717524 -23.9909668 39.08032227 C-22.23984728 34.2133545 -20.50109137 29.34220119 -18.76879883 24.46850586 C-17.98046724 22.27570385 -17.19167444 20.08306757 -16.40234375 17.890625 C-15.87720688 16.3964782 -15.87720688 16.3964782 -15.34146118 14.87214661 C-13.34375659 9.36138627 -11.51500005 4.42282612 -6.3984375 1.0859375 C-4.16761401 0.30213465 -2.36315728 0.0414589 0 0 Z " fill="#020101" transform="translate(141.375,132.625)"/>
<path d="M0 0 C0.95648438 0.03544922 1.91296875 0.07089844 2.8984375 0.10742188 C18.82345492 0.83030546 18.82345492 0.83030546 24.5625 4.8125 C28.60004577 10.80369694 27.61221315 15.94532768 26.375 22.75 C22.8904136 39.16914169 16.78390791 55.2913568 6.5 68.6875 C4.5 69.6875 4.5 69.6875 1 69.0625 C-2.39099468 69.00639898 -3.51056525 69.69567906 -6.25 71.81640625 C-11.36522093 76.76098184 -11.36522093 76.76098184 -13.8515625 83.17578125 C-13.70239085 84.66492582 -13.54504608 86.15327793 -13.37890625 87.640625 C-13.54627099 90.46962902 -14.49731941 91.28386631 -16.5625 93.1875 C-32.87583471 105.55039303 -52.11811301 113.49499154 -70.875 121.3125 C-84.49830015 127.00695821 -97.41685238 132.67815215 -108.5 142.6875 C-109.24507813 143.33976563 -109.99015625 143.99203125 -110.7578125 144.6640625 C-124.27937814 157.24335875 -132.52948041 173.95990207 -136.12060547 191.91552734 C-137.26899725 197.50879275 -138.35957435 201.23250906 -143.18359375 204.51171875 C-147.13978362 205.91432552 -150.45932363 205.8779732 -154.5625 205.5 C-155.3040332 205.44175049 -156.04556641 205.38350098 -156.80957031 205.32348633 C-159.04284276 205.13610066 -161.27077011 204.91771134 -163.5 204.6875 C-164.76199219 204.56117188 -166.02398437 204.43484375 -167.32421875 204.3046875 C-173.28393377 203.55717478 -177.08942493 203.04484399 -181.5 198.6875 C-186.55976165 189.2285984 -181.20729746 175.82586235 -178.30957031 166.20458984 C-172.50862806 148.16848774 -163.63052987 132.36307073 -150.5 118.6875 C-149.39072441 117.35841404 -148.28634409 116.02522324 -147.1875 114.6875 C-130.27012146 95.40865672 -105.70598944 84.0146723 -82.39746094 74.7121582 C-57.14715869 64.5945963 -35.10619548 52.58131721 -23.6875 26.75 C-21.41675208 20.98400529 -20.00895135 15.0769843 -18.6875 9.03515625 C-15.19556074 -0.80889621 -8.87598037 -0.42294162 0 0 Z " fill="#010000" transform="translate(474.5,37.3125)"/>
<path d="M0 0 C3.27124306 1.41023531 5.19629114 3.06576773 7.5390625 5.73046875 C8.53486328 6.81038086 8.53486328 6.81038086 9.55078125 7.91210938 C10.92889574 9.42388281 12.28860468 10.95265043 13.62890625 12.49804688 C17.36992456 16.69704475 17.36992456 16.69704475 22.55297852 18.11254883 C24.27639162 17.85301514 25.99521084 17.56053995 27.70703125 17.2331543 C30 17 30 17 33.19921875 18.73828125 C34.02035156 19.58777344 34.84148437 20.43726563 35.6875 21.3125 C36.53699219 22.13363281 37.38648438 22.95476562 38.26171875 23.80078125 C40.23377028 27.43024239 39.99715689 27.88697922 39.18906498 31.69853973 C38.84025611 34.69655687 38.68948793 36.39653517 40.08065021 39.10019016 C41.84484598 41.22481317 43.71340564 43.11773794 45.71324158 45.02258301 C46.44742658 45.76475555 47.18161158 46.50692809 47.93804461 47.27159071 C50.40330769 49.75028302 52.90576919 52.18759313 55.40991211 54.62695312 C57.1855158 56.39617948 58.95868767 58.16784929 60.729599 59.94177246 C64.54694592 63.75484692 68.38039822 67.55047716 72.22953606 71.33143616 C77.79553759 76.79908056 83.32986464 82.29790811 88.85683257 87.80497402 C97.82653306 96.74086305 106.81978095 105.65265091 115.82885742 114.54882812 C124.57645087 123.18692755 133.31527648 131.83371616 142.04077148 140.49414062 C142.84765438 141.29499237 142.84765438 141.29499237 143.67083793 142.11202294 C149.53940202 147.93713367 155.40601906 153.76420362 161.27200413 159.59191132 C162.82633209 161.13602662 164.38067314 162.68012874 165.93503033 164.22421461 C166.95935616 165.24179437 167.98365113 166.25940518 169.00791473 167.27704757 C175.53323964 173.75987016 182.06693318 180.23409851 188.60978115 186.69923496 C192.35269711 190.39791897 196.09116708 194.10108943 199.82944679 197.80445862 C201.57083434 199.527645 203.31398346 201.2490532 205.05896759 202.96859741 C207.43037719 205.3056898 209.79575978 207.64871795 212.15977478 209.99328613 C212.86082759 210.68100995 213.56188041 211.36873376 214.28417724 212.07729769 C214.91180515 212.702124 215.53943305 213.32695031 216.18607998 213.97071075 C216.73341933 214.51132786 217.28075868 215.05194497 217.84468406 215.60894442 C219 217 219 217 219 219 C214.7199807 218.09029934 211.45413283 215.96210804 207.8125 213.625 C207.10472412 213.17656738 206.39694824 212.72813477 205.66772461 212.26611328 C200.08725261 208.72133545 194.53567506 205.13094655 188.99145508 201.52978516 C182.51369476 197.3227674 176.00827302 193.15962053 169.5 189 C158.98867777 182.27964644 148.50469737 175.5187354 138.0390625 168.72753906 C127.79153296 162.07980869 117.51227701 155.48290818 107.22070312 148.90356445 C100.64391159 144.69734931 94.08036816 140.47178649 87.53125 136.22265625 C81.20423143 132.12226152 74.85236834 128.06097833 68.5 124 C60.82928273 119.09622003 53.16877175 114.1779531 45.53125 109.22265625 C39.20423097 105.12226123 32.8523265 101.06104446 26.5 97 C16.64554583 90.69888765 6.80884447 84.37185307 -3 78 C-3.87720703 77.43023437 -4.75441406 76.86046875 -5.65820312 76.2734375 C-11.44000038 72.51746693 -17.22054508 68.75957372 -23 65 C-22.40070041 60.78602172 -21.42502282 57.00900326 -19.97460938 53.01049805 C-19.55747681 51.85297531 -19.14034424 50.69545258 -18.71057129 49.50285339 C-18.25952026 48.26827896 -17.80846924 47.03370453 -17.34375 45.76171875 C-16.87637783 44.47245021 -16.40938331 43.18304471 -15.94274902 41.89350891 C-14.96749461 39.20183021 -13.98876446 36.51145072 -13.00732422 33.82202148 C-11.74750818 30.36935507 -10.49482783 26.91415307 -9.24449921 23.45804119 C-8.28250489 20.80047505 -7.31762215 18.14396542 -6.35176086 15.48780251 C-5.8885528 14.21336169 -5.42605732 12.93866164 -4.96427917 11.66370201 C-4.32080499 9.88895206 -3.67320291 8.11570038 -3.02539062 6.3425293 C-2.6575647 5.33248337 -2.28973877 4.32243744 -1.9107666 3.28178406 C-1 1 -1 1 0 0 Z " fill="#F38C35" transform="translate(142,151)"/>
<path d="M0 0 C8.82982215 4.88013826 17.2337175 10.35876282 25.66357422 15.89038086 C32.97337516 20.6855028 40.31784662 25.42242684 47.6875 30.125 C55.14519299 34.88619064 62.58850106 39.66719777 70 44.5 C78.61316177 50.11575339 87.26926431 55.66280607 95.93359375 61.19921875 C102.44981086 65.36414077 108.9547161 69.54536513 115.4387207 73.76025391 C119.77397317 76.57376366 124.12848367 79.3558666 128.4921875 82.125 C130.21552612 83.22060737 131.93870681 84.31646277 133.66186523 85.41235352 C135.34376883 86.48017175 137.02830663 87.54383725 138.71289062 88.60742188 C140.25879883 89.5906543 140.25879883 89.5906543 141.8359375 90.59375 C142.75938965 91.17833984 143.6828418 91.76292969 144.63427734 92.36523438 C146.68102561 93.77958178 148.32731421 95.17121537 150 97 C145.9449193 98.54115409 141.87993956 100.05429789 137.8125 101.5625 C136.08676758 102.21895508 136.08676758 102.21895508 134.32617188 102.88867188 C133.21435547 103.29794922 132.10253906 103.70722656 130.95703125 104.12890625 C129.93585205 104.51119385 128.91467285 104.89348145 127.86254883 105.28735352 C124.73006421 106.06720193 123.05190828 105.97456966 120 105 C117.00089 103.14441031 114.12771827 101.19804046 111.25976562 99.15039062 C107.35055606 96.48871024 104.7327775 95.33071833 100 96 C97.2087875 97.98322993 96.17402776 99.12986121 95.5 102.5 C96.15899017 105.79495087 97.47750055 106.8278477 100 109 C101.33333333 110.33333333 102.66666667 111.66666667 104 113 C95.91685692 116.81102788 87.56393858 119.78898877 79.15991211 122.80102539 C76.67478513 123.69205887 74.19177485 124.58880731 71.70898438 125.48632812 C70.12251654 126.05762698 68.53593211 126.62860217 66.94921875 127.19921875 C66.21064133 127.46586838 65.4720639 127.73251801 64.71110535 128.00724792 C57.5299034 130.57566502 57.5299034 130.57566502 55 131 C52.77308225 129.78220302 50.85703355 128.54173381 48.8125 127.0625 C47.47462396 126.13257931 46.13461598 125.20572147 44.79296875 124.28125 C44.04192871 123.76175781 43.29088867 123.24226563 42.51708984 122.70703125 C37.62156016 119.38699793 32.6153562 116.23736349 27.625 113.0625 C25.43987824 111.66832279 23.25497931 110.27379626 21.0703125 108.87890625 C20.02649414 108.21262207 18.98267578 107.54633789 17.90722656 106.85986328 C13.44776066 104.00697352 9.00470663 101.1291032 4.56689453 98.24267578 C0.78285537 95.78604621 -3.01467321 93.35222255 -6.82653809 90.93893433 C-9.14296181 89.47233563 -11.45728691 88.00243889 -13.77172852 86.53271484 C-14.91823088 85.80617019 -16.0658462 85.08137866 -17.21459961 84.35839844 C-18.82286969 83.34610535 -20.42714975 82.32748154 -22.03125 81.30859375 C-22.96517578 80.71876709 -23.89910156 80.12894043 -24.86132812 79.52124023 C-27 78 -27 78 -28 76 C-27.08972791 73.04213734 -26.10656779 70.17309735 -25.03515625 67.2734375 C-24.72299667 66.41062164 -24.4108371 65.54780579 -24.08921814 64.65884399 C-23.08740171 61.89492677 -22.07508656 59.13498742 -21.0625 56.375 C-20.38277028 54.50546025 -19.70372479 52.63567156 -19.02539062 50.765625 C-17.35819577 46.17415378 -15.68157331 41.58622377 -14 37 C-10.80440833 38.20851593 -7.93845609 39.52775269 -5.05859375 41.36328125 C-3.95233643 42.06469238 -3.95233643 42.06469238 -2.82373047 42.78027344 C-2.03627441 43.2859082 -1.24881836 43.79154297 -0.4375 44.3125 C0.39894043 44.84520508 1.23538086 45.37791016 2.09716797 45.92675781 C8.78645141 50.19661939 15.44061941 54.52056912 22.08740234 58.85620117 C29.99126076 64.00840797 37.93169526 69.10289008 45.89477539 74.16308594 C50.66944865 77.20161548 55.41858481 80.25945724 60.0859375 83.4609375 C60.85075439 83.97897949 61.61557129 84.49702148 62.40356445 85.03076172 C63.787704 85.97272166 65.1623108 86.92893751 66.52416992 87.90283203 C71.17550935 91.04617501 74.38425464 91.71919898 80 91 C82.32749345 87.50875983 82.50299316 86.10777749 82 82 C79.29076421 78.84657601 76.23837705 76.7044985 72.73828125 74.49609375 C71.71089844 73.84382813 70.68351562 73.1915625 69.625 72.51953125 C68.531875 71.83246094 67.43875 71.14539063 66.3125 70.4375 C65.17020478 69.71412267 64.02828078 68.99015883 62.88671875 68.265625 C60.62041157 66.82749146 58.35285934 65.39140346 56.08447266 63.95654297 C52.20621819 61.49648825 48.34989586 59.00410365 44.5 56.5 C36.44730827 51.27390209 28.35833763 46.10488637 20.26928711 40.93530273 C13.14454089 36.37968868 6.03459913 31.80217642 -1.05078125 27.18554688 C-4.4479701 24.96036861 -4.4479701 24.96036861 -8 23 C-6.05797655 14.97928527 -3.33160505 7.54549287 0 0 Z " fill="#F58C35" transform="translate(80,321)"/>
<path d="M0 0 C4.89115079 2.02803813 7.87574654 5.87223901 11 10 C11.41040527 10.5377002 11.82081055 11.07540039 12.24365234 11.62939453 C22.63753568 25.45933396 22.63753568 25.45933396 21.7890625 32.8046875 C20.24754524 37.09346324 17.17305261 39.84546715 14 43 C5.46577943 53.03921797 0.60189869 62.61409587 0.6875 76 C0.68878906 76.86302734 0.69007813 77.72605469 0.69140625 78.61523438 C0.78758488 85.33331173 1.53480661 91.8572972 2.5 98.5 C5.46902025 119.25011399 5.71515563 139.68365423 -6 158 C-13.96976889 168.493784 -23.6529068 176.36325376 -36 181 C-36.79277344 181.3196875 -37.58554687 181.639375 -38.40234375 181.96875 C-44.77596331 184.1436344 -51.13915558 184.33843628 -57.8125 184.4375 C-58.7204834 184.45981689 -59.6284668 184.48213379 -60.56396484 184.50512695 C-66.21588621 184.48581039 -69.54073449 183.80617623 -74 180 C-77.13673779 176.13135673 -77.4765916 172.81433688 -77 168 C-76.23530545 164.24097182 -75.22704281 160.56623712 -74.1875 156.875 C-73.92646484 155.89917969 -73.66542969 154.92335937 -73.39648438 153.91796875 C-70.84047616 144.66585012 -70.84047616 144.66585012 -68 141 C-63.98896725 138.7898391 -60.36304755 137.82269724 -55.875 137 C-52.00581056 136.26608698 -49.03212634 135.66459588 -46 133 C-40.86390876 124.85309666 -42.60101846 115.08302864 -44.08129883 106.01147461 C-48.81913872 76.88550026 -47.39596816 48.22068198 -30.6875 23.1875 C-12.19977019 -2.11149869 -12.19977019 -2.11149869 0 0 Z " fill="#000101" transform="translate(315,4)"/>
<path d="M0 0 C4.20903435 0.90160985 7.41500506 2.95082619 11 5.25 C11.7000415 5.69327637 12.40008301 6.13655273 13.12133789 6.59326172 C19.42405766 10.59786292 25.68097896 14.67402518 31.93481445 18.75439453 C38.82790899 23.24980591 45.75271178 27.694223 52.6875 32.125 C59.63677279 36.56537977 66.58195772 41.01109604 73.5 45.5 C80.48119099 50.02950956 87.48846477 54.5176257 94.5 59 C102.17294125 63.90520173 109.83581253 68.8246837 117.4753418 73.78173828 C123.73700038 77.84006777 130.02477542 81.85721209 136.3125 85.875 C144.68851394 91.2280161 153.04474324 96.6090848 161.36645508 102.04614258 C166.10851159 105.13895489 170.87256691 108.19467405 175.65625 111.22265625 C176.80342709 111.95045515 177.95056259 112.67831961 179.09765625 113.40625 C181.32077575 114.81686848 183.54776366 116.22063045 185.77734375 117.62109375 C186.78925781 118.26304687 187.80117188 118.905 188.84375 119.56640625 C189.74287109 120.13302979 190.64199219 120.69965332 191.56835938 121.28344727 C193.99371672 122.99556448 195.97050817 124.84026866 198 127 C197.03811768 127.33733154 196.07623535 127.67466309 195.08520508 128.0222168 C191.45202955 129.29695443 187.81976492 130.57427127 184.18774414 131.85229492 C182.62776289 132.4008298 181.06754857 132.94870239 179.50708008 133.49584961 C177.23975119 134.29098166 174.97328135 135.08851771 172.70703125 135.88671875 C171.96429962 136.1470993 171.22156799 136.40747986 170.45632935 136.67575073 C166.99462772 137.89872541 163.56036809 139.15616802 160.16162109 140.54541016 C159.01902832 141.01124512 157.87643555 141.47708008 156.69921875 141.95703125 C155.71139404 142.37573486 154.72356934 142.79443848 153.70581055 143.22583008 C149.71671672 144.36716514 147.31688239 143.71352261 143.71777344 141.76342773 C142.93950195 141.24208252 142.16123047 140.7207373 141.359375 140.18359375 C140.46621582 139.59223633 139.57305664 139.00087891 138.65283203 138.39160156 C137.69489746 137.74674805 136.73696289 137.10189453 135.75 136.4375 C133.680422 135.06529782 131.61008245 133.69424368 129.5390625 132.32421875 C128.4655957 131.61185059 127.39212891 130.89948242 126.28613281 130.16552734 C120.93422437 126.63867535 115.52990516 123.19486189 110.125 119.75 C103.23757613 115.35226552 96.35485397 110.9483537 89.5 106.5 C82.58199901 102.01103159 75.63671346 97.56547214 68.6875 93.125 C60.30236682 87.7661559 51.94094406 82.37342286 43.60498047 76.93847656 C36.86338771 72.54853938 30.09116663 68.20742561 23.3125 63.875 C8.17751707 54.19870552 8.17751707 54.19870552 1.375 49.8125 C0.71927002 49.39145996 0.06354004 48.97041992 -0.61206055 48.53662109 C-4.83259901 45.80987803 -8.92915948 42.94586531 -13 40 C-12.41679953 34.68471693 -11.15192128 30.09294702 -9.27734375 25.09765625 C-9.01240616 24.3750914 -8.74746857 23.65252655 -8.47450256 22.9080658 C-7.63527171 20.62377732 -6.78656724 18.34314811 -5.9375 16.0625 C-5.36330002 14.50479021 -4.78972605 12.94684951 -4.21679688 11.38867188 C-2.81842074 7.58974014 -1.4115432 3.79405798 0 0 Z " fill="#F58C35" transform="translate(99,267)"/>
<path d="M0 0 C1.31967773 0.4959668 1.31967773 0.4959668 2.66601562 1.00195312 C7.56369327 2.93945506 10.89642043 4.48318041 13.6875 9.1875 C14.97670691 13.82864488 14.92424689 17.01485379 12.75390625 21.375 C4.57311902 35.27934167 -8.09453558 43.87960249 -23.56030273 48.04394531 C-32.85660597 50.37873875 -41.74671083 51.36455984 -51.30078125 51.14453125 C-52.99412888 51.12214027 -54.6874891 51.10068517 -56.38085938 51.08007812 C-59.00060289 51.04313208 -61.61967836 51.00012078 -64.23901367 50.94067383 C-79.32753282 50.61559425 -91.35739889 52.01066662 -103.3125 62.1875 C-105.49660613 64.39609162 -107.41101195 66.73501258 -109.3125 69.1875 C-110.38817558 70.48555082 -111.47143808 71.77735496 -112.5625 73.0625 C-113.04203125 73.63742187 -113.5215625 74.21234375 -114.015625 74.8046875 C-116.19665393 77.13024245 -117.49606417 77.20654714 -120.73828125 77.54296875 C-126.54091632 77.46304987 -131.34121286 74.94254193 -136.5 72.5 C-137.47130859 72.06494141 -138.44261719 71.62988281 -139.44335938 71.18164062 C-145.19358555 68.52132351 -150.362762 66.08697599 -153.3125 60.1875 C-154.66052493 52.09935043 -151.44410461 47.07511793 -146.92578125 40.6796875 C-132.6108279 21.27839096 -112.04725652 8.40920238 -88.09912109 4.57128906 C-79.80894391 3.73104673 -71.44672904 4.0669888 -63.125 4.1875 C-59.40235354 4.24110458 -55.67992211 4.2808579 -51.95703125 4.3125 C-50.70512749 4.33739502 -50.70512749 4.33739502 -49.42793274 4.36279297 C-39.66435654 4.44327431 -32.91505337 2.6365865 -25.1875 -3.5 C-17.79509274 -8.67468508 -7.38168601 -2.93608635 0 0 Z " fill="#010100" transform="translate(485.3125,228.8125)"/>
<path d="M0 0 C7.08142549 3.29843108 13.43916072 7.43075329 19.9375 11.75 C22.25627865 13.28097753 24.57733184 14.80849094 26.8984375 16.3359375 C27.48728226 16.72395538 28.07612701 17.11197327 28.68281555 17.51174927 C34.77447215 21.52098718 40.91426424 25.45306978 47.0625 29.375 C53.88735966 33.73122634 60.70827707 38.09225937 67.5 42.5 C74.4811484 47.02957455 81.48846536 51.51762607 88.5 56 C96.17071727 60.90377997 103.83122825 65.8220469 111.46875 70.77734375 C117.79576857 74.87773848 124.14763166 78.93902167 130.5 83 C138.17071727 87.90377997 145.83122825 92.8220469 153.46875 97.77734375 C159.79576884 101.87773865 166.147656 105.93898318 172.5 110 C181.67489898 115.86608779 190.83323987 121.75638777 199.96875 127.68359375 C202.14430561 129.09352114 204.32193403 130.50020399 206.5 131.90625 C213.69972884 136.55518676 220.89690689 141.20389439 228 146 C225.92840382 150.14319237 219.38880781 151.18357621 215.25 152.75 C214.15171875 153.18699219 213.0534375 153.62398437 211.921875 154.07421875 C210.8596875 154.47769531 209.7975 154.88117188 208.703125 155.296875 C207.73020508 155.67166992 206.75728516 156.04646484 205.75488281 156.43261719 C201.63026346 157.28210455 199.38080085 155.80620443 195.86621094 153.75415039 C195.16270508 153.29000732 194.45919922 152.82586426 193.734375 152.34765625 C192.93620361 151.82453857 192.13803223 151.3014209 191.31567383 150.76245117 C190.46900146 150.20146729 189.6223291 149.6404834 188.75 149.0625 C186.93630769 147.87222855 185.12250398 146.68212683 183.30859375 145.4921875 C182.40737793 144.89889648 181.50616211 144.30560547 180.57763672 143.69433594 C176.99970799 141.3424866 173.40817026 139.01210348 169.8125 136.6875 C169.14444336 136.2551001 168.47638672 135.8227002 167.78808594 135.37719727 C160.28273422 130.52543673 152.7497174 125.71684576 145.2199707 120.90307617 C138.64340783 116.69704783 132.08012206 112.47162681 125.53125 108.22265625 C119.20423116 104.12226135 112.852344 100.06101682 106.5 96 C95.98876508 89.27950891 85.50469829 82.51873599 75.0390625 75.72753906 C64.79153296 69.07980869 54.51227701 62.48290818 44.22070312 55.90356445 C37.65524324 51.70459651 31.09957852 47.4914683 24.56640625 43.24243164 C20.78258113 40.78580346 16.98517418 38.35212593 13.17346191 35.93893433 C10.85703819 34.47233563 8.54271309 33.00243889 6.22827148 31.53271484 C5.08176912 30.80617019 3.9341538 30.08137866 2.78540039 29.35839844 C1.17713031 28.34610535 -0.42714975 27.32748154 -2.03125 26.30859375 C-2.96517578 25.71876709 -3.89910156 25.12894043 -4.86132812 24.52124023 C-7 23 -7 23 -8 21 C-7.48681641 19.06054688 -7.48681641 19.06054688 -6.6015625 16.71875 C-6.28703125 15.87699219 -5.9725 15.03523437 -5.6484375 14.16796875 C-5.31070313 13.28753906 -4.97296875 12.40710938 -4.625 11.5 C-4.13 10.17935547 -4.13 10.17935547 -3.625 8.83203125 C-1.20773486 2.41546972 -1.20773486 2.41546972 0 0 Z " fill="#F0F0F0" transform="translate(113,230)"/>
<path d="M0 0 C7.87067623 4.51835117 11.84010623 12.73342943 16.18139648 20.40917969 C17.19566276 22.20192795 18.22088796 23.98805033 19.24804688 25.7734375 C23.88487632 33.89135625 26.33944267 39.46966142 25.375 48.9375 C21.13499608 57.74366198 12.1345113 62.03080677 3.97875977 66.66845703 C2.17793441 67.69294184 0.38261597 68.72659178 -1.41210938 69.76171875 C-9.15875161 74.19967034 -14.57668425 76.92758926 -23.625 75.9375 C-30.93259439 73.40052384 -34.53492043 67.33861331 -38.2265625 60.9375 C-39.20882813 59.2359375 -39.20882813 59.2359375 -40.2109375 57.5 C-40.54577148 56.91476563 -40.88060547 56.32953125 -41.22558594 55.7265625 C-42.24891535 53.93939426 -43.28019768 52.15699716 -44.3125 50.375 C-52.77628505 35.65537383 -52.77628505 35.65537383 -51.625 27.9375 C-48.95309892 19.97956758 -43.74789187 16.4438428 -36.625 12.3359375 C-35.490625 11.68109375 -34.35625 11.02625 -33.1875 10.3515625 C-32.60226562 10.01672852 -32.01703125 9.68189453 -31.4140625 9.33691406 C-29.62689426 8.31358465 -27.84449716 7.28230232 -26.0625 6.25 C-10.06324479 -2.94957175 -10.06324479 -2.94957175 0 0 Z " fill="#010100" transform="translate(467.625,148.0625)"/>
<path d="M0 0 C3.00052503 1.99647598 5.96480919 4.03832485 8.92285156 6.09716797 C9.93347656 6.78359375 10.94410156 7.47001953 11.98535156 8.17724609 C26.26216315 18.07920793 26.26216315 18.07920793 27.74707031 25.54248047 C28.63410915 36.21602972 23.22357763 42.99038668 17.29785156 51.28466797 C16.56050781 52.34685547 15.82316406 53.40904297 15.06347656 54.50341797 C13.1933835 57.14184383 11.27007814 59.72205686 9.29785156 62.28466797 C8.77578125 62.98462891 8.25371094 63.68458984 7.71582031 64.40576172 C4.42313243 68.58460834 1.53376378 70.72308012 -3.70214844 72.28466797 C-13.92617888 73.3800998 -21.58328852 67.0014702 -29.70214844 61.59716797 C-30.75660156 60.91460937 -31.81105469 60.23205078 -32.89746094 59.52880859 C-41.09529942 54.08926539 -48.52821258 48.77534625 -50.70605469 38.75341797 C-50.69447126 31.43268947 -47.88545742 26.37731206 -43.70214844 20.65966797 C-42.97064575 19.63631348 -42.97064575 19.63631348 -42.22436523 18.59228516 C-41.21624386 17.18251206 -40.20410111 15.7756061 -39.18798828 14.37158203 C-37.7598943 12.36577405 -36.38992263 10.33205814 -35.03417969 8.27685547 C-25.24970851 -6.39703374 -15.46662188 -9.81825852 0 0 Z " fill="#010000" transform="translate(204.7021484375,32.71533203125)"/>
<path d="M0 0 C0.86320862 -0.0066568 1.72641724 -0.0133136 2.61578369 -0.02017212 C4.44142531 -0.03028688 6.26710382 -0.0349895 8.09277344 -0.03466797 C10.86716799 -0.03902566 13.63995089 -0.07531349 16.4140625 -0.11328125 C18.19270293 -0.119153 19.97135087 -0.12312 21.75 -0.125 C22.98166901 -0.14655655 22.98166901 -0.14655655 24.23822021 -0.16854858 C29.94161646 -0.1239737 34.54286941 0.80489399 39.140625 4.3359375 C44.12663712 9.68758955 44.87889969 15.01117746 44.76953125 22.09375 C44.77194321 23.00043427 44.77435516 23.90711853 44.77684021 24.84127808 C44.77586631 26.74562991 44.76258268 28.65001168 44.73754883 30.55419922 C44.70313266 33.46029054 44.71694052 36.36335384 44.73632812 39.26953125 C44.7294315 41.12761703 44.71976077 42.98569502 44.70703125 44.84375 C44.71447105 46.13770187 44.71447105 46.13770187 44.72206116 47.45779419 C44.60033846 53.71902379 42.99696786 57.39578996 38.54296875 61.98046875 C33.22030184 66.2244085 29.20455432 66.5141512 22.59765625 66.57421875 C21.75522873 66.5822905 20.91280121 66.59036224 20.04484558 66.59867859 C18.26030527 66.61250728 16.47573865 66.62323487 14.69116211 66.63110352 C12.87467649 66.64260334 11.05822414 66.66302346 9.24194336 66.69262695 C6.61028189 66.73551755 3.97962485 66.7515038 1.34765625 66.76171875 C0.5452803 66.77922684 -0.25709564 66.79673492 -1.08378601 66.81477356 C-7.96842999 66.7886335 -13.32070531 64.87460719 -18.234375 59.9609375 C-21.5850189 54.5483589 -22.16795066 49.41115334 -22.16015625 43.15625 C-22.16444138 42.38465546 -22.1687265 41.61306091 -22.17314148 40.81808472 C-22.17885997 39.19269792 -22.17940342 37.56728555 -22.17504883 35.94189453 C-22.17189316 33.47513451 -22.19536291 31.00958047 -22.22070312 28.54296875 C-22.22297705 26.95573066 -22.22367918 25.36848939 -22.22265625 23.78125 C-22.231866 23.05390656 -22.24107574 22.32656311 -22.25056458 21.57717896 C-22.2007832 15.97647242 -21.35535385 10.10620792 -17.47822571 5.80300903 C-11.65120968 0.7782596 -7.43250589 0.01994928 0 0 Z " fill="#020100" transform="translate(397.859375,3.6640625)"/>
<path d="M0 0 C1.25727402 -0.00786278 1.25727402 -0.00786278 2.53994751 -0.0158844 C4.30656837 -0.02228423 6.07323195 -0.02099409 7.83984375 -0.01245117 C10.52422068 -0.00395323 13.20645853 -0.03270968 15.890625 -0.06445312 C17.6145827 -0.06606584 19.33854413 -0.06548627 21.0625 -0.0625 C21.85546478 -0.07373398 22.64842957 -0.08496796 23.46542358 -0.09654236 C29.08487746 -0.02725592 33.62975107 0.97381735 38.1640625 4.43359375 C43.14027663 9.77437393 43.90252933 15.08715861 43.79296875 22.15625 C43.79538071 23.06056259 43.79779266 23.96487518 43.80027771 24.89659119 C43.79930373 26.79674695 43.78601809 28.6969327 43.76098633 30.59692383 C43.72661069 33.49203526 43.74036773 36.38409993 43.75976562 39.27929688 C43.75286774 41.13412747 43.74319587 42.98895025 43.73046875 44.84375 C43.73790855 46.12995995 43.73790855 46.12995995 43.74549866 47.44215393 C43.63270634 53.24348062 42.53012389 56.67323358 39.1640625 61.43359375 C33.33205759 65.95637307 28.80817345 66.60653265 21.62109375 66.671875 C20.77866623 66.67994675 19.93623871 66.68801849 19.06828308 66.69633484 C17.28374277 66.71016353 15.49917615 66.72089112 13.71459961 66.72875977 C11.89811399 66.74025959 10.08166164 66.76067971 8.26538086 66.7902832 C5.63371939 66.8331738 3.00306235 66.84916005 0.37109375 66.859375 C-0.4312822 66.87688309 -1.23365814 66.89439117 -2.06034851 66.91242981 C-8.9229375 66.88637349 -14.19658305 64.93403481 -19.2109375 60.18359375 C-23.66937547 52.63854488 -23.17776374 44.15212297 -23.15161133 35.65258789 C-23.14844944 33.50420426 -23.17197518 31.35719876 -23.19726562 29.20898438 C-23.23792406 20.4770951 -23.17144088 12.58043579 -17.5234375 5.55859375 C-11.73765821 0.98379152 -7.15288579 -0.02634622 0 0 Z " fill="#010000" transform="translate(454.8359375,284.56640625)"/>
<path d="M0 0 C8.82982215 4.88013826 17.2337175 10.35876282 25.66357422 15.89038086 C32.97337516 20.6855028 40.31784662 25.42242684 47.6875 30.125 C55.14519299 34.88619064 62.58850106 39.66719777 70 44.5 C78.61316177 50.11575339 87.26926431 55.66280607 95.93359375 61.19921875 C102.44981086 65.36414077 108.9547161 69.54536513 115.4387207 73.76025391 C119.77397317 76.57376366 124.12848367 79.3558666 128.4921875 82.125 C130.21552612 83.22060737 131.93870681 84.31646277 133.66186523 85.41235352 C135.34376883 86.48017175 137.02830663 87.54383725 138.71289062 88.60742188 C140.25879883 89.5906543 140.25879883 89.5906543 141.8359375 90.59375 C142.75938965 91.17833984 143.6828418 91.76292969 144.63427734 92.36523438 C146.68102561 93.77958178 148.32731421 95.17121537 150 97 C145.9449193 98.54115409 141.87993956 100.05429789 137.8125 101.5625 C136.08676758 102.21895508 136.08676758 102.21895508 134.32617188 102.88867188 C133.21435547 103.29794922 132.10253906 103.70722656 130.95703125 104.12890625 C129.93585205 104.51119385 128.91467285 104.89348145 127.86254883 105.28735352 C124.73006421 106.06720193 123.05190828 105.97456966 120 105 C117.00089 103.14441031 114.12771827 101.19804046 111.25976562 99.15039062 C107.32091894 96.46853108 104.75464977 95.33370214 100 96 C98.76830078 96.59554687 98.76830078 96.59554687 97.51171875 97.203125 C95 98 95 98 91.95703125 96.796875 C83.30629544 91.16583703 83.30629544 91.16583703 82.375 87.62109375 C82.354375 86.81800781 82.33375 86.01492188 82.3125 85.1875 C81.90614219 81.13007884 81.2058358 80.17332127 78.0078125 77.48046875 C74.34779635 75.04184488 70.54724361 72.83692118 66.74560547 70.62792969 C61.57411619 67.56164029 56.55122735 64.25913973 51.5 61 C49.34426112 59.62029481 47.18801861 58.24137619 45.03125 56.86328125 C40.012329 53.65107759 35.0014492 50.42683274 30 47.1875 C29.33258789 46.75526123 28.66517578 46.32302246 27.97753906 45.87768555 C24.52970368 43.64318077 21.08454637 41.40459416 17.640625 39.1640625 C9.16407466 33.65566545 0.64222839 28.24545688 -8 23 C-6.05797655 14.97928527 -3.33160505 7.54549287 0 0 Z " fill="#F0F0F0" transform="translate(80,321)"/>
<path d="M0 0 C1.74991334 -0.02715383 3.49994945 -0.04646551 5.25 -0.0625 C6.71179688 -0.07990234 6.71179688 -0.07990234 8.203125 -0.09765625 C10.65758678 -0.01195577 12.66168914 0.29293934 15 1 C15.39387617 7.09687492 14.05838617 11.84847703 12 17.5625 C11.6911084 18.43495361 11.3822168 19.30740723 11.06396484 20.20629883 C8.29807332 27.73137414 4.76833556 37.23166444 -1 43 C-1.25005386 45.95817107 -1.25005386 45.95817107 -1 49 C-0.34 49.66 0.32 50.32 1 51 C0.79573877 55.08522462 -1.88645986 57.38550633 -4.5625 60.25 C-5.38878906 61.14203125 -6.21507812 62.0340625 -7.06640625 62.953125 C-7.70449219 63.62859375 -8.34257812 64.3040625 -9 65 C-9.515625 64.835 -10.03125 64.67 -10.5625 64.5 C-15.40824849 63.50600031 -18.77627875 63.30181251 -23.15625 65.80078125 C-24.27809842 66.6282607 -25.39223369 67.4662613 -26.5 68.3125 C-40.51932456 78.26445667 -56.74835368 84.516672 -72.5 91.1875 C-88.05338052 97.78313983 -103.69514761 104.49403409 -115.7109375 116.76953125 C-118 119 -118 119 -120 119 C-120.26683594 119.59167969 -120.53367187 120.18335938 -120.80859375 120.79296875 C-122.02053689 123.03804375 -123.29081898 124.49055853 -125.0625 126.3125 C-136.98181273 139.72172682 -143.48797881 156.63500634 -147 174 C-151.95 173.67 -156.9 173.34 -162 173 C-160.51120289 148.43484772 -147.74425177 127.33970881 -131 110 C-130.26910156 109.2059375 -129.53820312 108.411875 -128.78515625 107.59375 C-110.59308521 88.35148491 -85.29395794 78.84499914 -61.38330078 68.91308594 C-47.97747724 63.32851941 -36.00222865 56.55610979 -25 47 C-24.08154297 46.22462891 -24.08154297 46.22462891 -23.14453125 45.43359375 C-11.13097471 34.4646943 -2.05630207 16.03915613 0 0 Z " fill="#F25431" transform="translate(470,53)"/>
<path d="M0 0 C0.74121094 -0.01933594 1.48242188 -0.03867188 2.24609375 -0.05859375 C5.64168989 0.66862498 7.11819994 1.95850168 9.5625 4.4375 C10.7075163 6.47514086 11.67137875 8.55806052 12.64404297 10.68310547 C17.52112139 21.17582208 23.20912647 25.69739286 33.5859375 30.4921875 C36.89274632 32.02299784 39.30582322 33.48467614 41.5625 36.4375 C42.88909769 40.08383136 42.90828368 43.40014897 41.6875 47.0625 C37.90655343 51.28826381 33.13507139 54.40023322 27.87890625 56.51953125 C19.69837579 59.98900445 16.76895508 65.29465695 12.99829102 72.98925781 C10.78128955 77.49594931 9.03086599 80.7830945 4.5625 83.4375 C2.28125 84.00390625 2.28125 84.00390625 0.0625 84 C-0.6696875 84.02191406 -1.401875 84.04382813 -2.15625 84.06640625 C-6.96300111 82.7412574 -9.45590092 78.60264877 -11.89453125 74.51953125 C-12.68834428 73.1011645 -13.47339769 71.67786281 -14.25 70.25 C-14.65669922 69.52619141 -15.06339844 68.80238281 -15.48242188 68.05664062 C-18.4375 62.71763393 -18.4375 62.71763393 -18.4375 60.4375 C-19.70013672 60.06238281 -19.70013672 60.06238281 -20.98828125 59.6796875 C-24.76396503 58.31992822 -28.1578323 56.5532537 -31.625 54.5625 C-32.24052734 54.22347656 -32.85605469 53.88445313 -33.49023438 53.53515625 C-36.89620618 51.59415823 -39.53908448 49.91792845 -41.4375 46.4375 C-41.87109375 44.25390625 -41.87109375 44.25390625 -41.875 42 C-41.89433594 41.25878906 -41.91367187 40.51757812 -41.93359375 39.75390625 C-41.07929612 35.76494172 -38.93527102 33.41905179 -35.54760742 31.19897461 C-33.33111073 29.94229677 -31.08755489 28.77207046 -28.8125 27.625 C-27.64847656 27.01495117 -27.64847656 27.01495117 -26.4609375 26.39257812 C-20.73950893 23.4375 -20.73950893 23.4375 -18.4375 23.4375 C-18.18742187 22.59574219 -17.93734375 21.75398438 -17.6796875 20.88671875 C-16.31992822 17.11103497 -14.5532537 13.7171677 -12.5625 10.25 C-12.05396484 9.32670898 -12.05396484 9.32670898 -11.53515625 8.38476562 C-8.59952787 3.23346336 -6.16703172 0.0106881 0 0 Z " fill="#010000" transform="translate(59.4375,-0.4375)"/>
<path d="M0 0 C0.74121094 -0.01933594 1.48242188 -0.03867187 2.24609375 -0.05859375 C5.63983577 0.6682279 7.12011913 1.96039333 9.5625 4.4375 C10.69050078 6.45866914 11.63665009 8.52500406 12.59350586 10.63232422 C17.93958256 22.20256566 25.22869705 27.08056956 36.63647461 32.25927734 C38.94651733 33.67241794 40.11773974 35.1626825 41.5625 37.4375 C41.99609375 39.62109375 41.99609375 39.62109375 42 41.875 C42.01933594 42.61621094 42.03867187 43.35742188 42.05859375 44.12109375 C41.3317721 47.51483577 40.03960667 48.99511913 37.5625 51.4375 C35.54133086 52.56550078 33.47499594 53.51165009 31.36767578 54.46850586 C19.79743434 59.81458256 14.91943044 67.10369705 9.74072266 78.51147461 C8.32758206 80.82151733 6.8373175 81.99273974 4.5625 83.4375 C2.37890625 83.87109375 2.37890625 83.87109375 0.125 83.875 C-0.61621094 83.89433594 -1.35742188 83.91367187 -2.12109375 83.93359375 C-6.11005828 83.07929612 -8.45594821 80.93527102 -10.67602539 77.54760742 C-11.93270323 75.33111073 -13.10292954 73.08755489 -14.25 70.8125 C-14.86004883 69.64847656 -14.86004883 69.64847656 -15.48242188 68.4609375 C-18.4375 62.73950893 -18.4375 62.73950893 -18.4375 60.4375 C-19.70013672 60.06238281 -19.70013672 60.06238281 -20.98828125 59.6796875 C-24.76396503 58.31992822 -28.1578323 56.5532537 -31.625 54.5625 C-32.24052734 54.22347656 -32.85605469 53.88445312 -33.49023438 53.53515625 C-36.89620618 51.59415823 -39.53908448 49.91792845 -41.4375 46.4375 C-41.87109375 44.25390625 -41.87109375 44.25390625 -41.875 42 C-41.89433594 41.25878906 -41.91367187 40.51757812 -41.93359375 39.75390625 C-41.2067721 36.36016423 -39.91460667 34.87988087 -37.4375 32.4375 C-35.41633086 31.30949922 -33.34999594 30.36334991 -31.24267578 29.40649414 C-19.67243434 24.06041744 -14.79443044 16.77130295 -9.61572266 5.36352539 C-7.25857982 1.51033438 -4.4460464 0.00770545 0 0 Z " fill="#010000" transform="translate(470.4375,428.5625)"/>
<path d="M0 0 C3.68646141 1.45855647 5.16143971 3.30229045 7.25 6.625 C8.03117187 7.85089844 8.03117187 7.85089844 8.828125 9.1015625 C9.21484375 9.72804688 9.6015625 10.35453125 10 11 C9.154375 11.928125 8.30875 12.85625 7.4375 13.8125 C-6.22004342 29.85367128 -11.41206242 47.2778851 -10 68 C-9.58306659 71.55501197 -9.0463941 75.08785049 -8.5 78.625 C-7.2715334 86.68909261 -6.67057597 94.59063458 -6.625 102.75 C-6.61146484 103.72533691 -6.59792969 104.70067383 -6.58398438 105.70556641 C-6.66201752 118.31875801 -11.06568876 128.81403633 -19.5 138.1875 C-28.51201653 146.7315849 -41.02553648 151.36088258 -53.3125 151.0703125 C-53.869375 151.04710937 -54.42625 151.02390625 -55 151 C-54.79432504 149.35460033 -54.57675659 147.70995121 -54.3046875 146.07421875 C-53.95805636 144.00199226 -53.95805636 144.00199226 -53.9453125 141.89453125 C-53.71304759 139.41858731 -53.43150986 138.05469081 -52 136 C-48.85605504 134.62537471 -45.72636175 133.82134055 -42.40234375 132.9765625 C-34.88756222 130.81962176 -29.82446113 126.77835661 -25.97265625 120.02734375 C-25.65167969 119.35832031 -25.33070313 118.68929687 -25 118 C-24.63390625 117.30003906 -24.2678125 116.60007812 -23.890625 115.87890625 C-22.56500369 111.59389349 -22.66266203 107.46113164 -22.6875 103 C-22.68878906 102.02812744 -22.69007813 101.05625488 -22.69140625 100.05493164 C-22.77749859 93.39945587 -23.42974854 87.00055011 -24.5 80.4375 C-28.37952614 56.24270351 -26.15531267 33.75412336 -12.06640625 13.17578125 C-10.43677553 11.05550902 -8.75156259 9.0196589 -7 7 C-6.2575 6.030625 -5.515 5.06125 -4.75 4.0625 C-3 2 -3 2 0 0 Z " fill="#28C9F1" transform="translate(310,22)"/>
<path d="M0 0 C2.76179527 0.75908993 5.33795988 1.70302342 7.984375 2.796875 C8.86738281 3.15910156 9.75039063 3.52132812 10.66015625 3.89453125 C11.32402344 4.17167969 11.98789062 4.44882813 12.671875 4.734375 C9.30794331 12.38271719 2.22120648 16.31677666 -5.12890625 19.59375 C-13.99241311 22.75387699 -21.90813521 24.15444665 -31.3203125 24.0703125 C-33.59505494 24.08282347 -35.86979455 24.09586052 -38.14453125 24.109375 C-41.67474576 24.11329692 -45.20467588 24.10936857 -48.73486328 24.09472656 C-67.1837692 23.73684591 -67.1837692 23.73684591 -84.328125 29.734375 C-85.33987793 30.29906494 -86.35163086 30.86375488 -87.39404297 31.44555664 C-95.04240895 35.90472397 -101.13276931 41.59076092 -106.328125 48.734375 C-111.39810519 48.08018401 -115.74803277 45.8797341 -120.328125 43.734375 C-115.73948042 30.20868445 -100.28981873 19.66507911 -88 13.58203125 C-72.36957962 6.7243137 -56.30885966 7.45819504 -39.63549805 7.87133789 C-21.35622605 8.56143462 -21.35622605 8.56143462 -4.890625 1.421875 C-2.328125 -0.265625 -2.328125 -0.265625 0 0 Z " fill="#F9D04D" transform="translate(469.328125,240.265625)"/>
<path d="M0 0 C5.11005311 1.69653763 9.30176991 4.67123804 13.75 7.625 C15.54237175 8.8029922 17.33537046 9.98003085 19.12890625 11.15625 C20.07910645 11.78015625 21.02930664 12.4040625 22.00830078 13.046875 C27.21090933 16.44338784 32.45048566 19.78188577 37.6875 23.125 C39.79955496 24.47644405 41.91153544 25.82800452 44.0234375 27.1796875 C47.75386913 29.56616292 51.48829093 31.94614157 55.2265625 34.3203125 C56.7553242 35.2966936 58.28397835 36.27324314 59.8125 37.25 C60.4933667 37.67941895 61.1742334 38.10883789 61.87573242 38.55126953 C65.31932486 40.75939494 68.16436885 43.06619017 71 46 C66.92308123 47.53843466 62.83758284 49.05265189 58.75 50.5625 C57.59113281 51.00013672 56.43226562 51.43777344 55.23828125 51.88867188 C54.12324219 52.29794922 53.00820312 52.70722656 51.859375 53.12890625 C50.31975098 53.70233765 50.31975098 53.70233765 48.74902344 54.28735352 C45.12225947 55.22754215 43.38518862 54.71512874 40.1315918 53.03540039 C39.49390869 52.64344482 38.85622559 52.25148926 38.19921875 51.84765625 C37.47726318 51.40615234 36.75530762 50.96464844 36.01147461 50.50976562 C35.24456299 50.03216797 34.47765137 49.55457031 33.6875 49.0625 C32.48589233 48.3209668 32.48589233 48.3209668 31.26000977 47.56445312 C25.02932879 43.69598393 18.91453172 39.67209484 12.8359375 35.5703125 C8.44825351 32.61505783 4.00701544 29.7438043 -0.4375 26.875 C-1.19039307 26.38902344 -1.94328613 25.90304687 -2.71899414 25.40234375 C-4.47878873 24.26739035 -6.23931072 23.13356494 -8 22 C-7.26651604 17.34237688 -5.67128952 13.13319326 -4 8.75 C-3.72671875 8.0178125 -3.4534375 7.285625 -3.171875 6.53125 C-1.13225446 1.13225446 -1.13225446 1.13225446 0 0 Z " fill="#EFEFEF" transform="translate(47,413)"/>
<path d="M0 0 C4.82380802 -0.0246519 9.64757967 -0.04283693 14.47143555 -0.05493164 C16.11369464 -0.05997174 17.75594923 -0.06680378 19.39819336 -0.07543945 C21.75375479 -0.08751926 24.10925709 -0.09323139 26.46484375 -0.09765625 C27.20339096 -0.10281754 27.94193817 -0.10797882 28.7028656 -0.11329651 C30.46898088 -0.1134925 32.23497146 -0.06194719 34 0 C35.70492881 1.70492881 35.1280442 3.84534261 35.13894653 6.11901855 C35.1369223 6.83255493 35.13489807 7.54609131 35.1328125 8.28125 C35.13376923 9.00993286 35.13472595 9.73861572 35.13571167 10.48937988 C35.13639335 12.0327971 35.13453988 13.57621717 35.13037109 15.11962891 C35.12502262 17.489974 35.13031642 19.86012959 35.13671875 22.23046875 C35.13605797 23.72656292 35.1347768 25.22265697 35.1328125 26.71875 C35.13483673 27.43228638 35.13686096 28.14582275 35.13894653 28.88098145 C35.11495191 33.88504809 35.11495191 33.88504809 34 35 C31.56339554 35.10082764 29.15575299 35.13972603 26.71875 35.1328125 C25.99006714 35.13376923 25.26138428 35.13472595 24.51062012 35.13571167 C22.9672029 35.13639335 21.42378283 35.13453988 19.88037109 35.13037109 C17.510026 35.12502262 15.13987041 35.13031642 12.76953125 35.13671875 C11.27343708 35.13605797 9.77734303 35.1347768 8.28125 35.1328125 C7.21094543 35.13584885 7.21094543 35.13584885 6.11901855 35.13894653 C1.11495191 35.11495191 1.11495191 35.11495191 0 34 C-0.08847743 31.47905924 -0.11527301 28.98569107 -0.09765625 26.46484375 C-0.0962413 25.71159317 -0.09482635 24.95834259 -0.09336853 24.18226624 C-0.08775376 21.7673044 -0.07519883 19.35243399 -0.0625 16.9375 C-0.0574869 15.30403779 -0.05292366 13.67057414 -0.04882812 12.03710938 C-0.03777954 8.02470415 -0.02050506 4.01236759 0 0 Z " fill="#F35431" transform="translate(448,301)"/>
<path d="M0 0 C3.37509098 1.50797469 4.34913642 3.52091097 6.19384766 6.69628906 C6.52445694 7.26248459 6.85506622 7.82868011 7.19569397 8.41203308 C7.88853584 9.60862713 8.57307011 10.81006502 9.24975586 12.01586914 C10.28979591 13.8612273 11.36331405 15.68379645 12.44189453 17.50683594 C13.11131514 18.67294897 13.77870439 19.84023098 14.44384766 21.00878906 C15.05091553 22.07073486 15.6579834 23.13268066 16.28344727 24.22680664 C17.35400391 27.05175781 17.35400391 27.05175781 16.89697266 29.19775391 C14.77353564 31.7492382 12.44846342 33.09526978 9.57666016 34.75878906 C9.0095079 35.08844162 8.44235565 35.41809418 7.85801697 35.75773621 C6.66153223 36.44944318 5.46194757 37.1358122 4.25952148 37.81713867 C2.41767471 38.86359261 0.58980046 39.93181896 -1.23779297 41.00292969 C-2.40303789 41.67289172 -3.56902947 42.34155716 -4.73583984 43.00878906 C-5.79665771 43.61698486 -6.85747559 44.22518066 -7.95043945 44.85180664 C-10.64599609 46.05175781 -10.64599609 46.05175781 -13.64599609 45.05175781 C-15.36352539 42.61499023 -15.36352539 42.61499023 -17.22021484 39.40722656 C-17.54891068 38.84103104 -17.87760651 38.27483551 -18.21626282 37.69148254 C-18.9089706 36.4927702 -19.5971119 35.29140909 -20.28100586 34.08764648 C-21.32771325 32.24941367 -22.39283422 30.42283083 -23.46044922 28.59667969 C-24.1315083 27.43001536 -24.80146717 26.26271736 -25.47021484 25.09472656 C-26.07953857 24.03278076 -26.6888623 22.97083496 -27.31665039 21.87670898 C-28.64599609 19.05175781 -28.64599609 19.05175781 -28.64599609 15.05175781 C-25.04563707 12.87843771 -21.43450194 10.72467704 -17.81225586 8.58813477 C-16.58224362 7.85900463 -15.35530323 7.12466589 -14.1315918 6.38500977 C-12.36952539 5.32118811 -10.59717233 4.27673741 -8.82177734 3.23535156 C-7.22716675 2.28486938 -7.22716675 2.28486938 -5.6003418 1.31518555 C-2.64599609 0.05175781 -2.64599609 0.05175781 0 0 Z " fill="#FBD24D" transform="translate(460.64599609375,162.9482421875)"/>
<path d="M0 0 C1.05617271 -0.0049926 1.05617271 -0.0049926 2.13368225 -0.01008606 C3.62581731 -0.0151578 5.11796375 -0.01749431 6.61010742 -0.01733398 C8.89716232 -0.01951884 11.18373378 -0.03766674 13.47070312 -0.05664062 C14.91796709 -0.05957479 16.36523336 -0.06155943 17.8125 -0.0625 C18.49900131 -0.06968552 19.18550262 -0.07687103 19.89280701 -0.08427429 C24.74383256 -0.06085494 24.74383256 -0.06085494 26.97265625 2.16796875 C27.15979611 4.59363994 27.22850903 6.90294542 27.203125 9.328125 C27.20266678 10.03319687 27.20220856 10.73826874 27.20173645 11.46470642 C27.19871488 12.95508507 27.19083135 14.44546059 27.1784668 15.93579102 C27.16020081 18.22488508 27.15795716 20.51357502 27.15820312 22.80273438 C27.15328831 24.24870144 27.14746015 25.69466574 27.140625 27.140625 C27.13951218 27.82915054 27.13839935 28.51767609 27.13725281 29.22706604 C27.08871124 34.05191376 27.08871124 34.05191376 25.97265625 35.16796875 C23.45171549 35.25644618 20.95834732 35.28324176 18.4375 35.265625 C17.30762413 35.26350258 17.30762413 35.26350258 16.15492249 35.26133728 C13.73996065 35.25572251 11.32509024 35.24316758 8.91015625 35.23046875 C7.27669404 35.22545565 5.64323039 35.22089241 4.00976562 35.21679688 C-0.0026396 35.20574829 -4.01497616 35.18847381 -8.02734375 35.16796875 C-8.05199565 30.34416073 -8.07018068 25.52038908 -8.08227539 20.6965332 C-8.08731549 19.05427411 -8.09414753 17.41201952 -8.1027832 15.76977539 C-8.11486301 13.41421396 -8.12057514 11.05871166 -8.125 8.703125 C-8.13016129 7.96457779 -8.13532257 7.22603058 -8.14064026 6.46510315 C-8.14083625 4.69898787 -8.08929094 2.93299729 -8.02734375 1.16796875 C-6.11444757 -0.74492743 -2.60510292 0.00421048 0 0 Z " fill="#FAD14D" transform="translate(400.02734375,18.83203125)"/>
<path d="M0 0 C6.33296824 0.47566223 11.13080475 4.82276003 16.1875 8.3125 C17.19748047 8.98990234 18.20746094 9.66730469 19.24804688 10.36523438 C20.21162109 11.02458984 21.17519531 11.68394531 22.16796875 12.36328125 C23.04735107 12.96438721 23.9267334 13.56549316 24.83276367 14.18481445 C27.02171768 16.01818981 27.96481675 17.37094593 29 20 C26.9387234 23.02166977 24.8757544 26.04218045 22.8125 29.0625 C22.23435547 29.91005859 21.65621094 30.75761719 21.06054688 31.63085938 C17.76003655 36.46041968 14.41950489 41.25390752 11 46 C5.77466786 45.54341758 2.3247986 42.76792062 -1.8125 39.8125 C-2.52083984 39.31580811 -3.22917969 38.81911621 -3.95898438 38.30737305 C-8.70902387 34.96279027 -13.39863916 31.54688231 -18 28 C-17.36139232 24.34276136 -15.78111318 21.90701194 -13.69140625 18.8671875 C-13.02689453 17.89652344 -12.36238281 16.92585938 -11.67773438 15.92578125 C-10.97970703 14.91902344 -10.28167969 13.91226563 -9.5625 12.875 C-8.86833984 11.86050781 -8.17417969 10.84601562 -7.45898438 9.80078125 C-2.30103945 2.30103945 -2.30103945 2.30103945 0 0 Z " fill="#F35431" transform="translate(188,43)"/>
<path d="M0 0 C4.2541562 1.62112372 7.82490084 3.74248937 11.5625 6.3125 C12.87678988 7.20302587 14.19194396 8.09227722 15.5078125 8.98046875 C16.2184082 9.4604834 16.92900391 9.94049805 17.66113281 10.43505859 C22.05725435 13.37651361 26.49921746 16.24772766 30.9375 19.125 C31.83218994 19.70548096 32.72687988 20.28596191 33.64868164 20.8840332 C35.76529384 22.25678676 37.8823787 23.62880381 40 25 C37.71392409 27.28607591 36.05575398 27.86811857 33.03125 28.97119141 C31.99677734 29.35143463 30.96230469 29.73167786 29.89648438 30.1234436 C28.21522461 30.73136246 28.21522461 30.73136246 26.5 31.3515625 C25.35337891 31.77045746 24.20675781 32.18935242 23.02539062 32.62094116 C20.59862736 33.50614583 18.17086269 34.38860921 15.7421875 35.26855469 C12.01314176 36.62023645 8.28761801 37.98128612 4.5625 39.34375 C2.20853629 40.20107829 -0.14562386 41.05786745 -2.5 41.9140625 C-3.62083984 42.3233902 -4.74167969 42.7327179 -5.89648438 43.15444946 C-7.44819336 43.71535782 -7.44819336 43.71535782 -9.03125 44.28759766 C-9.94455078 44.61909821 -10.85785156 44.95059875 -11.79882812 45.29214478 C-14 46 -14 46 -16 46 C-13.25906317 36.28303262 -9.76602923 26.85523985 -6.3125 17.375 C-5.6996171 15.6862896 -5.0869848 13.99748824 -4.47460938 12.30859375 C-2.98596094 8.2046743 -1.4939233 4.10200206 0 0 Z " fill="#F46D1A" transform="translate(33,449)"/>
<path d="M0 0 C1 3 1 3 0.8125 5.4375 C0.75584648 8.12308672 0.75584648 8.12308672 2.75 10.0625 C3.4925 10.701875 4.235 11.34125 5 12 C6.33333333 13.33333333 7.66666667 14.66666667 9 16 C0.91685692 19.81102788 -7.43606142 22.78898877 -15.84008789 25.80102539 C-18.32521487 26.69205887 -20.80822515 27.58880731 -23.29101562 28.48632812 C-24.87748346 29.05762698 -26.46406789 29.62860217 -28.05078125 30.19921875 C-28.78935867 30.46586838 -29.5279361 30.73251801 -30.28889465 31.00724792 C-39.38448322 34.26036145 -39.38448322 34.26036145 -41.75170898 33.2590332 C-42.32735596 32.86031006 -42.90300293 32.46158691 -43.49609375 32.05078125 C-44.13740234 31.61443359 -44.77871094 31.17808594 -45.43945312 30.72851562 C-46.09880859 30.26123047 -46.75816406 29.79394531 -47.4375 29.3125 C-48.09298828 28.86455078 -48.74847656 28.41660156 -49.42382812 27.95507812 C-53.06959507 25.4428997 -56.57905861 22.81453174 -60 20 C-59.05253906 19.66174194 -59.05253906 19.66174194 -58.0859375 19.31665039 C-44.94925952 14.62109249 -31.8421965 9.85934061 -18.79492188 4.92016602 C-4.99808116 -0.29400477 -4.99808116 -0.29400477 0 0 Z " fill="#F56E1B" transform="translate(175,418)"/>
<path d="M0 0 C7.61852128 4.30668986 14.92289083 8.84874133 22 14 C18.82334176 16.11777216 15.98467695 17.16979482 12.3828125 18.42578125 C11.72981171 18.65524948 11.07681091 18.88471771 10.40402222 19.12113953 C8.31237779 19.85555537 6.21884506 20.58438444 4.125 21.3125 C2.07471967 22.02801292 0.02489969 22.74479348 -2.02423096 23.46359253 C-3.37611817 23.93777102 -4.72861722 24.41020879 -6.08172607 24.88088989 C-9.32998122 26.01953247 -12.54578549 27.20095396 -15.73144531 28.50537109 C-16.87452148 28.97152832 -18.01759766 29.43768555 -19.1953125 29.91796875 C-20.19836426 30.34231201 -21.20141602 30.76665527 -22.23486328 31.20385742 C-26.22849643 32.35371065 -28.61965372 31.75552441 -32.2199707 29.78491211 C-32.94788818 29.28741455 -33.67580566 28.78991699 -34.42578125 28.27734375 C-35.22177734 27.73916016 -36.01777344 27.20097656 -36.83789062 26.64648438 C-38.06282227 25.80053711 -38.06282227 25.80053711 -39.3125 24.9375 C-40.14845703 24.36966797 -40.98441406 23.80183594 -41.84570312 23.21679688 C-43.90219899 21.81837969 -45.95327542 20.41266246 -48 19 C-45.52451118 17.34967412 -43.84352557 16.48537458 -41.10546875 15.5546875 C-40.32486084 15.28599854 -39.54425293 15.01730957 -38.73999023 14.74047852 C-37.89766846 14.45487061 -37.05534668 14.1692627 -36.1875 13.875 C-30.40208256 11.88875359 -24.62973525 9.87867863 -18.890625 7.76171875 C-17.89651611 7.3951416 -16.90240723 7.02856445 -15.87817383 6.65087891 C-13.94174811 5.93418436 -12.0066479 5.21389656 -10.07299805 4.48974609 C-9.19168213 4.16441895 -8.31036621 3.8390918 -7.40234375 3.50390625 C-6.62366943 3.21330322 -5.84499512 2.9227002 -5.04272461 2.62329102 C-3 2 -3 2 0 2 C0 1.34 0 0.68 0 0 Z " fill="#F56E1A" transform="translate(275,379)"/>
<path d="M0 0 C4.68139254 -0.02465288 9.36274759 -0.04283739 14.04418945 -0.05493164 C15.63794614 -0.05997157 17.23169819 -0.0668035 18.82543945 -0.07543945 C21.11150253 -0.08751999 23.39750467 -0.09323155 25.68359375 -0.09765625 C26.40026718 -0.10281754 27.11694061 -0.10797882 27.85533142 -0.11329651 C29.57063672 -0.11349263 31.28581266 -0.06192007 33 0 C34 1 34 1 34.11352539 4.14282227 C34.11336633 5.53402697 34.10767506 6.92523761 34.09765625 8.31640625 C34.0962413 9.04746078 34.09482635 9.77851532 34.09336853 10.53172302 C34.08775408 12.87535632 34.07519922 15.21889539 34.0625 17.5625 C34.05748686 19.14778508 34.05292363 20.73307166 34.04882812 22.31835938 C34.03777997 26.2122761 34.02050572 30.10612205 34 34 C30 34 30 34 28.34210205 32.82312012 C27.80027283 32.27240845 27.2584436 31.72169678 26.70019531 31.15429688 C26.07985413 30.53365356 25.45951294 29.91301025 24.82037354 29.27355957 C24.16293152 28.59547241 23.5054895 27.91738525 22.828125 27.21875 C22.1457074 26.53067261 21.46328979 25.84259521 20.76019287 25.13366699 C18.58057691 22.93164254 16.41526826 20.71612543 14.25 18.5 C12.77566042 17.00560138 11.30041082 15.51209998 9.82421875 14.01953125 C6.20550002 10.35668561 2.59955354 6.68167744 -1 3 C-0.67 2.01 -0.34 1.02 0 0 Z " fill="#28CDF5" transform="translate(231,214)"/>
<path d="M0 0 C2.8349246 2.61639916 4.49510422 4.7822653 6 8.3125 C9.22403901 14.49446687 14.95355802 17.00088763 21 20 C18.67767699 22.60130337 16.352559 23.89103814 13.25 25.4375 C6.87927831 29.10860502 4.15307123 34.54768868 1 41 C-1.37637012 38.13845431 -3.34592774 35.44692845 -5 32.125 C-8.39969175 26.4480544 -14.27386991 23.92242684 -20 21 C-17.67767699 18.39869663 -15.352559 17.10896186 -12.25 15.5625 C-5.87927831 11.89139498 -3.15307123 6.45231132 0 0 Z " fill="#F9BD25" transform="translate(59,21)"/>
<path d="M0 0 C2.60130337 2.32232301 3.89103814 4.647441 5.4375 7.75 C9.10860502 14.12072169 14.54768868 16.84692877 21 20 C18.67767699 22.60130337 16.352559 23.89103814 13.25 25.4375 C6.87927831 29.10860502 4.15307123 34.54768868 1 41 C-1.60130337 38.67767699 -2.89103814 36.352559 -4.4375 33.25 C-8.10860502 26.87927831 -13.54768868 24.15307123 -20 21 C-17.67767699 18.39869663 -15.352559 17.10896186 -12.25 15.5625 C-5.87927831 11.89139498 -3.15307123 6.45231132 0 0 Z " fill="#FABD25" transform="translate(470,450)"/>
<path d="M0 0 C1.86582188 1.37359539 3.70085136 2.79016448 5.5 4.25 C7.24006185 5.41086984 8.98921909 6.55830355 10.75 7.6875 C12.0024774 8.53802987 13.25352959 9.39069085 14.5 10.25 C10.18205605 13.1286293 5.47745859 14.64827299 0.625 16.4375 C-0.36886719 16.81841797 -1.36273438 17.19933594 -2.38671875 17.59179688 C-3.83111328 18.12450195 -3.83111328 18.12450195 -5.3046875 18.66796875 C-6.18108887 18.99563232 -7.05749023 19.3232959 -7.96044922 19.66088867 C-12.45813725 20.70423814 -14.97539131 19.57458245 -18.83984375 17.18359375 C-20.65423375 15.94154145 -22.45074706 14.67804191 -24.24023438 13.40039062 C-28.17198877 10.72336004 -30.7502488 9.6605159 -35.5 10.25 C-38.28566059 11.16257306 -38.28566059 11.16257306 -40.5 12.25 C-40.83 11.59 -41.16 10.93 -41.5 10.25 C-37.2057735 8.55239935 -32.90627369 6.87470211 -28.58984375 5.234375 C-25.32250555 3.98577396 -22.12554943 2.64989262 -18.94140625 1.203125 C-6.9767132 -4.00940227 -6.9767132 -4.00940227 0 0 Z " fill="#E1E1E1" transform="translate(215.5,406.75)"/>
<path d="M0 0 C7.61852128 4.30668986 14.92289083 8.84874133 22 14 C17.66670602 16.88886266 12.93459689 18.39908775 8.0625 20.1875 C7.06025391 20.56841797 6.05800781 20.94933594 5.02539062 21.34179688 C3.57616211 21.87450195 3.57616211 21.87450195 2.09765625 22.41796875 C0.77519897 22.90946411 0.77519897 22.90946411 -0.57397461 23.41088867 C-4.08410424 24.26325285 -5.94794915 23.54930741 -9.09057617 21.90844727 C-9.81736572 21.46557373 -10.54415527 21.0227002 -11.29296875 20.56640625 C-12.08767578 20.08236328 -12.88238281 19.59832031 -13.70117188 19.09960938 C-14.52166016 18.59236328 -15.34214844 18.08511719 -16.1875 17.5625 C-17.43563477 16.80743164 -17.43563477 16.80743164 -18.70898438 16.03710938 C-24.87278164 12.25443673 -24.87278164 12.25443673 -26 10 C-22.60583457 8.8491847 -19.20939392 7.7052339 -15.8125 6.5625 C-14.85279297 6.23701172 -13.89308594 5.91152344 -12.90429688 5.57617188 C-11.97294922 5.26357422 -11.04160156 4.95097656 -10.08203125 4.62890625 C-9.22843018 4.34088135 -8.3748291 4.05285645 -7.49536133 3.75610352 C-5.01189087 3.00360298 -2.5514032 2.46552619 0 2 C0 1.34 0 0.68 0 0 Z " fill="#E0E0E0" transform="translate(96,444)"/>
<path d="M0 0 C7.33170632 3.85099726 14.16198078 8.33718825 21 13 C18.92840382 17.14319237 12.38880781 18.18357621 8.25 19.75 C6.60257812 20.40548828 6.60257812 20.40548828 4.921875 21.07421875 C3.8596875 21.47769531 2.7975 21.88117188 1.703125 22.296875 C0.73020508 22.67166992 -0.24271484 23.04646484 -1.24511719 23.43261719 C-6.03389191 24.41889089 -9.30231316 21.96184021 -13.20703125 19.3984375 C-13.95791016 18.90859375 -14.70878906 18.41875 -15.48242188 17.9140625 C-16.25134766 17.40617187 -17.02027344 16.89828125 -17.8125 16.375 C-18.60076172 15.859375 -19.38902344 15.34375 -20.20117188 14.8125 C-22.1367352 13.54558583 -24.06953942 12.27467036 -26 11 C-23.24113694 9.16075796 -21.02578385 8.18537274 -17.9296875 7.08984375 C-16.95128906 6.73986328 -15.97289062 6.38988281 -14.96484375 6.02929688 C-13.43537109 5.48885742 -13.43537109 5.48885742 -11.875 4.9375 C-9.85066785 4.21996696 -7.82718055 3.50004437 -5.8046875 2.77734375 C-4.90733887 2.46015381 -4.00999023 2.14296387 -3.08544922 1.81616211 C-1.04443203 1.17802348 -1.04443203 1.17802348 0 0 Z " fill="#E0E0E0" transform="translate(320,363)"/>
<path d="M0 0 C2.94682027 2.5102543 4.42544636 4.85673808 6 8.3125 C9.22403901 14.49446687 14.95355802 17.00088763 21 20 C18.66531531 22.61606363 16.3011288 23.9312285 13.1875 25.5 C7.14554427 28.98540345 4.73481606 33.7521682 2 40 C1.67 40 1.34 40 1 40 C0.67 28.12 0.34 16.24 0 4 C-0.99 4.495 -0.99 4.495 -2 5 C-1.34 3.35 -0.68 1.7 0 0 Z " fill="#F99D00" transform="translate(59,21)"/>
<path d="M0 0 C2.60130337 2.32232301 3.89103814 4.647441 5.4375 7.75 C9.10860502 14.12072169 14.54768868 16.84692877 21 20 C18.67767699 22.60130337 16.352559 23.89103814 13.25 25.4375 C6.87927831 29.10860502 4.15307123 34.54768868 1 41 C0.34 40.34 -0.32 39.68 -1 39 C-0.34 39 0.32 39 1 39 C1 26.79 1 14.58 1 2 C0.34 1.67 -0.32 1.34 -1 1 C-0.67 0.67 -0.34 0.34 0 0 Z " fill="#F99D00" transform="translate(470,450)"/>
<path d="M0 0 C4.39081764 1.5214886 8.02875969 3.85939639 11.8125 6.5 C12.7087207 7.10521484 12.7087207 7.10521484 13.62304688 7.72265625 C15.12143611 8.76039782 16.56615614 9.87475797 18 11 C18 11.66 18 12.32 18 13 C14.56561785 14.34146494 11.12701583 15.67175905 7.6875 17 C6.71103516 17.3815625 5.73457031 17.763125 4.72851562 18.15625 C3.79072266 18.5171875 2.85292969 18.878125 1.88671875 19.25 C1.02264404 19.58515625 0.15856934 19.9203125 -0.73168945 20.265625 C-3 21 -3 21 -6 21 C-5.42381249 15.85404946 -4.25256722 11.44921945 -2.4375 6.5625 C-1.98246094 5.32628906 -1.52742188 4.09007812 -1.05859375 2.81640625 C-0.70925781 1.88699219 -0.35992187 0.95757812 0 0 Z " fill="#F08A34" transform="translate(33,449)"/>
<path d="M0 0 C5.62219846 4.66522851 11.16010796 9.51259405 16 15 C16 15.66 16 16.32 16 17 C11.32284613 16.03276069 7.8138587 13.63607488 3.8125 11.125 C3.07580078 10.67769531 2.33910156 10.23039062 1.58007812 9.76953125 C0.87947266 9.33253906 0.17886719 8.89554687 -0.54296875 8.4453125 C-1.18258545 8.04844238 -1.82220215 7.65157227 -2.48120117 7.24267578 C-4 6 -4 6 -5 3 C-3.35 2.67 -1.7 2.34 0 2 C0 1.34 0 0.68 0 0 Z " fill="#DF6519" transform="translate(345,353)"/>
</svg>
