<?xml version="1.0" encoding="UTF-8"?>
<svg version="1.1" xmlns="http://www.w3.org/2000/svg" width="512" height="512">
<path d="M0 0 C0 19.8 0 39.6 0 60 C1.65 60.66 3.3 61.32 5 62 C6.44600555 62.91892597 7.86320902 63.88455951 9.25 64.890625 C10.0234375 65.43460937 10.796875 65.97859375 11.59375 66.5390625 C13.20532931 67.68495818 14.8094934 68.8413507 16.40625 70.0078125 C17.1796875 70.54664062 17.953125 71.08546875 18.75 71.640625 C19.44609375 72.14110352 20.1421875 72.64158203 20.859375 73.15722656 C23.03059309 74.25810494 23.03059309 74.25810494 25.4934082 73.32373047 C27.89447822 72.05572602 30.11936448 70.71878822 32.35546875 69.1796875 C33.14244141 68.64472656 33.92941406 68.10976562 34.74023438 67.55859375 C35.54783203 67.00300781 36.35542969 66.44742188 37.1875 65.875 C38.80310994 64.76402983 40.42146756 63.65704139 42.04296875 62.5546875 C42.75477295 62.06468262 43.46657715 61.57467773 44.19995117 61.06982422 C46 60 46 60 48 60 C48 40.2 48 20.4 48 0 C66.33518252 7.85793536 76.74634994 19.18055634 84.95703125 37.19921875 C90.67403278 52.55161613 89.95545328 71.72877294 83.40625 86.625 C79.56103653 94.66934977 74.75241685 100.98290149 68.55859375 107.34765625 C57.71159313 118.59210422 56.98714916 129.43420666 56.4375 144.5 C56.37272461 146.16289062 56.37272461 146.16289062 56.30664062 147.859375 C56.20137786 150.57281506 56.09924154 153.28633417 56 156 C64.30280035 156.1014429 72.60341583 156.14815786 80.90672112 156.12697029 C84.76342253 156.11880697 88.61822341 156.12877123 92.47460938 156.18164062 C96.20376273 156.23207419 99.93007272 156.23296019 103.65939713 156.20095444 C105.07464908 156.19723244 106.4900646 156.21070991 107.90496445 156.24249649 C115.94537768 156.41074475 121.02741464 155.83578947 127.01220703 150.17529297 C129.46764385 147.68134335 129.46764385 147.68134335 131 145 C130.67 143.68 130.34 142.36 130 141 C117.13 140.505 117.13 140.505 104 140 C104 129.44 104 118.88 104 108 C112.58 107.67 121.16 107.34 130 107 C130.33 105.68 130.66 104.36 131 103 C129.45949668 100.76508762 129.45949668 100.76508762 127.16015625 98.671875 C126.34482422 97.87265625 125.52949219 97.0734375 124.68945312 96.25 C123.82255859 95.425 122.95566406 94.6 122.0625 93.75 C120.76795898 92.48929688 120.76795898 92.48929688 119.44726562 91.203125 C117.30889685 89.12382718 115.15975911 87.05703385 113 85 C117.67466337 79.37696243 122.67765667 74.20258446 127.875 69.0625 C128.65875 68.28326172 129.4425 67.50402344 130.25 66.70117188 C132.16438581 64.79845915 134.08108034 62.89813829 136 61 C139.55038651 63.93545244 142.99210371 66.90398489 146.16796875 70.24609375 C146.66876953 70.77267578 147.16957031 71.29925781 147.68554688 71.84179688 C148.70602483 72.92597176 149.71881527 74.01742353 150.72460938 75.11523438 C152.36927284 76.8851739 152.36927284 76.8851739 155 79 C156.32 78.67 157.64 78.34 159 78 C159.33 69.42 159.66 60.84 160 52 C170.56 52 181.12 52 192 52 C192.33 60.58 192.66 69.16 193 78 C194.32 78.33 195.64 78.66 197 79 C199.23491238 77.45949668 199.23491238 77.45949668 201.328125 75.16015625 C202.12734375 74.34482422 202.9265625 73.52949219 203.75 72.68945312 C204.575 71.82255859 205.4 70.95566406 206.25 70.0625 C207.51070313 68.76795898 207.51070313 68.76795898 208.796875 67.44726562 C210.87617282 65.30889685 212.94296615 63.15975911 215 61 C220.62303757 65.67466337 225.79741554 70.67765667 230.9375 75.875 C231.71673828 76.65875 232.49597656 77.4425 233.29882812 78.25 C235.20154085 80.16438581 237.10186171 82.08108034 239 84 C236.06454756 87.55038651 233.09601511 90.99210371 229.75390625 94.16796875 C229.22732422 94.66876953 228.70074219 95.16957031 228.15820312 95.68554688 C227.07402824 96.70602483 225.98257647 97.71881527 224.88476562 98.72460938 C223.1148261 100.36927284 223.1148261 100.36927284 221 103 C221.33 104.32 221.66 105.64 222 107 C234.87 107.495 234.87 107.495 248 108 C248 118.56 248 129.12 248 140 C239.42 140.33 230.84 140.66 222 141 C220.53990005 144.87763533 220.53990005 144.87763533 222.45703125 147.54296875 C226.46324907 152.04082855 229.43597947 155.14849618 235.54174805 155.6887207 C237.15604304 155.74905667 238.77136404 155.78601921 240.38671875 155.80078125 C241.21731812 155.82676392 242.04791748 155.85274658 242.90368652 155.8795166 C244.93528322 155.94015038 246.96767905 155.97292373 249 156 C253.04658993 164.04690493 257.0888941 172.09594364 261.12569427 180.14776421 C263.00013701 183.88619819 264.87606556 187.62387113 266.75537109 191.35986328 C268.56785582 194.96315313 270.37646164 198.56836494 272.18235779 202.17496109 C272.87313618 203.55281333 273.56532583 204.92995894 274.25892639 206.30639267 C275.22775957 208.22960921 276.19161195 210.15524326 277.15429688 212.08154297 C277.70500854 213.17852509 278.25572021 214.2755072 278.82312012 215.4057312 C280 218 280 218 280 220 C269.44 220 258.88 220 248 220 C248 253.99 248 287.98 248 323 C251.96 323 255.92 323 260 323 C267.75941379 325.95076299 273.71277727 330.94403397 277.1875 338.625 C278.98379884 346.08654901 278.29095721 352.32040796 275.65625 359.48046875 C270.30128315 367.62658577 261.30375724 371.96901286 253 376.5625 C251.11654101 377.61885491 249.23503131 378.6786307 247.35348511 379.73838806 C246.08061465 380.45488789 244.80711439 381.17027001 243.5329895 381.88453674 C237.60650694 385.20837576 231.73580655 388.62427814 225.875 392.0625 C214.37220072 398.79365444 202.83075364 405.45656469 191.28222656 412.10888672 C186.93449891 414.61390743 182.58821172 417.12141991 178.2421875 419.62939453 C176.08884498 420.87178236 173.93520131 422.1136484 171.78125 423.35498047 C166.77168982 426.24260376 161.76459543 429.13421845 156.76715088 432.04275513 C155.01729819 433.06088711 153.26659057 434.07753333 151.515625 435.09375 C149.33423929 436.36036106 147.15441975 437.6296753 144.9765625 438.90234375 C130.70309884 447.17948118 120.11465849 452.30239592 103.52832031 452.29052734 C102.16583897 452.2965191 100.80336101 452.30332613 99.44088745 452.31088257 C95.75471221 452.32848586 92.06862994 452.33323559 88.38241673 452.33451414 C86.07450213 452.33593974 83.76661087 452.34021709 81.45870209 452.34550858 C73.39302582 452.36399144 65.32741549 452.37218154 57.26171875 452.37060547 C49.76641982 452.36940516 42.27140935 452.39049015 34.77618337 452.4220928 C28.32240687 452.44832576 21.86872416 452.45896981 15.41489482 452.45769465 C11.56866088 452.45718699 7.72268339 452.46276042 3.87650299 452.48405075 C0.25495317 452.50355167 -3.36609871 452.50347787 -6.98766708 452.48901749 C-8.93332103 452.48596145 -10.87897567 452.5025233 -12.82455444 452.51989746 C-20.64364238 452.46444955 -26.86235102 451.19836241 -34 448 C-35.07854248 447.51692383 -36.15708496 447.03384766 -37.26831055 446.53613281 C-38.56442261 445.87629395 -38.56442261 445.87629395 -39.88671875 445.203125 C-40.84384766 444.71972656 -41.80097656 444.23632812 -42.78710938 443.73828125 C-43.74423828 443.24714844 -44.70136719 442.75601562 -45.6875 442.25 C-47.18700195 441.49009766 -47.18700195 441.49009766 -48.71679688 440.71484375 C-51.14735749 439.48211923 -53.57409357 438.24185854 -56 437 C-56 444.59 -56 452.18 -56 460 C-77.12 460 -98.24 460 -120 460 C-120 454.72 -120 449.44 -120 444 C-141.12 444 -162.24 444 -184 444 C-184 407.04 -184 370.08 -184 332 C-162.88 332 -141.76 332 -120 332 C-120 326.72 -120 321.44 -120 316 C-98.88 316 -77.76 316 -56 316 C-56 323.59 -56 331.18 -56 339 C-54.02515625 338.4946875 -52.0503125 337.989375 -50.015625 337.46875 C-48.09611518 336.9819178 -46.17659661 336.49511938 -44.25683594 336.00927734 C-42.92567238 335.67146625 -41.59493658 335.33196479 -40.26464844 334.99072266 C-38.3494491 334.49975601 -36.43255319 334.01542258 -34.515625 333.53125 C-32.78747559 333.09135742 -32.78747559 333.09135742 -31.02441406 332.64257812 C-28 332 -28 332 -24 332 C-24 295.04 -24 258.08 -24 220 C-34.56 220 -45.12 220 -56 220 C-54.55231913 215.65695738 -53.13678079 212.02889392 -51.11083984 207.99462891 C-50.5303891 206.83387848 -49.94993835 205.67312805 -49.35189819 204.47720337 C-48.72166425 203.22694625 -48.09134197 201.97673365 -47.4609375 200.7265625 C-46.81325863 199.43493912 -46.16593529 198.14313741 -45.51895142 196.85116577 C-43.82263181 193.46612969 -42.12151943 190.0835248 -40.41937256 186.70141602 C-38.68030711 183.24381526 -36.94581989 179.78391972 -35.2109375 176.32421875 C-31.81174892 169.54723291 -28.4070692 162.77302841 -25 156 C-19.39 156 -13.78 156 -8 156 C-8.1151099 152.22863601 -8.24183688 148.45823555 -8.375 144.6875 C-8.42140625 143.1087207 -8.42140625 143.1087207 -8.46875 141.49804688 C-9.020588 126.55243445 -10.83122227 116.76488441 -21.78540039 106.27734375 C-33.6386611 94.73908696 -40.12394855 79.09795021 -40.38061523 62.69091797 C-40.36180254 52.83797159 -40.13022681 44.13320989 -36 35 C-35.525625 33.92878906 -35.05125 32.85757813 -34.5625 31.75390625 C-29.1158307 20.6379874 -14.26467427 0 0 0 Z " fill="#8B5E3C" transform="translate(208,28)"/>
<path d="M0 0 C21.12 0 42.24 0 64 0 C64 7.59 64 15.18 64 23 C67.19042969 22.22076172 67.19042969 22.22076172 70.4453125 21.42578125 C77.14452507 19.79052324 83.84805936 18.17363167 90.55317688 16.56277466 C94.86281868 15.52469281 99.16269542 14.45556737 103.45703125 13.35546875 C122.77899147 8.49652466 137.95424433 9.44093219 157 15 C158.74324388 15.49825626 160.48673538 15.99564701 162.23046875 16.4921875 C164.86973544 17.24584395 167.50801028 18.00232711 170.14379883 18.76806641 C176.06593102 20.48171865 182.01109022 22.03814013 188 23.5 C195.77794918 25.39855453 203.46446771 27.53418201 211.15112305 29.77172852 C217.00890156 31.46448089 222.88795612 32.99753138 228.8125 34.4375 C236.54170914 36.33441498 244.21920312 38.38780147 251.875 40.5625 C252.89182861 40.84343506 253.90865723 41.12437012 254.95629883 41.41381836 C264.19155447 44.07913033 270.52859245 47.71840539 275.3125 56.375 C275.6528125 57.179375 275.6528125 57.179375 276 58 C282.18166287 56.37160894 287.31090634 53.05752905 292.75 49.8125 C294.91367549 48.53580222 297.07775166 47.25978329 299.2421875 45.984375 C300.35819336 45.32501953 301.47419922 44.66566406 302.62402344 43.98632812 C308.0212604 40.81074814 313.44750109 37.68598856 318.875 34.5625 C328.09137828 29.25705391 328.09137828 29.25705391 337.29348755 23.92692566 C339.05727036 22.90210917 340.82174894 21.87850074 342.58642578 20.85522461 C344.79188817 19.57582929 346.99608202 18.29424359 349.19873047 17.01000977 C369.24207911 5.39744075 369.24207911 5.39744075 380 7 C386.91732517 9.14951592 392.1352025 13.92674678 396 20 C399.57053856 27.89276946 398.56260579 35.58217779 395.65625 43.48046875 C390.30128315 51.62658577 381.30375724 55.96901286 373 60.5625 C371.11654101 61.61885491 369.23503131 62.6786307 367.35348511 63.73838806 C366.08061465 64.45488789 364.80711439 65.17027001 363.5329895 65.88453674 C357.60650694 69.20837576 351.73580655 72.62427814 345.875 76.0625 C334.37220072 82.79365444 322.83075364 89.45656469 311.28222656 96.10888672 C306.93449891 98.61390743 302.58821172 101.12141991 298.2421875 103.62939453 C296.08884498 104.87178236 293.93520131 106.1136484 291.78125 107.35498047 C286.77168982 110.24260376 281.76459543 113.13421845 276.76715088 116.04275513 C275.01729819 117.06088711 273.26659057 118.07753333 271.515625 119.09375 C269.33423929 120.36036106 267.15441975 121.6296753 264.9765625 122.90234375 C250.70309884 131.17948118 240.11465849 136.30239592 223.52832031 136.29052734 C222.16583897 136.2965191 220.80336101 136.30332613 219.44088745 136.31088257 C215.75471221 136.32848586 212.06862994 136.33323559 208.38241673 136.33451414 C206.07450213 136.33593974 203.76661087 136.34021709 201.45870209 136.34550858 C193.39302582 136.36399144 185.32741549 136.37218154 177.26171875 136.37060547 C169.76641982 136.36940516 162.27140935 136.39049015 154.77618337 136.4220928 C148.32240687 136.44832576 141.86872416 136.45896981 135.41489482 136.45769465 C131.56866088 136.45718699 127.72268339 136.46276042 123.87650299 136.48405075 C120.25495317 136.50355167 116.63390129 136.50347787 113.01233292 136.48901749 C111.06667897 136.48596145 109.12102433 136.5025233 107.17544556 136.51989746 C99.35635762 136.46444955 93.13764898 135.19836241 86 132 C84.92145752 131.51692383 83.84291504 131.03384766 82.73168945 130.53613281 C81.86761475 130.09624023 81.00354004 129.65634766 80.11328125 129.203125 C79.15615234 128.71972656 78.19902344 128.23632812 77.21289062 127.73828125 C76.25576172 127.24714844 75.29863281 126.75601563 74.3125 126.25 C73.31283203 125.74339844 72.31316406 125.23679687 71.28320312 124.71484375 C68.85264251 123.48211923 66.42590643 122.24185854 64 121 C64 128.59 64 136.18 64 144 C42.88 144 21.76 144 0 144 C0 138.72 0 133.44 0 128 C-21.12 128 -42.24 128 -64 128 C-64 91.04 -64 54.08 -64 16 C-42.88 16 -21.76 16 0 16 C0 10.72 0 5.44 0 0 Z " fill="#FEBBAA" transform="translate(88,344)"/>
<path d="M0 0 C0.66 0 1.32 0 2 0 C12.23 20.46 22.46 40.92 33 62 C67.32 62.33 101.64 62.66 137 63 C137 97.32 137 131.64 137 167 C132.38 169.31 127.76 171.62 123 174 C120.38376163 175.46979684 117.81069075 176.94426483 115.25 178.5 C113.80669256 179.36185541 112.36262956 180.22244631 110.91796875 181.08203125 C110.1398584 181.54561035 109.36174805 182.00918945 108.56005859 182.48681641 C103.58450953 185.42773316 98.57130065 188.30371268 93.5625 191.1875 C92.46993896 191.81696533 91.37737793 192.44643066 90.25170898 193.0949707 C87.99409762 194.39555295 85.7363647 195.69592422 83.47851562 196.99609375 C79.91680423 199.04746236 76.35667597 201.10156839 72.796875 203.15625 C72.20845322 203.49586258 71.62003143 203.83547516 71.01377869 204.18537903 C68.18890916 205.81580862 65.36409557 207.44633508 62.53930664 209.0769043 C60.55602731 210.22131538 58.57120264 211.36305472 56.58447266 212.50146484 C54.98376991 213.42958816 53.39262871 214.37469739 51.81787109 215.34619141 C50.25345312 216.30233816 48.63161303 217.16366326 47 218 C43.50245331 216.8341511 43.33175239 216.27454543 41.625 213.1875 C36.15016377 204.15402022 27.09254271 201.95725105 17.2734375 199.47265625 C15.3087634 198.99649022 13.34259305 198.52645688 11.375 198.0625 C4.45028019 196.41799618 -2.39688824 194.62026239 -9.21484375 192.58203125 C-17.01613164 190.25220745 -24.86301561 188.16949189 -32.75622559 186.17611694 C-36.55159223 185.21718631 -40.34413719 184.24722116 -44.13671875 183.27734375 C-45.2686113 182.98809776 -45.2686113 182.98809776 -46.42337036 182.69300842 C-53.3801512 180.91109233 -60.31738592 179.06136041 -67.25 177.1875 C-68.83929321 176.76223022 -68.83929321 176.76223022 -70.46069336 176.32836914 C-74.76053979 175.17342757 -79.04648291 174.00615215 -83.296875 172.6796875 C-100.29449285 167.55171418 -115.26743819 170.13014561 -132.15258789 174.54101562 C-134 175 -134 175 -135 175 C-135 138.04 -135 101.08 -135 63 C-83.52 62.505 -83.52 62.505 -31 62 C-20.77 41.54 -10.54 21.08 0 0 Z " fill="#A87B4F" transform="translate(319,185)"/>
<path d="M0 0 C0.33 0 0.66 0 1 0 C1 64.35 1 128.7 1 195 C-17.96417578 190.53784099 -17.96417578 190.53784099 -24.50390625 188.5234375 C-32.92295135 185.97931864 -41.41043525 183.77432643 -49.9375 181.625 C-67.19596405 177.27025099 -67.19596405 177.27025099 -75.4140625 174.86328125 C-96.25397272 168.77717044 -111.17800006 169.06187081 -132.15258789 174.54101562 C-134 175 -134 175 -135 175 C-135 138.04 -135 101.08 -135 63 C-83.52 62.505 -83.52 62.505 -31 62 C-20.77 41.54 -10.54 21.08 0 0 Z " fill="#C49A6C" transform="translate(319,185)"/>
<path d="M0 0 C21.12 0 42.24 0 64 0 C64 47.52 64 95.04 64 144 C42.88 144 21.76 144 0 144 C0 138.72 0 133.44 0 128 C-21.12 128 -42.24 128 -64 128 C-64 91.04 -64 54.08 -64 16 C-42.88 16 -21.76 16 0 16 C0 10.72 0 5.44 0 0 Z " fill="#006DF0" transform="translate(88,344)"/>
<path d="M0 0 C0 19.8 0 39.6 0 60 C1.65 60.66 3.3 61.32 5 62 C6.44600555 62.91892597 7.86320902 63.88455951 9.25 64.890625 C10.0234375 65.43460937 10.796875 65.97859375 11.59375 66.5390625 C13.20532931 67.68495818 14.8094934 68.8413507 16.40625 70.0078125 C17.1796875 70.54664062 17.953125 71.08546875 18.75 71.640625 C19.44609375 72.14110352 20.1421875 72.64158203 20.859375 73.15722656 C23.03059309 74.25810494 23.03059309 74.25810494 25.4934082 73.32373047 C27.89447822 72.05572602 30.11936448 70.71878822 32.35546875 69.1796875 C33.14244141 68.64472656 33.92941406 68.10976562 34.74023438 67.55859375 C35.54783203 67.00300781 36.35542969 66.44742188 37.1875 65.875 C38.80310994 64.76402983 40.42146756 63.65704139 42.04296875 62.5546875 C42.75477295 62.06468262 43.46657715 61.57467773 44.19995117 61.06982422 C46 60 46 60 48 60 C48 40.2 48 20.4 48 0 C66.33518252 7.85793536 76.74634994 19.18055634 84.95703125 37.19921875 C90.67403278 52.55161613 89.95545328 71.72877294 83.40625 86.625 C79.56103653 94.66934977 74.75241685 100.98290149 68.55859375 107.34765625 C54.65046324 121.76539764 56.86481181 135.24451646 56 156 C34.88 156 13.76 156 -8 156 C-8.495 144.12 -8.495 144.12 -9 132 C-11.32683016 119.20243415 -12.86062132 114.82193581 -21.78540039 106.27734375 C-33.6386611 94.73908696 -40.12394855 79.09795021 -40.38061523 62.69091797 C-40.36180254 52.83797159 -40.13022681 44.13320989 -36 35 C-35.2884375 33.39318359 -35.2884375 33.39318359 -34.5625 31.75390625 C-29.1158307 20.6379874 -14.26467427 0 0 0 Z " fill="#FF9810" transform="translate(208,28)"/>
<path d="M0 0 C10.56 0 21.12 0 32 0 C32.33 8.58 32.66 17.16 33 26 C34.98 26.495 34.98 26.495 37 27 C39.23491238 25.45949668 39.23491238 25.45949668 41.328125 23.16015625 C42.12734375 22.34482422 42.9265625 21.52949219 43.75 20.68945312 C44.9875 19.38911133 44.9875 19.38911133 46.25 18.0625 C47.09046875 17.19947266 47.9309375 16.33644531 48.796875 15.44726562 C50.87617282 13.30889685 52.94296615 11.15975911 55 9 C60.62303757 13.67466337 65.79741554 18.67765667 70.9375 23.875 C72.10635742 25.050625 72.10635742 25.050625 73.29882812 26.25 C75.20154085 28.16438581 77.10186171 30.08108034 79 32 C76.06454756 35.55038651 73.09601511 38.99210371 69.75390625 42.16796875 C68.9640332 42.91916992 68.9640332 42.91916992 68.15820312 43.68554688 C67.07402824 44.70602483 65.98257647 45.71881527 64.88476562 46.72460938 C63.1148261 48.36927284 63.1148261 48.36927284 61 51 C61.495 52.98 61.495 52.98 62 55 C74.87 55.495 74.87 55.495 88 56 C88 66.56 88 77.12 88 88 C79.42 88.33 70.84 88.66 62 89 C61.505 90.98 61.505 90.98 61 93 C63.09909942 95.6700635 63.09909942 95.6700635 65.9375 98.1875 C67.63441045 99.78170885 69.32445552 101.38334987 71 103 C71 103.33 71 103.66 71 104 C34.7 104 -1.6 104 -39 104 C-33 97 -33 97 -30.5625 94.8125 C-30.046875 94.214375 -29.53125 93.61625 -29 93 C-29.33 91.68 -29.66 90.36 -30 89 C-42.87 88.505 -42.87 88.505 -56 88 C-56 77.44 -56 66.88 -56 56 C-47.42 55.67 -38.84 55.34 -30 55 C-29.67 53.68 -29.34 52.36 -29 51 C-30.54050332 48.76508762 -30.54050332 48.76508762 -32.83984375 46.671875 C-33.65517578 45.87265625 -34.47050781 45.0734375 -35.31054688 44.25 C-36.17744141 43.425 -37.04433594 42.6 -37.9375 41.75 C-38.80052734 40.90953125 -39.66355469 40.0690625 -40.55273438 39.203125 C-42.69110315 37.12382718 -44.84024089 35.05703385 -47 33 C-42.32533663 27.37696243 -37.32234333 22.20258446 -32.125 17.0625 C-31.34125 16.28326172 -30.5575 15.50402344 -29.75 14.70117188 C-27.83561419 12.79845915 -25.91891966 10.89813829 -24 9 C-20.44961349 11.93545244 -17.00789629 14.90398489 -13.83203125 18.24609375 C-13.33123047 18.77267578 -12.83042969 19.29925781 -12.31445312 19.84179688 C-11.29397517 20.92597176 -10.28118473 22.01742353 -9.27539062 23.11523438 C-7.63072716 24.8851739 -7.63072716 24.8851739 -5 27 C-3.68 26.67 -2.36 26.34 -1 26 C-0.67 17.42 -0.34 8.84 0 0 Z " fill="#EC1C24" transform="translate(368,80)"/>
<path d="M0 0 C45.21 0 90.42 0 137 0 C126.62402897 21.90482773 126.62402897 21.90482773 122.34375 30.4453125 C121.87054321 31.3926828 121.39733643 32.3400531 120.90979004 33.31613159 C119.9330268 35.2703262 118.95529363 37.22403633 117.9765625 39.17724609 C116.47091733 42.18305955 114.96968316 45.19105006 113.46875 48.19921875 C112.51067389 50.11471201 111.55235044 52.03008158 110.59375 53.9453125 C110.14592163 54.84299347 109.69809326 55.74067444 109.23669434 56.66555786 C108.82536255 57.48506927 108.41403076 58.30458069 107.99023438 59.14892578 C107.62877319 59.87105255 107.26731201 60.59317932 106.89489746 61.33718872 C106 63 106 63 105 64 C103.2410657 64.09632045 101.47822841 64.1218751 99.71665955 64.12025452 C98.57095993 64.12162918 97.42526031 64.12300385 96.24484253 64.12442017 C94.34268478 64.11902725 94.34268478 64.11902725 92.40209961 64.11352539 C91.06206769 64.11324352 89.72203561 64.11340125 88.38200378 64.1139679 C84.73340562 64.11425587 81.08484005 64.1083592 77.43624949 64.10139394 C73.62722484 64.09516034 69.8181995 64.0945566 66.00917053 64.09336853 C58.79142246 64.09025523 51.57368946 64.08204186 44.35594803 64.07201904 C36.14084743 64.06085786 27.92574612 64.05534744 19.71063983 64.05032361 C2.80708449 64.03985925 -14.09645616 64.02225983 -31 64 C-23.50407518 41.51222554 -10.60083854 21.20167708 0 0 Z " fill="#A97C50" transform="translate(183,184)"/>
<path d="M0 0 C21.12 0 42.24 0 64 0 C64 36.96 64 73.92 64 112 C42.88 112 21.76 112 0 112 C0 75.04 0 38.08 0 0 Z " fill="#005ECE" transform="translate(24,360)"/>
<path d="M0 0 C0.33 0 0.66 0 1 0 C1 31.35 1 62.7 1 95 C-5.93 98.465 -5.93 98.465 -13 102 C-15.61623837 103.46979684 -18.18930925 104.94426483 -20.75 106.5 C-22.19330744 107.36185541 -23.63737044 108.22244631 -25.08203125 109.08203125 C-26.24919678 109.7773999 -26.24919678 109.7773999 -27.43994141 110.48681641 C-32.41549047 113.42773316 -37.42869935 116.30371268 -42.4375 119.1875 C-43.53006104 119.81696533 -44.62262207 120.44643066 -45.74829102 121.0949707 C-48.00590238 122.39555295 -50.2636353 123.69592422 -52.52148438 124.99609375 C-56.08319577 127.04746236 -59.64332403 129.10156839 -63.203125 131.15625 C-64.08575768 131.66566887 -64.08575768 131.66566887 -64.98622131 132.18537903 C-67.81109084 133.81580862 -70.63590443 135.44633508 -73.46069336 137.0769043 C-75.44397269 138.22131538 -77.42879736 139.36305472 -79.41552734 140.50146484 C-81.01623009 141.42958816 -82.60737129 142.37469739 -84.18212891 143.34619141 C-85.74654688 144.30233816 -87.36838697 145.16366326 -89 146 C-93.01116032 144.66294656 -93.55462785 142.67477331 -95.5234375 139.10546875 C-99.07270261 134.04447962 -103.58791456 132.17602875 -109.3125 130.25 C-110.28026367 129.91935547 -110.28026367 129.91935547 -111.26757812 129.58203125 C-112.84197484 129.04557015 -114.42058004 128.52148643 -116 128 C-116 127.34 -116 126.68 -116 126 C-115.16082031 125.79246094 -114.32164062 125.58492188 -113.45703125 125.37109375 C-73.65246236 115.17463934 -40.59443633 96.98521031 -18.9050293 60.90893555 C-10.77792009 46.9715606 -6.04924821 32.57513124 -2 17 C-1.81751709 16.31550781 -1.63503418 15.63101562 -1.44702148 14.92578125 C-0.78082542 12.05578967 -0.64301046 9.18586367 -0.4375 6.25 C-0.31181641 4.49429687 -0.31181641 4.49429687 -0.18359375 2.703125 C-0.12300781 1.81109375 -0.06242187 0.9190625 0 0 Z " fill="#8B5E3C" transform="translate(455,257)"/>
<path d="M0 0 C0.86496094 0.22107422 1.72992188 0.44214844 2.62109375 0.66992188 C8.79408072 2.26747642 14.90763491 4.03292665 21.01098633 5.8762207 C27.19137584 7.72494455 33.42945755 9.28058782 39.69946289 10.79370117 C45.07895722 12.10818286 50.36595441 13.61585916 55.65991211 15.23925781 C66.29982225 18.46538649 76.2538215 21.38018455 86.9375 16.6875 C91.50049516 14.08748165 93.77834941 11.23731662 96.4375 6.75 C97.0975 5.76 97.7575 4.77 98.4375 3.75 C100.62684511 11.61010786 100.02824146 18.31900123 96.0625 25.484375 C92.37786792 30.62160241 87.37243614 33.74483304 81.4375 35.75 C70.37815537 37.50598754 59.93643995 33.74816472 49.46582031 30.64404297 C44.34472058 29.13215429 39.20353429 27.69235909 34.0625 26.25 C33.02383789 25.95681885 31.98517578 25.6636377 30.91503906 25.36157227 C23.61982584 23.31663352 16.29456287 21.43349897 8.9375 19.625 C1.83309438 17.86769791 -5.26488285 16.09962764 -12.3125 14.125 C-12.99763672 13.94308105 -13.68277344 13.76116211 -14.38867188 13.57373047 C-18.42435324 12.40990936 -20.99679002 11.11590666 -23.5625 7.75 C-24.11462602 3.88511788 -24.07768621 1.6867022 -22.1875 -1.75 C-15.98214014 -5.29591992 -6.57874862 -1.72375865 0 0 Z " fill="#FE9479" transform="translate(265.5625,398.25)"/>
<path d="M0 0 C5.66786803 2.97088994 9.84980113 8.07083467 12.44140625 13.87109375 C14.49410779 20.80655282 13.69758142 27.64018642 10.421875 34.03125 C6.64025533 39.96100865 2.34459536 43.79946172 -4.5078125 45.6640625 C-11.09350901 46.86928801 -17.01244523 46.95489345 -22.9453125 43.56640625 C-28.4059855 39.4709015 -33.79216198 34.0157845 -34.8984375 27.1015625 C-35.58355116 19.94101969 -35.38139459 13.95563678 -30.8984375 8.1015625 C-21.88974004 -1.36093128 -12.629034 -4.77493512 0 0 Z " fill="#E6E4E5" transform="translate(394.8984375,129.8984375)"/>
<path d="M0 0 C5.28 0 10.56 0 16 0 C16 36.96 16 73.92 16 112 C10.72 112 5.44 112 0 112 C0 75.04 0 38.08 0 0 Z " fill="#004FAC" transform="translate(72,360)"/>
</svg>
