<?xml version="1.0" encoding="UTF-8"?>
<svg version="1.1" xmlns="http://www.w3.org/2000/svg" width="512" height="512">
<path d="M0 0 C1.7324979 -0.00417696 3.46499306 -0.00965646 5.19748318 -0.01631981 C9.9404382 -0.0307456 14.68321902 -0.02653865 19.42618346 -0.019153 C24.5483193 -0.01441653 29.67041772 -0.02693542 34.7925415 -0.03717041 C44.82032304 -0.05435437 54.8480419 -0.05519924 64.87583433 -0.04995751 C73.02767374 -0.04591381 81.17949464 -0.04736174 89.33133316 -0.05270576 C90.49216531 -0.05345419 91.65299745 -0.05420261 92.84900633 -0.05497371 C95.20734222 -0.05650521 97.56567811 -0.05804356 99.92401399 -0.05958868 C122.03319351 -0.07331228 144.14233764 -0.06787702 166.25151636 -0.05640347 C186.47010379 -0.04647136 206.68859971 -0.05941165 226.90717302 -0.08333766 C247.677185 -0.10773069 268.44715436 -0.11733601 289.21718037 -0.11068493 C300.87414214 -0.10719316 312.53103353 -0.10942207 324.18798447 -0.12693596 C334.1112997 -0.14166045 344.03449499 -0.14229007 353.95780788 -0.12486505 C359.01855504 -0.11635478 364.07908795 -0.1142063 369.13982391 -0.1295166 C373.77735285 -0.14337264 378.41448418 -0.13858867 383.05199017 -0.11927737 C384.72484005 -0.11551988 386.39772185 -0.11843205 388.07054327 -0.12888902 C404.43259905 -0.22385366 416.49260454 3.38970118 428.68338013 14.70018005 C439.9633509 26.61863974 441.38253309 39.8083509 441.32106018 55.45429993 C441.32523714 57.18679783 441.33071664 58.91929299 441.33737999 60.65178311 C441.35180578 65.39473813 441.34759883 70.13751895 441.34021318 74.88048339 C441.33547671 80.00261923 441.3479956 85.12471764 441.35823059 90.24684143 C441.37541455 100.27462296 441.37625942 110.30234182 441.37101769 120.33013426 C441.36697399 128.48197366 441.36842192 136.63379456 441.37376595 144.78563309 C441.37451437 145.94646523 441.37526279 147.10729738 441.37603389 148.30330626 C441.37756539 150.66164215 441.37910374 153.01997803 441.38064886 155.37831391 C441.39437246 177.48749344 441.3889372 199.59663757 441.37746365 221.70581628 C441.36753154 241.92440372 441.38047183 262.14289963 441.40439784 282.36147295 C441.42879087 303.13148493 441.43839619 323.90145428 441.43174511 344.6714803 C441.42825334 356.32844207 441.43048225 367.98533346 441.44799614 379.64228439 C441.46272063 389.56559963 441.46335025 399.48879492 441.44592523 409.41210781 C441.43741496 414.47285497 441.43526648 419.53338788 441.45057678 424.59412384 C441.46443282 429.23165278 441.45964886 433.8687841 441.44033755 438.50629009 C441.43658006 440.17913998 441.43949223 441.85202178 441.4499492 443.5248432 C441.54491384 459.88689898 437.931359 471.94690447 426.62088013 484.13768005 C414.70242044 495.41765082 401.51270929 496.83683301 385.86676025 496.77536011 C384.13426235 496.77953707 382.40176719 496.78501657 380.66927707 496.79167992 C375.92632205 496.8061057 371.18354123 496.80189876 366.44057679 496.79451311 C361.31844095 496.78977664 356.19634254 496.80229553 351.07421875 496.81253052 C341.04643722 496.82971448 331.01871836 496.83055935 320.99092592 496.82531761 C312.83908652 496.82127392 304.68726562 496.82272185 296.53542709 496.82806587 C294.79417887 496.82918851 294.79417887 496.82918851 293.01775392 496.83033382 C290.65941803 496.83186532 288.30108215 496.83340366 285.94274627 496.83494879 C263.83356674 496.84867239 241.72442261 496.84323712 219.6152439 496.83176357 C199.39665646 496.82183147 179.17816055 496.83477175 158.95958723 496.85869776 C138.18957525 496.8830908 117.4196059 496.89269612 96.64957988 496.88604504 C84.99261811 496.88255327 73.33572672 496.88478218 61.67877579 496.90229607 C51.75546055 496.91702056 41.83226526 496.91765017 31.90895237 496.90022516 C26.84820521 496.89171488 21.7876723 496.88956641 16.72693634 496.90487671 C12.0894074 496.91873274 7.45227608 496.91394878 2.81477009 496.89463747 C1.1419202 496.89087998 -0.5309616 496.89379216 -2.20378302 496.90424912 C-18.5658388 496.99921377 -30.62584429 493.38565893 -42.81661987 482.07518005 C-54.09659064 470.15672037 -55.51577283 456.96700921 -55.45429993 441.32106018 C-55.45847689 439.58856228 -55.46395639 437.85606712 -55.47061974 436.123577 C-55.48504552 431.38062198 -55.48083858 426.63784116 -55.47345293 421.89487672 C-55.46871646 416.77274088 -55.48123535 411.65064246 -55.49147034 406.52851868 C-55.5086543 396.50073714 -55.50949917 386.47301828 -55.50425743 376.44522585 C-55.50021374 368.29338644 -55.50166167 360.14156554 -55.50700569 351.98972702 C-55.50775411 350.82889487 -55.50850254 349.66806273 -55.50927364 348.47205385 C-55.51080514 346.11371796 -55.51234348 343.75538207 -55.5138886 341.39704619 C-55.52761221 319.28786667 -55.52217694 297.17872254 -55.51070339 275.06954382 C-55.50077129 254.85095639 -55.51371157 234.63246048 -55.53763758 214.41388716 C-55.56203062 193.64387518 -55.57163594 172.87390582 -55.56498486 152.10387981 C-55.56149308 140.44691804 -55.563722 128.79002665 -55.58123589 117.13307571 C-55.59596038 107.20976048 -55.59658999 97.28656519 -55.57916497 87.3632523 C-55.5706547 82.30250514 -55.56850623 77.24197223 -55.58381653 72.18123627 C-55.59767256 67.54370733 -55.5928886 62.906576 -55.57357729 58.26907001 C-55.5698198 56.59622013 -55.57273198 54.92333833 -55.58318894 53.25051691 C-55.67815359 36.88846113 -52.06459875 24.82845564 -40.75411987 12.63768005 C-28.83566019 1.35770928 -15.64594903 -0.0614729 0 0 Z " fill="#D2D8F1" transform="translate(63.066619873046875,7.6123199462890625)"/>
<path d="M0 0 C1.69980017 -0.00130963 3.39959975 -0.00393895 5.09939611 -0.0077675 C9.75152617 -0.01445341 14.40344777 -0.00250594 19.05555129 0.01256669 C24.07928043 0.02555018 29.1029983 0.02113595 34.1267395 0.01885986 C42.82448729 0.01728859 51.52216745 0.02668254 60.21989822 0.04357338 C72.79526893 0.0679786 85.37060701 0.07577021 97.94599883 0.07953735 C118.34987184 0.08609944 138.75370881 0.10605404 159.15756226 0.13444519 C178.97526876 0.16199202 198.79296547 0.18322256 218.61068726 0.19596863 C219.83272821 0.1967568 221.05476916 0.19754497 222.31384166 0.19835702 C228.44460446 0.2022722 234.57536734 0.20606331 240.70613027 0.20979273 C291.5482015 0.24088109 342.39023364 0.29371031 393.23226929 0.36076355 C392.27628488 1.48096819 391.31960499 2.60057932 390.36263275 3.71994019 C389.82995647 4.34348735 389.29728019 4.96703451 388.7484622 5.60947704 C386.97540809 7.65745241 385.13652648 9.62416443 383.24984741 11.5677948 C382.52889893 12.3112616 381.80795044 13.05472839 381.06515503 13.82072449 C377.81855637 17.1391254 374.56434385 20.44982435 371.30111694 23.75187683 C369.58137678 25.49842153 367.86884299 27.25208995 366.16342163 29.01261902 C363.69252432 31.56222847 361.199749 34.08846211 358.70101929 36.61076355 C357.56170959 37.79956116 357.56170959 37.79956116 356.39938354 39.01237488 C351.04300527 44.34870078 351.04300527 44.34870078 346.86849976 44.41081238 C345.9985437 44.06429626 345.12858765 43.71778015 344.23226929 43.36076355 C343.35828491 43.01400574 342.48430054 42.66724792 341.58383179 42.3099823 C340.23418335 41.68543152 340.23418335 41.68543152 338.85726929 41.04826355 C328.62119254 36.65591718 317.39367785 33.71840548 306.23226929 33.36076355 C305.54181519 33.3349823 304.85136108 33.30920105 304.13998413 33.28263855 C275.44688765 32.334694 248.5571635 39.79920865 226.23226929 58.36076355 C224.94062866 59.42424011 224.94062866 59.42424011 223.62289429 60.50920105 C202.66545618 78.53780464 188.71526914 104.72943182 186.23226929 132.36076355 C184.95612307 152.03251409 189.91525282 169.74959437 198.09555054 187.47013855 C199.23226929 190.36076355 199.23226929 190.36076355 199.23226929 194.36076355 C197.72836304 196.22013855 197.72836304 196.22013855 195.66976929 198.11076355 C193.00395213 200.58430929 190.55340345 203.12108801 188.19707298 205.88533783 C183.80177484 210.92853987 179.09632874 215.63535812 174.36181641 220.35820007 C173.37457433 221.3465964 172.38755002 222.33521028 171.40072286 223.32402086 C168.70713128 226.02176343 166.01045859 228.71640705 163.31323743 231.41052008 C160.39808593 234.32340059 157.48582381 237.23916751 154.57318115 240.15455627 C148.87622505 245.85594974 143.1765802 251.55464785 137.47595365 257.25237113 C132.84566778 261.88039653 128.21636142 266.5093996 123.58774948 271.13909912 C122.92845066 271.79855118 122.26915184 272.45800323 121.58987426 273.13743868 C120.25052249 274.47711018 118.91117297 275.81678391 117.57182567 277.15645987 C105.02709974 289.70403422 92.47931569 302.2485468 79.93047719 314.79200798 C69.1538459 325.56416452 58.37984937 336.33895044 47.60775757 347.11564636 C35.09761513 359.63113328 22.58586135 372.14500565 10.07150877 384.6562829 C8.73896858 385.98850453 7.40643048 387.32072826 6.0738945 388.6529541 C5.41824188 389.30845244 4.76258927 389.96395079 4.08706839 390.63931271 C-0.54265442 395.26817053 -5.17121263 399.89819092 -9.79932785 404.52865601 C-15.43068552 410.16281013 -21.06380481 415.79519567 -26.69923203 421.42527944 C-29.57654547 424.2999549 -32.45303528 427.17544234 -35.32738495 430.05308151 C-37.953853 432.6825101 -40.58258317 435.30965401 -43.21320637 437.93492538 C-44.62450556 439.34456287 -46.03332617 440.7566805 -47.44208276 442.168859 C-48.26880507 442.99297356 -49.09552737 443.81708812 -49.94730186 444.66617584 C-50.66611514 445.38482677 -51.38492842 446.1034777 -52.12552392 446.84390593 C-53.76773071 448.36076355 -53.76773071 448.36076355 -54.76773071 448.36076355 C-54.8592998 396.33346679 -54.92977635 344.30617818 -54.97199203 292.27881669 C-54.97699482 286.13555926 -54.98217211 279.99230199 -54.98745728 273.8490448 C-54.98850652 272.62604047 -54.98955576 271.40303614 -54.9906368 270.14297107 C-55.00803878 250.34408263 -55.03957536 230.54524069 -55.0763419 210.74637982 C-55.11375702 190.42870182 -55.13596778 170.11104815 -55.14408469 149.79333711 C-55.14957126 137.25771092 -55.16689599 124.72221614 -55.19939658 112.1866304 C-55.22055148 103.58879425 -55.22692852 94.99102596 -55.22173622 86.39316568 C-55.21917599 81.43373637 -55.22308195 76.47453659 -55.24455261 71.51514816 C-55.26408679 66.96975993 -55.26495631 62.42475455 -55.25132629 57.87934831 C-55.24964291 56.23983778 -55.25465877 54.60030289 -55.26726344 52.96083996 C-55.38489809 36.70793998 -51.67974078 24.70887935 -40.45523071 12.61076355 C-28.62372629 1.41308973 -15.54165706 -0.08927342 0 0 Z " fill="#28BE77" transform="translate(62.767730712890625,7.6392364501953125)"/>
<path d="M0 0 C1.04027344 0.53496094 2.08054687 1.06992187 3.15234375 1.62109375 C11.3256254 6.09975137 18.11352874 11.79195304 25 18 C25.65613281 18.57234375 26.31226563 19.1446875 26.98828125 19.734375 C47.04656332 38.30863143 58.37348111 67.40184147 59.45581055 94.28100586 C59.77005336 112.28312566 53.87807122 128.06271319 46 144 C45.62214355 144.76812012 45.24428711 145.53624023 44.85498047 146.32763672 C35.36833692 165.40769303 23.73919061 182.95355211 11 200 C10.55946289 200.58974609 10.11892578 201.17949219 9.66503906 201.78710938 C3.17493912 210.4304431 -3.65218757 218.80060358 -10.49853516 227.16210938 C-11.84196561 228.80655563 -13.17738431 230.45753952 -14.51171875 232.109375 C-18.82722119 237.44161886 -23.2757824 242.60780839 -27.89453125 247.6796875 C-29.72917685 249.70154184 -31.52768786 251.74678522 -33.3125 253.8125 C-36.55914131 257.54040814 -39.89793525 261.17963402 -43.25 264.8125 C-43.76989502 265.37622314 -44.28979004 265.93994629 -44.82543945 266.52075195 C-47.17405507 269.05863051 -49.52505042 271.5843814 -52 274 C-59.50663079 270.7804518 -64.97678937 263.1702064 -70.1953125 257.0859375 C-72.21651276 254.74974499 -74.29378839 252.47035149 -76.375 250.1875 C-80.27363397 245.86739209 -83.97503858 241.41928619 -87.6328125 236.89453125 C-89.6837364 234.38671837 -91.77381329 231.9194224 -93.88647461 229.46362305 C-100.32547777 221.96163673 -106.35680685 214.18077677 -112.29101562 206.27539062 C-113.44003933 204.74554763 -114.59244399 203.21823872 -115.74804688 201.69335938 C-128.66291689 184.64002273 -139.93298699 166.87117119 -150 148 C-150.33902344 147.37254883 -150.67804688 146.74509766 -151.02734375 146.09863281 C-155.75187536 137.30891688 -159.13809469 128.52896561 -162 119 C-162.35449219 117.86433594 -162.70898438 116.72867188 -163.07421875 115.55859375 C-169.36351801 91.38327043 -162.93896276 65.14526737 -151.25 43.6875 C-134.80193473 16.45433971 -109.98500156 -2.76087473 -79.01367188 -10.49609375 C-52.18778886 -16.74427824 -24.31562076 -12.64521349 0 0 Z " fill="#D63D3F" transform="translate(413,53)"/>
<path d="M0 0 C0.25990723 0.49588623 0.51981445 0.99177246 0.78759766 1.50268555 C11.1853879 21.20079663 23.39518184 39.38350469 37 57 C35.4926273 60.52759448 33.44961408 62.80173294 30.7487793 65.50518799 C29.85701996 66.40258698 28.96526062 67.29998596 28.04647827 68.22457886 C27.05582539 69.21134337 26.06506872 70.19800371 25.07421875 71.18457031 C24.03243172 72.22906789 22.99107054 73.27399036 21.95010376 74.31930542 C19.12427225 77.15425327 16.29215257 79.98284003 13.45859146 82.81005955 C10.49633751 85.76725232 7.53896363 88.72931891 4.58081055 91.69061279 C-0.3855666 96.66062809 -5.35614538 101.62641201 -10.32910156 106.58984375 C-16.08484536 112.33469133 -21.83333246 118.08672476 -27.57812595 123.84252095 C-32.50696621 128.78042409 -37.43967695 133.71443537 -42.37567043 138.64518809 C-45.32549439 141.59188839 -48.27393698 144.5399367 -51.21890259 147.49149323 C-53.9853807 150.26373007 -56.75666979 153.03106412 -59.53181839 155.79462051 C-60.55186332 156.81201146 -61.57019261 157.83112573 -62.58671188 158.85203934 C-63.96945928 160.2402141 -65.35892769 161.62168465 -66.7487793 163.00274658 C-67.91463814 164.16747435 -67.91463814 164.16747435 -69.10404968 165.35573196 C-71 167 -71 167 -73 167 C-73.22320954 167.54672237 -73.44641909 168.09344475 -73.67639256 168.65673447 C-75.40530115 171.71753012 -77.71619607 174.02247098 -80.17771912 176.49224854 C-80.71069565 177.03469515 -81.24367219 177.57714176 -81.79279953 178.13602614 C-83.58029677 179.95257707 -85.37490234 181.76193077 -87.16967773 183.57128906 C-88.45295295 184.87200812 -89.73586753 186.17308306 -91.01844788 187.4744873 C-95.23236303 191.74594809 -99.45725424 196.00646194 -103.68359375 200.265625 C-104.76221298 201.35316338 -104.76221298 201.35316338 -105.8626225 202.46267223 C-112.6449069 209.30087054 -119.43081312 216.13545101 -126.22631741 222.96051407 C-134.91546525 231.68782066 -143.58556933 240.43311621 -152.2303471 249.20438218 C-158.31231199 255.37228726 -164.41521155 261.51897414 -170.53401715 267.65033126 C-174.18734238 271.31226487 -177.83085003 274.98285594 -181.45223808 278.67639923 C-184.86017795 282.15130478 -188.29333128 285.59915689 -191.74741173 289.02818298 C-193.00866238 290.28926685 -194.26057666 291.5597706 -195.5021019 292.84027863 C-204.87262454 302.48887476 -204.87262454 302.48887476 -210.15237617 303.75739288 C-212.91665836 303.79020083 -215.30341689 303.57778432 -218 303 C-219.10472656 302.79246094 -220.20945313 302.58492188 -221.34765625 302.37109375 C-235.51713153 297.49842527 -246.33731876 288.46669208 -253 275 C-254.36698942 271.69558572 -255.44044469 268.53403354 -256 265 C-256.18190772 263.96242308 -256.18190772 263.96242308 -256.36749035 262.90388501 C-256.76698124 258.79833718 -256.65175569 256.02798819 -254.40577972 252.4855001 C-251.977256 249.71715522 -249.42945785 247.15015303 -246.78392029 244.58810425 C-245.7803164 243.58085312 -244.77891536 242.57140314 -243.77953297 241.55996335 C-241.0331446 238.79318853 -238.25662684 236.05851328 -235.47412384 233.32812667 C-232.47628243 230.37557666 -229.50744959 227.39410672 -226.5349884 224.41604614 C-221.3815235 219.26074886 -216.21013309 214.12401912 -211.02615166 208.99941635 C-203.52292468 201.58198647 -196.0480331 194.13652386 -188.57979549 186.68388547 C-176.45129249 174.58214617 -164.3010001 162.50253347 -152.13647461 150.43701172 C-140.33934806 138.73579113 -128.55123423 127.02562306 -116.77612305 115.30224609 C-116.05125395 114.58056963 -115.32638485 113.85889317 -114.57955002 113.11534773 C-109.5024658 108.06041052 -104.42596522 103.00488741 -99.34960938 97.94921875 C-93.71333471 92.33599612 -88.07690148 86.72293278 -82.44020081 81.11013794 C-81.75603576 80.42884343 -81.07187072 79.74754893 -80.36697341 79.04560913 C-70.90224184 69.62099304 -61.42969079 60.20430362 -51.95089112 50.79383752 C-48.15609384 47.02590796 -44.3625873 43.25667882 -40.56908058 39.48744999 C-37.05419038 35.99541535 -33.53706483 32.50565341 -30.01814279 29.01768195 C-27.8767407 26.89404973 -25.73749605 24.76825434 -23.59883548 22.64186157 C-22.16428733 21.21685598 -20.72710413 19.79450456 -19.28980917 18.37226951 C-14.84124154 13.94520583 -10.53485699 9.46860855 -6.46896607 4.68585408 C-2.38595513 0 -2.38595513 0 0 0 Z " fill="#FEDE64" transform="translate(264,201)"/>
<path d="M0 0 C3.92327769 1.5917914 6.56573071 4.28850427 9.49224854 7.24501038 C10.03469515 7.78504257 10.57714176 8.32507477 11.13602614 8.88147157 C12.95256831 10.69237759 14.76187347 12.51034445 16.57128906 14.32836914 C17.87193306 15.62794027 19.17300988 16.92707834 20.4744873 18.22581482 C24.00765889 21.75413694 27.53454554 25.28868085 31.06021595 28.82449651 C34.74582678 32.51888213 38.43669981 36.20800356 42.12689209 39.89781189 C48.32075746 46.0926139 54.51073615 52.29127812 60.69824219 58.49243164 C67.86246464 65.67239692 75.03191777 72.84710474 82.20438218 80.01883608 C89.094603 86.90844767 95.98196749 93.80090682 102.86772919 100.6949749 C105.80316525 103.63395079 108.73945748 106.57206743 111.67639923 109.50953865 C115.12935951 112.96349965 118.57977165 116.41998608 122.02818298 119.87848854 C123.2980096 121.15124842 124.56869644 122.42315071 125.84027863 123.69415665 C127.56773833 125.4211295 129.29211542 127.15112029 131.01568604 128.88197327 C131.52656273 129.39130136 132.03743943 129.90062945 132.56379724 130.42539173 C136 133.88582115 136 133.88582115 136 135 C46.9 135 -42.2 135 -134 135 C-130.22124162 130.59144855 -126.51660661 126.3715159 -122.4190979 122.29884338 C-121.89127665 121.77016771 -121.3634554 121.24149203 -120.81963956 120.69679588 C-119.07173531 118.94726037 -117.32031065 117.20129453 -115.56884766 115.45532227 C-114.30667999 114.19343701 -113.04473314 112.93133084 -111.7829895 111.66902161 C-108.37246548 108.2582117 -104.9588759 104.85048507 -101.54471254 101.44331861 C-97.9714835 97.87635789 -94.40110252 94.30654867 -90.83041382 90.73704529 C-84.07525184 83.98498638 -77.31754568 77.23547978 -70.55891359 70.48689455 C-62.86165665 62.80083058 -55.16725268 55.11191324 -47.47308278 47.42275918 C-31.65188627 31.61200386 -15.82712418 15.80482134 0 0 Z " fill="#4A9BF6" transform="translate(191,369)"/>
<path d="M0 0 C1.69980017 -0.00130963 3.39959975 -0.00393895 5.09939611 -0.0077675 C9.75152617 -0.01445341 14.40344777 -0.00250594 19.05555129 0.01256669 C24.07928043 0.02555018 29.1029983 0.02113595 34.1267395 0.01885986 C42.82448729 0.01728859 51.52216745 0.02668254 60.21989822 0.04357338 C72.79526893 0.0679786 85.37060701 0.07577021 97.94599883 0.07953735 C118.34987184 0.08609944 138.75370881 0.10605404 159.15756226 0.13444519 C178.97526876 0.16199202 198.79296547 0.18322256 218.61068726 0.19596863 C219.83272821 0.1967568 221.05476916 0.19754497 222.31384166 0.19835702 C228.44460446 0.2022722 234.57536734 0.20606331 240.70613027 0.20979273 C291.5482015 0.24088109 342.39023364 0.29371031 393.23226929 0.36076355 C392.27628488 1.48096819 391.31960499 2.60057932 390.36263275 3.71994019 C389.82995647 4.34348735 389.29728019 4.96703451 388.7484622 5.60947704 C386.97540809 7.65745241 385.13652648 9.62416443 383.24984741 11.5677948 C382.52889893 12.3112616 381.80795044 13.05472839 381.06515503 13.82072449 C377.81855637 17.1391254 374.56434385 20.44982435 371.30111694 23.75187683 C369.58137678 25.49842153 367.86884299 27.25208995 366.16342163 29.01261902 C363.69252432 31.56222847 361.199749 34.08846211 358.70101929 36.61076355 C357.56170959 37.79956116 357.56170959 37.79956116 356.39938354 39.01237488 C351.04300527 44.34870078 351.04300527 44.34870078 346.86849976 44.41081238 C345.9985437 44.06429626 345.12858765 43.71778015 344.23226929 43.36076355 C343.35828491 43.01400574 342.48430054 42.66724792 341.58383179 42.3099823 C340.23418335 41.68543152 340.23418335 41.68543152 338.85726929 41.04826355 C325.13971521 35.16199968 311.07992462 33.1996597 296.2447052 33.22946167 C294.81421242 33.2262881 294.81421242 33.2262881 293.35482079 33.22305042 C290.18692394 33.21710036 287.01906749 33.21804696 283.85116577 33.21891785 C281.56875542 33.21588314 279.28634568 33.21236083 277.00393677 33.20838928 C272.10242585 33.20052573 267.20092214 33.19536508 262.29940605 33.19209862 C254.54597134 33.18616988 246.79258207 33.16961346 239.03916931 33.15075684 C236.38116744 33.14442033 233.72316554 33.13809313 231.06516361 33.13177967 C230.40109086 33.13019591 229.73701811 33.12861215 229.05282195 33.12698039 C221.50985761 33.10907829 213.96689027 33.09283344 206.42391968 33.07780457 C205.73512225 33.07642869 205.04632481 33.07505282 204.33665473 33.07363526 C193.16598172 33.05168831 181.99532006 33.040943 170.8246293 33.03343382 C159.3353784 33.02535487 147.8462388 33.00178033 136.35704094 32.96548015 C129.91426051 32.94572484 123.47164986 32.93331353 117.0288372 32.93831444 C110.97204267 32.94295914 104.91557049 32.92916467 98.85884094 32.90130234 C96.63890707 32.89438935 94.41893987 32.89426512 92.19900703 32.90150261 C89.16323883 32.91039918 86.12853194 32.89468373 83.09284973 32.87301636 C81.78251846 32.88568016 81.78251846 32.88568016 80.44571584 32.8985998 C74.21282968 32.81661164 69.76158173 31.12261495 64.23226929 28.36076355 C48.08380193 22.8265062 28.35786009 23.49768376 12.91195679 30.9662323 C8.21001803 32.74817724 4.0887245 32.79731412 -0.89273071 32.86076355 C-17.14041653 33.38620024 -31.12852052 36.41528058 -42.69351196 48.66545105 C-48.10222931 55.69372783 -51.51913657 63.82262348 -53.76773071 72.36076355 C-54.09773071 72.36076355 -54.42773071 72.36076355 -54.76773071 72.36076355 C-54.86784791 67.73842942 -54.93977604 63.11674899 -54.98745728 58.49357605 C-55.00736803 56.92640669 -55.03450707 55.35930958 -55.06948853 53.79240417 C-55.43053416 37.18430484 -52.01982886 25.07543655 -40.45523071 12.61076355 C-28.62372629 1.41308973 -15.54165706 -0.08927342 0 0 Z " fill="#1FA463" transform="translate(62.767730712890625,7.6392364501953125)"/>
<path d="M0 0 C4.65120682 3.88928887 9.06897961 7.92444891 13.34654236 12.21955872 C14.24368646 13.11436283 14.24368646 13.11436283 15.15895468 14.02724379 C17.14341641 16.00774704 19.12432047 17.99176902 21.10522461 19.97583008 C22.53460361 21.40385284 23.96419499 22.83166303 25.39398193 24.25927734 C29.26148465 28.12223474 33.12583403 31.98833207 36.98947597 35.85515046 C41.03319775 39.90140789 45.07936313 43.9452206 49.12513733 47.98942566 C55.91147774 54.77394915 62.69571181 61.56057355 69.47875977 68.34838867 C77.33126309 76.20634686 85.1873802 84.0606783 93.0453586 91.9131611 C99.79038188 98.65365533 106.53346572 105.39608511 113.27491385 112.14015502 C117.30242246 116.16922586 121.33061138 120.19761028 125.36054802 124.2242527 C129.14257035 128.0033989 132.92216205 131.7849589 136.69984436 135.5684433 C138.09061245 136.96053981 139.48224362 138.35177465 140.87477303 139.7421093 C142.76627346 141.6309018 144.65470596 143.5227073 146.54234314 145.4153595 C147.1017558 145.97254144 147.66116847 146.52972338 148.23753303 147.10378963 C152 150.88584933 152 150.88584933 152 152 C138.06946523 155.19129386 124.11988442 157.21732074 109.875 158.375 C108.80992596 158.46201927 107.74485191 158.54903854 106.6475029 158.63869476 C78.67196953 160.64733328 56.37890973 155.64189868 34.96160936 137.50002587 C21.88441826 126.17062557 9.83860957 113.78209213 -1.9375 101.125 C-2.5037399 100.51760955 -3.0699798 99.9102191 -3.65337849 99.28442287 C-18.02600467 83.84890944 -31.94152743 68.05157786 -45.43188381 51.83906746 C-47.02103154 49.92611962 -47.02103154 49.92611962 -49 48 C-48.53561523 47.60666977 -48.07123047 47.21333954 -47.59277344 46.80809021 C-41.88546503 41.90240607 -36.55382094 36.68347418 -31.25 31.34765625 C-29.90192261 29.99745644 -29.90192261 29.99745644 -28.52661133 28.61997986 C-26.16413425 26.25288737 -23.80384888 23.88365361 -21.44464111 21.51330566 C-19.02614819 19.08449258 -16.60474054 16.65858897 -14.18359375 14.23242188 C-9.45307046 9.49092631 -4.72542027 4.74658102 0 0 Z " fill="#F6F6FE" transform="translate(240,320)"/>
<path d="M0 0 C4.33771411 3.31666505 8.19245119 7.0914217 12 11 C12.60199219 11.56074219 13.20398438 12.12148438 13.82421875 12.69921875 C15 14 15 14 15 16 C12.91088631 17.78808866 10.8132691 19.4659697 8.625 21.125 C7.34344502 22.11288573 6.06219735 23.10117026 4.78125 24.08984375 C4.14316406 24.57952637 3.50507813 25.06920898 2.84765625 25.57373047 C0.24783766 27.58062003 -2.3143351 29.63087402 -4.875 31.6875 C-5.67679687 32.33074219 -6.47859375 32.97398438 -7.3046875 33.63671875 C-7.86414063 34.08660156 -8.42359375 34.53648438 -9 35 C-10.36125 33.700625 -10.36125 33.700625 -11.75 32.375 C-21.38060108 24.11460639 -32.83541107 20.42139338 -45.36328125 20.62109375 C-55.06366305 21.63176726 -64.28180698 26.63695145 -70.71484375 33.94921875 C-78.46874426 43.90226953 -81.06820194 53.46197975 -80 66 C-77.68950153 76.96173988 -72.32163938 86.5827872 -63 93 C-52.92442695 98.92795851 -42.46802462 100.87468218 -30.89453125 98.3125 C-18.75240064 94.20232885 -10.69074161 87.38148322 -5 76 C-16.88 76 -28.76 76 -41 76 C-41 65.44 -41 54.88 -41 44 C-33.28734252 43.93701096 -25.57562181 43.87691576 -17.8629303 43.84474945 C-14.27097518 43.82893705 -10.67923399 43.80782219 -7.08740234 43.77368164 C-3.62497475 43.74097871 -0.16275404 43.72312414 3.29981613 43.71536827 C5.2573708 43.70716407 7.21484276 43.68376207 9.17227173 43.66011047 C10.37306366 43.65988388 11.57385559 43.65965729 12.81103516 43.65942383 C13.86360504 43.65276199 14.91617493 43.64610016 16.00064087 43.63923645 C20.18369545 44.14237514 23.55387695 45.65005615 26.64453125 48.53515625 C31.88195085 55.38408958 31.69989364 61.63646652 31 70 C28.61062938 84.13471052 22.57676444 97.29655739 13 108 C12.34515625 108.74765625 11.6903125 109.4953125 11.015625 110.265625 C-0.72738269 122.86578653 -18.54057007 131.54173951 -35.8828125 132.3359375 C-55.90531387 132.68321432 -73.75454302 127.64067204 -89 114 C-90.12148437 113.01773438 -90.12148437 113.01773438 -91.265625 112.015625 C-104.23220606 99.93112429 -112.48475814 82.0116308 -113.3359375 64.23828125 C-113.68923672 45.13708224 -108.68252781 26.65521941 -95.4375 12.375 C-93.65957178 10.54124892 -91.84294832 8.77034732 -90 7 C-89.41734375 6.40960938 -88.8346875 5.81921875 -88.234375 5.2109375 C-80.35988526 -2.22608059 -69.49909924 -7.67394766 -59 -10 C-58.34870117 -10.16483887 -57.69740234 -10.32967773 -57.02636719 -10.49951172 C-37.32432959 -15.29455821 -16.90776869 -11.02642458 0 0 Z " fill="#F5F6FD" transform="translate(145,44)"/>
<path d="M0 0 C4.51244792 0.03310549 9.02282158 -0.01260147 13.53506553 -0.05726576 C24.2036558 -0.16161727 34.86664575 -0.13948399 45.53507185 -0.03314018 C56.45211072 0.07370047 67.35367668 -0.02276584 78.26906788 -0.22230387 C87.7225059 -0.3883974 97.17119806 -0.43095213 106.62593925 -0.37777472 C112.23759624 -0.34700978 117.84005528 -0.35757092 123.45052671 -0.4860363 C161.17391954 -1.26400408 161.17391954 -1.26400408 176.60326231 12.74873209 C183.53470168 19.44825069 189.8465889 26.73821451 195.48477888 34.55572701 C195.48477888 34.88572701 195.48477888 35.21572701 195.48477888 35.55572701 C106.38477888 35.55572701 17.28477888 35.55572701 -74.51522112 35.55572701 C-72.53522112 33.24572701 -70.55522112 30.93572701 -68.51522112 28.55572701 C-67.03976677 26.55092474 -65.57045388 24.54158646 -64.10765886 22.52752876 C-46.56448058 -0.04908356 -27.11549268 -0.28808904 0 0 Z " fill="#3B7CC4" transform="translate(131.515221118927,468.4442729949951)"/>
<path d="M0 0 C2.24131966 1.43845889 4.36286351 2.96060355 6.48046875 4.57421875 C7.51171875 5.31671875 8.54296875 6.05921875 9.60546875 6.82421875 C18.88182526 15.69725541 24.50383198 27.21445967 24.97070312 40.11035156 C25.03349096 54.34435407 20.56241167 66.45389873 10.66796875 76.94921875 C0.04559607 86.81285052 -12.66431637 91.00923811 -26.98046875 90.84765625 C-39.64161392 89.86942208 -51.3156519 83.76604774 -59.9609375 74.51953125 C-69.71324143 62.34748274 -73.02472674 48.90966338 -71.51953125 33.57421875 C-68.81503586 21.1385951 -62.2409915 10.52029448 -51.87890625 3.0703125 C-36.03035435 -6.97934872 -16.80657505 -9.51069751 0 0 Z " fill="#A83229" transform="translate(383.51953125,109.42578125)"/>
<path d="M0 0 C0.33 0 0.66 0 1 0 C1.1001172 4.62233413 1.17204532 9.24401456 1.21972656 13.8671875 C1.23963732 15.43435686 1.26677635 17.00145397 1.30175781 18.56835938 C1.66280345 35.17645871 -1.74790186 47.285327 -13.3125 59.75 C-24.00074696 69.8656623 -36.12430235 72.38695689 -50.40307617 72.83251953 C-51.71048767 72.88275269 -53.01789917 72.93298584 -54.3649292 72.98474121 C-66.43314448 73.43317561 -78.51037162 73.66805943 -90.58518505 73.85257149 C-98.67022364 73.97866106 -106.74436059 74.16339296 -114.82348633 74.50341797 C-173.59671591 76.929508 -173.59671591 76.929508 -189.7046442 62.92632103 C-196.48526604 56.43062609 -202.24062696 49.08584378 -207 41 C-207 40.67 -207 40.34 -207 40 C-206.14523449 39.99853344 -205.29046898 39.99706688 -204.40980148 39.99555588 C-183.57587184 39.95844443 -162.74210431 39.89937223 -141.90830612 39.81609726 C-131.83307389 39.77635062 -121.75791928 39.74393593 -111.68261719 39.72900391 C-102.89718844 39.71596469 -94.11193078 39.6889422 -85.32659841 39.64538693 C-80.67824051 39.62282311 -76.03009323 39.60708626 -71.38167572 39.60811615 C-66.99850037 39.60886578 -62.6157897 39.59079447 -58.23273468 39.55883217 C-56.63168968 39.55037515 -55.0305923 39.54855443 -53.42953491 39.55419731 C-37.88532924 39.60164762 -24.63319708 36.11820774 -12.8125 25.5 C-6.18421783 18.52215325 -2.41276573 9.19427717 0 0 Z " fill="#C9CEE7" transform="translate(503,432)"/>
<path d="M0 0 C0.33 0 0.66 0 1 0 C7.43284257 46.02358911 -20.59543979 86.16796777 -46.99609375 121.34375 C-53.82203217 130.37904242 -60.74623004 139.30395999 -68 148 C-69.50044767 149.85380442 -71.00043675 151.70798009 -72.5 153.5625 C-76.17210966 158.05347732 -79.98546062 162.38683347 -83.890625 166.67578125 C-85.74626657 168.72042335 -87.56756376 170.78784149 -89.375 172.875 C-92.41027936 176.35706113 -95.50781664 179.77889382 -98.625 183.1875 C-99.08052246 183.68685059 -99.53604492 184.18620117 -100.00537109 184.70068359 C-102.9270127 187.88513519 -105.92577058 190.96461463 -109 194 C-112.91209308 192.40584497 -115.37218086 189.86106668 -118.3125 186.875 C-118.79960449 186.3807251 -119.28670898 185.8864502 -119.78857422 185.37719727 C-123.06958376 182.02278098 -126.21990156 178.58347246 -129.265625 175.015625 C-131.25912581 172.69885379 -133.31554388 170.44580016 -135.375 168.1875 C-139.19597138 163.94911157 -142.84247331 159.60120897 -146.4296875 155.1640625 C-148.35180461 152.7871519 -150.29965269 150.43324057 -152.2578125 148.0859375 C-162.7579874 135.47930013 -172.74609108 122.55502152 -182 109 C-180.41332422 105.09714233 -177.86649519 102.66479018 -174.875 99.75 C-173.96492188 98.85796875 -173.05484375 97.9659375 -172.1171875 97.046875 C-171.41851562 96.37140625 -170.71984375 95.6959375 -170 95 C-165.71099383 96.54245002 -163.56486931 99.79439302 -160.9375 103.3125 C-159.96172379 104.58753843 -158.9838036 105.86093853 -158.00390625 107.1328125 C-157.50648926 107.77895508 -157.00907227 108.42509766 -156.49658203 109.09082031 C-154.19893749 112.02191008 -151.79621785 114.85825973 -149.375 117.6875 C-146.06293021 121.55844892 -142.81089262 125.46094789 -139.625 129.4375 C-135.0094133 135.11566782 -130.03282599 140.42238223 -125.02734375 145.75390625 C-122.06130194 148.91762317 -119.19975784 152.16178569 -116.3671875 155.4453125 C-114.6617552 157.38463266 -112.86265908 159.21184728 -111 161 C-103.8804339 157.87433683 -98.87953643 150.97459694 -93.90625 145.1875 C-91.69054352 142.64488601 -89.40901408 140.16889802 -87.125 137.6875 C-82.67311345 132.80112002 -78.4669687 127.76464457 -74.31933594 122.61962891 C-72.84535137 120.81015192 -71.35009746 119.01966395 -69.8515625 117.23046875 C-60.83523014 106.44205849 -52.2857515 95.35851175 -44 84 C-43.40155273 83.18128418 -42.80310547 82.36256836 -42.18652344 81.51904297 C-24.81390283 57.61389953 -8.75146419 31.74814875 -1 3 C-0.67 2.01 -0.34 1.02 0 0 Z " fill="#AEB1D3" transform="translate(470,165)"/>
<path d="M0 0 C14.23246609 4.83176051 25.06077987 13.87103131 31.75 27.37109375 C34.5322555 34.00248467 36.25694497 41.23509508 34.75 48.37109375 C32.16321423 52.44028135 28.84486855 55.56177587 25.34375 58.8515625 C24.3772875 59.79747384 23.41325053 60.74586916 22.45153809 61.6966095 C19.93022877 64.17618757 17.37768023 66.62093557 14.8168335 69.05957031 C12.20299348 71.56028749 9.62053643 74.09297583 7.03515625 76.62304688 C1.9701476 81.57056302 -3.12860202 86.48191649 -8.25 91.37109375 C-12.16577527 90.06583533 -12.36432706 88.72272907 -14.25 85.12109375 C-23.06351134 69.53080689 -36.08073441 57.54145867 -51.28125 48.28125 C-53.6745135 46.74137388 -55.32257357 45.39553588 -57.25 43.37109375 C-51.71574918 37.60454157 -46.15454108 31.86595347 -40.55745888 26.16043091 C-37.95893535 23.50984466 -35.37047178 20.85083859 -32.80322266 18.16992188 C-30.32249457 15.58006702 -27.81769716 13.01585271 -25.29478073 10.46710205 C-24.3394779 9.49340427 -23.39297993 8.51098211 -22.45592117 7.51971436 C-14.94147749 -0.41143395 -10.53736713 -2.03908186 0 0 Z " fill="#FEDE64" transform="translate(469.25,8.62890625)"/>
<path d="M0 0 C0.33 0 0.66 0 1 0 C1.1001172 4.62233413 1.17204532 9.24401456 1.21972656 13.8671875 C1.23963732 15.43435686 1.26677635 17.00145397 1.30175781 18.56835938 C1.66280345 35.17645871 -1.74790186 47.285327 -13.3125 59.75 C-27.27996359 72.96920661 -46.74453383 74.48336385 -65.11212158 74.29499817 C-79.48852173 73.60982802 -87.65434156 66.89389431 -97.125 56.5625 C-110 42.35754471 -110 42.35754471 -110 40 C-108.7057309 39.99453156 -108.7057309 39.99453156 -107.38531494 39.98895264 C-99.20665179 39.95089983 -91.02838042 39.89385317 -82.84999466 39.81609726 C-78.64656386 39.77678627 -74.44333742 39.74451835 -70.23974609 39.72900391 C-66.17404231 39.71372825 -62.10890097 39.67909334 -58.0434494 39.63169098 C-56.50157341 39.61698854 -54.95961706 39.60896547 -53.4176712 39.60811615 C-37.88982188 39.59098023 -24.62032974 36.10664937 -12.8125 25.5 C-6.18421783 18.52215325 -2.41276573 9.19427717 0 0 Z " fill="#AEB2D4" transform="translate(503,432)"/>
<path d="M0 0 C2.24131966 1.43845889 4.36286351 2.96060355 6.48046875 4.57421875 C7.51171875 5.31671875 8.54296875 6.05921875 9.60546875 6.82421875 C18.94346059 15.75621094 24.57985266 27.33578055 24.91430664 40.32397461 C24.92368168 46.08462341 24.60225027 51.12064375 22.48046875 56.57421875 C21.82046875 56.57421875 21.16046875 56.57421875 20.48046875 56.57421875 C20.15175781 55.88457031 19.82304687 55.19492188 19.484375 54.484375 C12.42516246 40.53812583 2.63903494 33.37395752 -11.9609375 28.40234375 C-25.4536928 25.26242704 -38.04012602 28.00140035 -49.84765625 34.7890625 C-58.25361596 40.40532506 -63.21719883 47.54775661 -67.51953125 56.57421875 C-68.17953125 56.57421875 -68.83953125 56.57421875 -69.51953125 56.57421875 C-73.74714173 45.70807133 -72.46577221 33.40757794 -68.12890625 22.796875 C-61.27974572 9.08192977 -50.68396996 0.38483555 -36.2578125 -4.5390625 C-24.06496244 -7.43120144 -10.93684721 -6.18906858 0 0 Z " fill="#91323B" transform="translate(383.51953125,109.42578125)"/>
<path d="M0 0 C3.37446174 1.12482058 4.01954686 1.98399549 6.1875 4.6875 C14.32922644 14.24889723 24.74934385 20.06173665 37.30252075 21.21075439 C39.67278684 21.32218455 42.03753884 21.38008566 44.41015625 21.4140625 C45.26306747 21.43342865 46.1159787 21.4527948 46.99473572 21.4727478 C49.68389294 21.53190102 52.3730945 21.57866838 55.0625 21.625 C56.90040794 21.66323911 58.7382991 21.70229417 60.57617188 21.7421875 C65.0506428 21.8375485 69.52519738 21.92181253 74 22 C68.69031302 28.2718162 63.18525327 34.30532004 57.47045898 40.20922852 C56.36313266 41.36351552 55.26672181 42.52837168 54.18139648 43.70336914 C45.19127384 53.41930979 45.19127384 53.41930979 39.96069336 54.80541992 C37.15424866 54.85034395 34.73735603 54.59659243 32 54 C30.89527344 53.79246094 29.79054687 53.58492188 28.65234375 53.37109375 C14.48286847 48.49842527 3.66268124 39.46669208 -3 26 C-5.58209831 19.75831124 -7.49305372 12.73610281 -6 6 C-4.22834795 3.42211788 -2.49053216 1.97167129 0 0 Z " fill="#FDB845" transform="translate(14,450)"/>
<path d="M0 0 C0.7105957 0.17104248 1.42119141 0.34208496 2.15332031 0.51831055 C3.22582031 0.72584961 4.29832031 0.93338867 5.40332031 1.1472168 C19.6357864 5.9789773 30.46410018 15.0182481 37.15332031 28.51831055 C39.95626358 35.19900991 41.40485825 42.29879076 40.15332031 49.51831055 C37.90332031 52.76831055 37.90332031 52.76831055 35.15332031 54.51831055 C32.49366758 54.30194991 31.40972263 53.77410238 29.51269531 51.8815918 C28.71605469 50.86645508 28.71605469 50.86645508 27.90332031 49.83081055 C20.43296717 40.94585862 9.76834847 34.48521951 -1.97703552 33.30407715 C-4.33949735 33.19395988 -6.69673901 33.13768482 -9.06152344 33.10424805 C-10.34513512 33.07519882 -10.34513512 33.07519882 -11.65467834 33.04556274 C-14.36441352 32.98620141 -17.07419218 32.93955689 -19.78417969 32.89331055 C-21.63120252 32.8550907 -23.4782083 32.81603668 -25.32519531 32.77612305 C-29.83221677 32.68053607 -34.33932157 32.59634631 -38.84667969 32.51831055 C-33.53109521 26.23254948 -27.99765226 20.21252161 -22.26220703 14.30908203 C-21.14900034 13.15393836 -20.0457806 11.98908897 -18.95263672 10.81494141 C-7.86135084 -1.08042125 -7.86135084 -1.08042125 0 0 Z " fill="#FEB844" transform="translate(463.8466796875,7.481689453125)"/>
<path d="M0 0 C0.25990723 0.49588623 0.51981445 0.99177246 0.78759766 1.50268555 C11.1853879 21.20079663 23.39518184 39.38350469 37 57 C35.41332422 60.90285767 32.86649519 63.33520982 29.875 66.25 C28.96492188 67.14203125 28.05484375 68.0340625 27.1171875 68.953125 C26.41851562 69.62859375 25.71984375 70.3040625 25 71 C21.43986302 69.56094909 19.96997514 67.91657586 17.93359375 64.6953125 C17.37099854 63.81190186 16.80840332 62.92849121 16.22875977 62.01831055 C15.63764404 61.06351807 15.04652832 60.10872559 14.4375 59.125 C13.51312134 57.64737183 13.51312134 57.64737183 12.57006836 56.13989258 C3.36072133 41.28100424 -4.79119666 26.35903134 -11 10 C-10.06409496 8.8944811 -9.12620142 7.79064547 -8.1875 6.6875 C-7.66542969 6.07261719 -7.14335937 5.45773438 -6.60546875 4.82421875 C-2.35974304 0 -2.35974304 0 0 0 Z " fill="#FDB745" transform="translate(264,201)"/>
<path d="M0 0 C2.20991871 3.31487806 3.15522074 6.53887291 4.25 10.3125 C6.29896274 17.17742763 8.86240012 23.60872571 11.86328125 30.109375 C13 33 13 33 13 37 C11.25 39.140625 11.25 39.140625 9 41.25 C8.2575 41.95640625 7.515 42.6628125 6.75 43.390625 C6.1725 43.92171875 5.595 44.4528125 5 45 C2.73344602 42.73344602 2.32690922 41.35325507 1.4375 38.3125 C1.18871094 37.48363281 0.93992188 36.65476563 0.68359375 35.80078125 C-0.89086508 29.34999849 -1.15627018 23.0980072 -1.125 16.5 C-1.12886719 15.68402344 -1.13273438 14.86804688 -1.13671875 14.02734375 C-1.12904474 9.24643582 -0.79841094 4.71442649 0 0 Z " fill="#21A363" transform="translate(249,165)"/>
<path d="M0 0 C16.83 0 33.66 0 51 0 C49.02 2.31 47.04 4.62 45 7 C44.175 7.99 43.35 8.98 42.5 10 C40 12 40 12 37.15625 11.765625 C34.1620626 11.03931222 31.76640383 10.08259697 29 8.75 C19.77520078 4.73463689 9.81124701 3.03637068 0 1 C0 0.67 0 0.34 0 0 Z " fill="#2DBC75" transform="translate(373,40)"/>
<path d="M0 0 C0.33 0 0.66 0 1 0 C1.18175781 0.86882812 1.36351562 1.73765625 1.55078125 2.6328125 C3.07099575 9.80428844 3.07099575 9.80428844 5.8125 16.5625 C7 19 7 19 6.5 21.125 C5 23 5 23 0 27 C0 18.09 0 9.18 0 0 Z " fill="#25A663" transform="translate(8,429)"/>
<path d="M0 0 C0 7.59 0 15.18 0 23 C-1.74948531 20.37577203 -2.57610997 18.56738891 -3.5 15.625 C-4.54973678 12.35856017 -5.67209941 9.16653218 -7 6 C-6.02388578 4.99702025 -5.04402202 3.99768827 -4.0625 3 C-3.51722656 2.443125 -2.97195313 1.88625 -2.41015625 1.3125 C-1 0 -1 0 0 0 Z " fill="#B8BCE0" transform="translate(504,57)"/>
</svg>
