<?xml version="1.0" encoding="UTF-8"?>
<svg version="1.1" xmlns="http://www.w3.org/2000/svg" width="512" height="512">
<path d="M0 0 C10.63879445 8.01319454 18.03916224 17.37500003 20.6875 30.6875 C22.17610155 45.466963 20.68515734 58.32023658 11.53125 70.44140625 C4.68551006 78.78102589 -2.89681711 84.46755739 -13.3125 87.6875 C-11.53746094 87.72617188 -11.53746094 87.72617188 -9.7265625 87.765625 C1.64282539 88.12531678 11.45336135 88.85620541 20.15625 96.984375 C26.1976734 103.70391735 28.96022992 110.77809989 28.8828125 119.8359375 C28.8799826 120.49332916 28.87715271 121.15072083 28.87423706 121.82803345 C28.86313447 123.90638233 28.83804986 125.98428366 28.8125 128.0625 C28.80245731 129.48046248 28.79333373 130.89843179 28.78515625 132.31640625 C28.76322805 135.77358037 28.72876818 139.23049642 28.6875 142.6875 C29.55389603 142.94371628 30.42029205 143.19993256 31.3129425 143.46391296 C34.77561802 144.71945088 37.54691203 146.34180352 40.68041992 148.26489258 C47.86493262 152.18762952 53.73366858 152.62641952 61.80078125 152.44921875 C63.77870114 152.45350454 65.75662123 152.45781105 67.73453808 152.46332264 C70.46586241 152.46274224 73.19644748 152.4310256 75.92755127 152.39855957 C80.72842882 152.34398326 85.52919223 152.31876768 90.33036804 152.32441711 C92.87587504 152.32428791 95.42148328 152.3042825 97.96662903 152.26139832 C106.15980839 152.24106732 111.59689254 153.15821089 117.96484375 158.65234375 C118.78662109 159.62880859 118.78662109 159.62880859 119.625 160.625 C120.19089844 161.27339844 120.75679687 161.92179688 121.33984375 162.58984375 C122.8680999 164.96860767 123.20289801 166.92643533 123.6875 169.6875 C124.62378235 169.88665512 125.5600647 170.08581024 126.52471924 170.29100037 C141.35252961 173.49377066 156.06003123 177.1898496 170.77735806 180.8598702 C173.00427405 181.41511778 175.2313239 181.96982547 177.45841217 182.52438164 C184.45025266 184.26554666 191.44163482 186.00853432 198.43233752 187.75426203 C206.46311517 189.7597047 214.49540676 191.7589332 222.52903247 193.75293547 C228.77612105 195.30389867 235.02184234 196.86028632 241.26655316 198.42079538 C244.98241612 199.34923859 248.69880869 200.27541267 252.41664886 201.1959095 C255.90185081 202.05896531 259.38530274 202.92875701 262.86753845 203.8037014 C264.74724526 204.27419544 266.62869499 204.73770911 268.51019287 205.20098877 C279.25457711 207.91364228 279.25457711 207.91364228 283.6875 210.6875 C284.9138757 213.14025141 284.80165314 214.7380781 284.78515625 217.4765625 C284.78193359 218.41757813 284.77871094 219.35859375 284.77539062 220.328125 C284.76701172 221.31296875 284.75863281 222.2978125 284.75 223.3125 C284.74548828 224.30507812 284.74097656 225.29765625 284.73632812 226.3203125 C284.72452145 228.7761016 284.708054 231.23177104 284.6875 233.6875 C285.43902344 233.96335938 286.19054687 234.23921875 286.96484375 234.5234375 C289.45254026 235.58704375 291.18543304 236.59761608 293.25 238.3125 C294.08724609 238.98152344 294.08724609 238.98152344 294.94140625 239.6640625 C301.19189596 246.90735931 301.30706986 254.14094327 301.1875 263.4375 C301.20296875 264.65566406 301.2184375 265.87382812 301.234375 267.12890625 C301.22921875 268.29808594 301.2240625 269.46726562 301.21875 270.671875 C301.21423828 271.73116211 301.20972656 272.79044922 301.20507812 273.88183594 C300.6875 276.6875 300.6875 276.6875 299.21679688 279.03027344 C295.45490066 281.49511432 292.09672491 281.26116262 287.6875 281.21875 C286.81480469 281.2225769 285.94210937 281.22640381 285.04296875 281.23034668 C283.20050908 281.2330649 281.35801076 281.22570994 279.515625 281.20898438 C276.69704066 281.18757248 273.88100515 281.20878801 271.0625 281.234375 C269.27082771 281.23173171 267.47915701 281.22660669 265.6875 281.21875 C264.84574219 281.22684692 264.00398438 281.23494385 263.13671875 281.24328613 C259.43250508 281.18398689 257.3065549 281.09311242 254.15820312 279.03027344 C252.29445379 276.06139252 252.17114334 274.16861917 252.15625 270.671875 C252.15109375 269.50269531 252.1459375 268.33351563 252.140625 267.12890625 C252.15609375 265.91074219 252.1715625 264.69257813 252.1875 263.4375 C252.17203125 262.23480469 252.1565625 261.03210938 252.140625 259.79296875 C252.17717848 251.46791427 253.14273218 245.72382742 258.6875 239.41015625 C259.3475 238.86230469 260.0075 238.31445312 260.6875 237.75 C261.3475 237.18410156 262.0075 236.61820313 262.6875 236.03515625 C264.6875 234.6875 264.6875 234.6875 268.6875 233.6875 C268.3575 230.3875 268.0275 227.0875 267.6875 223.6875 C220.1675 211.8075 172.6475 199.9275 123.6875 187.6875 C120.7175 190.9875 117.7475 194.2875 114.6875 197.6875 C109.7113206 200.62842051 105.31599089 201.1138608 99.64086914 201.02807617 C98.86931488 201.02851425 98.09776062 201.02895233 97.30282593 201.02940369 C94.77583698 201.02732894 92.24952797 201.00406104 89.72265625 200.98046875 C87.96146507 200.9748681 86.20026919 200.97060022 84.43907166 200.96760559 C79.82106446 200.95619372 75.20334381 200.92675832 70.58544922 200.89349365 C65.03539704 200.85729454 59.48524864 200.84361418 53.935112 200.82613373 C45.51904252 200.79711855 37.10360081 200.7396061 28.6875 200.6875 C28.6875 222.7975 28.6875 244.9075 28.6875 267.6875 C30.6675 268.3475 32.6475 269.0075 34.6875 269.6875 C37.1257618 270.79976827 39.52977255 271.93659199 41.93041992 273.12402344 C42.62873428 273.46580627 43.32704865 273.80758911 44.04652405 274.159729 C46.33937805 275.28402725 48.62902346 276.41464186 50.91796875 277.546875 C52.09561515 278.1286488 52.09561515 278.1286488 53.29705238 278.7221756 C57.44620017 280.77303312 61.59259063 282.82935553 65.73706055 284.88964844 C70.01363971 287.01404211 74.30011478 289.11762904 78.58907604 291.21688461 C81.89188032 292.83839625 85.18661861 294.47579617 88.47939491 296.11756134 C90.05641238 296.90028038 91.63647628 297.67689283 93.21959496 298.44719696 C95.43279498 299.52581591 97.63354718 300.62660791 99.83276367 301.73339844 C100.81232529 302.2012677 100.81232529 302.2012677 101.81167603 302.67858887 C106.30923759 304.98445123 107.99015343 306.96157872 109.6875 311.6875 C110.84755132 315.7619108 111.82483155 319.86885138 112.78198242 323.99511719 C113.22155022 325.84966774 113.22155022 325.84966774 113.66999817 327.74168396 C114.4699877 331.11787882 115.26067921 334.49618868 116.04955459 337.87499523 C116.87722283 341.41333436 117.71307369 344.94974003 118.54792786 348.48638916 C119.94735608 354.41993401 121.34118979 360.35476976 122.73120117 366.29052734 C124.51660985 373.91463182 126.31104324 381.53658192 128.10839367 389.15787888 C129.65356785 395.71008954 131.19486203 402.26321185 132.73539948 408.81651402 C133.23103252 410.92427254 133.72715285 413.03191596 134.2233181 415.13954926 C135.14548205 419.05818387 136.06361154 422.97775268 136.98120117 426.89746094 C137.25701019 428.06838791 137.53281921 429.23931488 137.81698608 430.44572449 C138.06507523 431.50840042 138.31316437 432.57107635 138.56877136 433.66595459 C138.89477215 435.05631235 138.89477215 435.05631235 139.22735882 436.47475815 C139.6875 438.6875 139.6875 438.6875 139.6875 440.6875 C140.8425 440.605 141.9975 440.5225 143.1875 440.4375 C149.11200956 440.47929548 153.37931587 442.51535816 157.67578125 446.55859375 C164.012806 453.49914467 165.16814598 458.87728606 164.9921875 468.2421875 C164.29689797 476.10430755 160.63995981 480.23708704 154.78515625 485.2421875 C150.55791935 488.15480883 146.85760367 488.94016623 141.76733398 488.97802734 C140.59939804 488.99078705 139.4314621 489.00354675 138.22813416 489.01669312 C136.34983665 489.02003159 136.34983665 489.02003159 134.43359375 489.0234375 C133.14058853 489.0300943 131.84758331 489.0367511 130.51539612 489.04360962 C127.7844 489.05555564 125.05353016 489.05929294 122.32250977 489.05810547 C118.82630606 489.05790179 115.33091075 489.08526497 111.83489895 489.11964989 C108.49278453 489.1472441 105.15082067 489.14606688 101.80859375 489.1484375 C100.55437119 489.16280853 99.30014862 489.17717957 98.00791931 489.19198608 C96.84313553 489.18583282 95.67835175 489.17967957 94.47827148 489.17333984 C92.9420237 489.1776149 92.9420237 489.1776149 91.3747406 489.18197632 C87.87567041 488.53811609 86.71511032 487.59670857 84.6875 484.6875 C84.33599854 481.78079224 84.33599854 481.78079224 84.50878906 478.34033203 C84.54067322 477.03691864 84.57255737 475.73350525 84.60540771 474.39059448 C84.62393547 473.68998775 84.64246323 472.98938103 84.66155243 472.26754379 C85.06988305 450.68608262 78.98849626 431.58308969 72.32122803 411.2734375 C70.83682094 406.7198478 69.40317337 402.15033933 67.96484375 397.58203125 C65.61196229 390.12912854 63.23797541 382.68355843 60.8010397 375.25765228 C59.58890961 371.54910895 58.42828454 367.83544423 57.35334778 364.08462524 C57.03002031 362.97920726 57.03002031 362.97920726 56.70016098 361.8514576 C56.29633265 360.46183701 55.90475492 359.06857314 55.52794266 357.67138481 C54.66124975 354.71771965 54.02393762 352.96283521 51.60984802 350.98718262 C49.32830934 350.00958485 47.3358886 349.61325269 44.875 349.3125 C44.10607422 349.16296875 43.33714844 349.0134375 42.54492188 348.859375 C41.01995237 348.56596315 39.48942603 348.29990917 37.95458984 348.06347656 C34.47279793 347.48605253 31.10001594 346.58245857 27.6875 345.6875 C27.64395386 346.41783447 27.60040771 347.14816895 27.55554199 347.90063477 C26.90387359 357.55247276 25.60752614 367.05654106 24.21875 376.625 C23.9756235 378.32075369 23.73283188 380.01655543 23.49035645 381.71240234 C22.98523127 385.23914403 22.47738499 388.76547836 21.96728516 392.29150391 C21.31446227 396.8043634 20.66658836 401.31791542 20.02048492 405.83174133 C19.4008442 410.15891572 18.7785804 414.48571178 18.15625 418.8125 C18.03862808 419.63209198 17.92100616 420.45168396 17.79981995 421.29611206 C17.4663116 423.61689208 17.13091434 425.93739099 16.79492188 428.2578125 C16.64838417 429.28022285 16.64838417 429.28022285 16.49888611 430.32328796 C15.99298563 433.80212153 15.41536494 437.24803392 14.6875 440.6875 C15.88375 440.77 17.08 440.8525 18.3125 440.9375 C24.89965711 441.79568596 29.28068135 445.61056461 33.359375 450.64453125 C37.26624386 456.65421482 38.35607856 463.27470081 37.3203125 470.3046875 C35.45753373 477.31885449 30.65705107 482.71623086 24.6875 486.6875 C20.91899002 488.4641495 17.9201652 488.94713884 13.76733398 488.97802734 C12.59939804 488.99078705 11.4314621 489.00354675 10.22813416 489.01669312 C8.34983665 489.02003159 8.34983665 489.02003159 6.43359375 489.0234375 C5.14058853 489.0300943 3.84758331 489.0367511 2.51539612 489.04360962 C-0.2156 489.05555564 -2.94646984 489.05929294 -5.67749023 489.05810547 C-9.17369394 489.05790179 -12.66908925 489.08526497 -16.16510105 489.11964989 C-19.50721547 489.1472441 -22.84917933 489.14606688 -26.19140625 489.1484375 C-28.0727401 489.16999405 -28.0727401 489.16999405 -29.99208069 489.19198608 C-31.15686447 489.18583282 -32.32164825 489.17967957 -33.52172852 489.17333984 C-35.0579763 489.1776149 -35.0579763 489.1776149 -36.6252594 489.18197632 C-40.13623141 488.53592605 -41.13143049 487.49104617 -43.3125 484.6875 C-43.79237556 481.61514091 -43.79237556 481.61514091 -43.76419067 477.93380737 C-43.76463627 477.25549209 -43.76508186 476.5771768 -43.76554096 475.87830651 C-43.76242476 473.605708 -43.73089095 471.33438527 -43.69970703 469.06201172 C-43.69206971 467.43235525 -43.6863337 465.80268892 -43.68235779 464.17301941 C-43.670588 460.66269406 -43.64705502 457.15271075 -43.61496353 453.64251328 C-43.56597883 448.08619418 -43.55374377 442.530174 -43.54855347 436.97366333 C-43.52872735 421.17289802 -43.46960334 405.37260406 -43.35058594 389.57226562 C-43.28517193 380.84612127 -43.2557158 372.12059932 -43.26526344 363.39420712 C-43.26927709 357.87642529 -43.22933775 352.36129722 -43.15657353 346.84402156 C-43.12180154 343.40051606 -43.12918117 339.95803341 -43.14819527 336.51444435 C-43.14867396 334.92534284 -43.13219382 333.3361252 -43.09690285 331.74741554 C-42.86230766 322.67805089 -42.86230766 322.67805089 -46.52186203 314.57065201 C-49.00676511 312.08058486 -51.57288886 309.88797946 -54.3125 307.6875 C-65.37698507 295.19655472 -73.28171926 278.03360133 -74.85791016 261.46582031 C-74.94416656 260.56970032 -75.03042297 259.67358032 -75.11929321 258.75030518 C-75.18305145 258.06957947 -75.24680969 257.38885376 -75.3125 256.6875 C-76.62444336 256.70844727 -77.93638672 256.72939453 -79.28808594 256.75097656 C-84.15581344 256.8233797 -89.02349335 256.86930113 -93.89160156 256.90722656 C-95.99845382 256.92734126 -98.10525025 256.95463667 -100.21191406 256.98925781 C-103.24037447 257.03778168 -106.26809678 257.06047016 -109.296875 257.078125 C-110.70957672 257.10909271 -110.70957672 257.10909271 -112.15081787 257.14068604 C-113.03142883 257.14098816 -113.91203979 257.14129028 -114.81933594 257.14160156 C-115.59210876 257.15048401 -116.36488159 257.15936646 -117.16107178 257.16851807 C-120.27052205 256.47330465 -121.34524482 255.17283967 -123.3125 252.6875 C-123.81586456 249.58276367 -123.81586456 249.58276367 -123.82043457 245.85546875 C-123.82979451 244.8255204 -123.82979451 244.8255204 -123.83934355 243.77476501 C-123.85529568 241.47449379 -123.84266168 239.17527903 -123.83007812 236.875 C-123.8354983 235.22574241 -123.84262037 233.57648966 -123.85131836 231.92724609 C-123.86956725 227.44789784 -123.8624778 222.96891775 -123.84980202 218.48956299 C-123.83968243 213.80422974 -123.8490648 209.11892823 -123.85534668 204.43359375 C-123.86262613 196.56504653 -123.8530276 188.69664943 -123.83398438 180.828125 C-123.81221504 171.72804229 -123.8192662 162.62831804 -123.84129 153.52824402 C-123.85943554 145.71836781 -123.86200647 137.90859958 -123.85153532 130.09870911 C-123.84529573 125.43277103 -123.84447752 120.7670015 -123.85768127 116.10107422 C-123.86922689 111.71461183 -123.86123787 107.32861206 -123.83810425 102.94219971 C-123.83281022 101.33132699 -123.8343428 99.72041542 -123.84315491 98.10955811 C-123.8540674 95.91235499 -123.8404014 93.71663926 -123.82043457 91.51953125 C-123.81892647 90.28952393 -123.81741837 89.0595166 -123.81586456 87.79223633 C-123.21762601 84.10232029 -122.25019471 82.92472222 -119.3125 80.6875 C-117.06304932 80.15937805 -117.06304932 80.15937805 -114.57910156 80.12231445 C-113.64422913 80.10002274 -112.70935669 80.07773102 -111.74615479 80.05476379 C-110.74195496 80.05344955 -109.73775513 80.05213531 -108.703125 80.05078125 C-107.66234802 80.03983932 -106.62157104 80.0288974 -105.54925537 80.0176239 C-103.34701486 80.00176109 -101.14467552 79.99656164 -98.94238281 80.0012207 C-95.58750369 80.00000903 -92.2370201 79.94031915 -88.8828125 79.87695312 C-86.73959397 79.868808 -84.59635884 79.86413874 -82.453125 79.86328125 C-81.45702209 79.83970047 -80.46091919 79.81611969 -79.43463135 79.79182434 C-72.91275276 79.87705478 -69.59110872 81.26284448 -64.96380615 85.89225769 C-64.14640961 86.78090263 -64.14640961 86.78090263 -63.3125 87.6875 C-61.79204148 89.38943702 -61.79204148 89.38943702 -60.3125 90.6875 C-58.33430953 90.64769706 -58.33430953 90.64769706 -56.25 89.9375 C-51.29146485 88.61631136 -46.41845396 88.09256524 -41.3125 87.6875 C-41.92996094 87.47996094 -42.54742187 87.27242188 -43.18359375 87.05859375 C-56.34813681 82.2696656 -66.23828467 72.84163952 -72.3046875 60.2421875 C-76.99459695 48.35381239 -77.43228727 33.25525236 -72.640625 21.29296875 C-66.14953121 8.55897004 -56.41278343 -1.10159056 -42.9375 -6.1875 C-28.48767089 -10.00573016 -12.43387349 -8.25207747 0 0 Z M271.375 251.5 C267.88225289 256.02763514 268.6875 258.45849027 268.6875 264.6875 C273.9675 264.6875 279.2475 264.6875 284.6875 264.6875 C284.8517691 256.90180216 284.8517691 256.90180216 281.6875 250.6875 C277.89218521 248.78984261 274.71428035 248.88272621 271.375 251.5 Z " fill="#000000" transform="translate(131.3125,15.3125)"/>
<path d="M0 0 C23.76 0 47.52 0 72 0 C72 6.27 72 12.54 72 19 C70.35 18.34 68.7 17.68 67 17 C66.62875 18.2065625 66.62875 18.2065625 66.25 19.4375 C64.73921353 23.74324143 62.89811144 27.85364007 61 32 C61.81443573 32.24914154 62.62887146 32.49828308 63.46798706 32.75497437 C67.62664281 34.22089001 71.53468802 36.02592226 75.51220703 37.92041016 C76.34546509 38.31440506 77.17872314 38.70839996 78.03723145 39.11433411 C85.69046492 42.74438214 93.31242793 46.4394301 100.92456245 50.15477943 C106.03003904 52.64564553 111.14396517 55.11380584 116.28466797 57.53125 C121.27043215 59.87650237 126.22628712 62.27628535 131.16646957 64.71601486 C133.04597127 65.63253188 134.93508687 66.52961492 136.83362198 67.40602493 C152.42448737 74.62980804 152.42448737 74.62980804 154.99961853 81.00944519 C156.17490917 84.97362504 156.59494892 88.89315756 157 93 C157.52069204 95.20849947 158.07278259 97.41019592 158.67578125 99.59765625 C162.06101635 112.94120983 165.23726145 126.314598 168.22265625 139.75317383 C170.96140993 152.03052829 173.94824224 164.2449126 176.97998047 176.45288086 C177.25866722 177.58302864 177.25866722 177.58302864 177.54298401 178.73600769 C177.88577611 180.12604923 178.23113948 181.51546111 178.5799408 182.90400696 C179.978435 188.58866868 180.94570991 194.20140452 182 200 C174.08 200 166.16 200 158 200 C153.46784637 186.73421125 149.23539755 173.3965223 145.13671875 159.9921875 C144.87689335 159.14306038 144.61706795 158.29393326 144.34936905 157.41907501 C141.90045268 149.41382533 139.45788651 141.4066447 137.02026367 133.39794922 C135.6741795 128.97639636 134.32334326 124.55631843 132.96955299 120.13711929 C132.4585516 118.46552199 131.94941615 116.79335306 131.44220543 115.12060165 C130.73895312 112.80150765 130.02971334 110.48432512 129.3190918 108.16748047 C129.11286194 107.48190063 128.90663208 106.7963208 128.69415283 106.08996582 C127.74203839 103.00676196 126.80787744 100.71181615 125 98 C117.41943584 94.7634929 109.02690682 93.28499701 100.99243164 91.56616211 C95.00350627 90.26932055 89.13153884 88.69667901 83.24780273 86.98974609 C78.81423193 85.72328344 74.37589426 84.61535383 69.87109375 83.62890625 C53.42511978 80.00808226 38.70745728 75.60869218 26 64 C25.16984375 63.24976563 24.3396875 62.49953125 23.484375 61.7265625 C10.43142861 49.33798763 1.33223875 32.118447 0 14 C0 9.38 0 4.76 0 0 Z " fill="#B2B2B2" transform="translate(72,256)"/>
<path d="M0 0 C5.81707953 3.51526741 10.56046756 8.9910225 12.5625 15.5 C12.86328125 18.83984375 12.86328125 18.83984375 12.875 22.4375 C12.89175781 23.62214844 12.90851563 24.80679687 12.92578125 26.02734375 C12.52956899 29.81479211 11.32265158 32.16324206 9.5625 35.5 C9.77357293 38.77885532 9.77357293 38.77885532 10.5625 41.5 C12.53006452 41.46877057 12.53006452 41.46877057 14.5625 40.5 C15.65135464 37.82186171 15.65135464 37.82186171 16.5625 34.5 C17.81685444 31.79195573 19.17983217 29.14452002 20.5625 26.5 C26.24752535 28.14566523 31.32931636 30.79032784 36.5625 33.5 C35.24366962 36.59963413 33.87655581 39.67561765 32.5 42.75 C31.9440918 44.05904297 31.9440918 44.05904297 31.37695312 45.39453125 C28.70010409 51.28809803 26.53252687 53.89861742 20.5625 56.5 C20.5625 61.12 20.5625 65.74 20.5625 70.5 C25.8425 70.5 31.1225 70.5 36.5625 70.5 C36.5625 75.78 36.5625 81.06 36.5625 86.5 C30.6225 86.83 24.6825 87.16 18.5625 87.5 C17.5725 89.48 17.5725 89.48 16.5625 91.5 C17.449375 91.768125 18.33625 92.03625 19.25 92.3125 C24.66591106 94.25405302 27.40513856 95.72516673 30.01953125 100.94921875 C30.81972108 102.68847433 31.60447217 104.43490176 32.375 106.1875 C32.78169922 107.08017578 33.18839844 107.97285156 33.60742188 108.89257812 C34.60596662 111.08937657 35.59028253 113.29145498 36.5625 115.5 C34.27320947 116.67154293 31.98131638 117.83738074 29.6875 119 C29.03652344 119.33386719 28.38554687 119.66773438 27.71484375 120.01171875 C22.7890625 122.5 22.7890625 122.5 20.5625 122.5 C19.55765796 120.54414675 18.55876195 118.58523763 17.5625 116.625 C17.005625 115.53445313 16.44875 114.44390625 15.875 113.3203125 C14.5625 110.5 14.5625 110.5 14.5625 108.5 C13.634375 108.190625 12.70625 107.88125 11.75 107.5625 C9.6875 106.875 7.625 106.1875 5.5625 105.5 C3.75003707 106.21230868 3.75003707 106.21230868 2 107.375 C1.40058594 107.74367188 0.80117188 108.11234375 0.18359375 108.4921875 C-0.35136719 108.82476562 -0.88632812 109.15734375 -1.4375 109.5 C-6.7936371 112.17806855 -16.5399605 111.40036538 -22.203125 109.640625 C-24.3125 108.5625 -24.3125 108.5625 -27.4375 106.5 C-28.0975 106.17 -28.7575 105.84 -29.4375 105.5 C-31.45402194 106.4662501 -33.45429982 107.46708324 -35.4375 108.5 C-36.0975 108.5 -36.7575 108.5 -37.4375 108.5 C-37.685 109.325 -37.9325 110.15 -38.1875 111 C-39.62454811 115.02373471 -41.46104515 118.71979024 -43.4375 122.5 C-49.12252535 120.85433477 -54.20431636 118.20967216 -59.4375 115.5 C-58.17166989 112.41615023 -56.84206298 109.36385711 -55.5 106.3125 C-54.96922852 105.01602539 -54.96922852 105.01602539 -54.42773438 103.69335938 C-51.80338741 97.83904691 -49.20038275 95.07918601 -43.42358398 92.2487793 C-41.4375 91.5 -41.4375 91.5 -39.4375 91.5 C-40.0975 90.18 -40.7575 88.86 -41.4375 87.5 C-47.3775 87.17 -53.3175 86.84 -59.4375 86.5 C-59.4375 81.22 -59.4375 75.94 -59.4375 70.5 C-54.1575 70.5 -48.8775 70.5 -43.4375 70.5 C-43.4375 65.88 -43.4375 61.26 -43.4375 56.5 C-44.49066406 56.04109375 -45.54382813 55.5821875 -46.62890625 55.109375 C-51.61421168 52.26062904 -53.20499529 47.85988935 -55.375 42.75 C-55.77267578 41.86183594 -56.17035156 40.97367187 -56.58007812 40.05859375 C-57.55217375 37.8801626 -58.50357303 35.69499941 -59.4375 33.5 C-57.14820947 32.32845707 -54.85631638 31.16261926 -52.5625 30 C-51.91152344 29.66613281 -51.26054687 29.33226562 -50.58984375 28.98828125 C-45.6640625 26.5 -45.6640625 26.5 -43.4375 26.5 C-42.43265796 28.45585325 -41.43376195 30.41476237 -40.4375 32.375 C-39.880625 33.46554687 -39.32375 34.55609375 -38.75 35.6796875 C-37.4375 38.5 -37.4375 38.5 -37.4375 40.5 C-36.1175 40.83 -34.7975 41.16 -33.4375 41.5 C-32.48104326 37.84807426 -32.10756503 36.13148843 -33.890625 32.71875 C-36.76983514 26.72766628 -36.44236437 19.44993856 -34.81640625 13.05859375 C-32.15477969 7.01374411 -26.9573474 2.27173527 -21.109375 -0.671875 C-14.63535035 -2.67844404 -6.26472423 -2.7761327 0 0 Z " fill="#000000" transform="translate(467.4375,377.5)"/>
<path d="M0 0 C5.81707953 3.51526741 10.56046756 8.9910225 12.5625 15.5 C12.86328125 18.83984375 12.86328125 18.83984375 12.875 22.4375 C12.89175781 23.62214844 12.90851563 24.80679687 12.92578125 26.02734375 C12.52956899 29.81479211 11.32265158 32.16324206 9.5625 35.5 C9.77357293 38.77885532 9.77357293 38.77885532 10.5625 41.5 C12.53006452 41.46877057 12.53006452 41.46877057 14.5625 40.5 C15.65135464 37.82186171 15.65135464 37.82186171 16.5625 34.5 C17.81685444 31.79195573 19.17983217 29.14452002 20.5625 26.5 C26.24752535 28.14566523 31.32931636 30.79032784 36.5625 33.5 C35.24366962 36.59963413 33.87655581 39.67561765 32.5 42.75 C31.9440918 44.05904297 31.9440918 44.05904297 31.37695312 45.39453125 C28.70010409 51.28809803 26.53252687 53.89861742 20.5625 56.5 C20.5625 61.12 20.5625 65.74 20.5625 70.5 C25.8425 70.5 31.1225 70.5 36.5625 70.5 C36.5625 75.78 36.5625 81.06 36.5625 86.5 C30.6225 86.83 24.6825 87.16 18.5625 87.5 C17.5725 89.48 17.5725 89.48 16.5625 91.5 C17.449375 91.768125 18.33625 92.03625 19.25 92.3125 C24.66591106 94.25405302 27.40513856 95.72516673 30.01953125 100.94921875 C30.81972108 102.68847433 31.60447217 104.43490176 32.375 106.1875 C32.78169922 107.08017578 33.18839844 107.97285156 33.60742188 108.89257812 C34.60596662 111.08937657 35.59028253 113.29145498 36.5625 115.5 C34.27320947 116.67154293 31.98131638 117.83738074 29.6875 119 C29.03652344 119.33386719 28.38554687 119.66773438 27.71484375 120.01171875 C22.7890625 122.5 22.7890625 122.5 20.5625 122.5 C19.55765796 120.54414675 18.55876195 118.58523763 17.5625 116.625 C17.005625 115.53445313 16.44875 114.44390625 15.875 113.3203125 C14.5625 110.5 14.5625 110.5 14.5625 108.5 C13.634375 108.190625 12.70625 107.88125 11.75 107.5625 C9.6875 106.875 7.625 106.1875 5.5625 105.5 C3.75003707 106.21230868 3.75003707 106.21230868 2 107.375 C1.40058594 107.74367188 0.80117188 108.11234375 0.18359375 108.4921875 C-0.35136719 108.82476562 -0.88632812 109.15734375 -1.4375 109.5 C-6.7936371 112.17806855 -16.5399605 111.40036538 -22.203125 109.640625 C-24.3125 108.5625 -24.3125 108.5625 -27.4375 106.5 C-28.0975 106.17 -28.7575 105.84 -29.4375 105.5 C-31.45402194 106.4662501 -33.45429982 107.46708324 -35.4375 108.5 C-36.0975 108.5 -36.7575 108.5 -37.4375 108.5 C-37.685 109.325 -37.9325 110.15 -38.1875 111 C-39.62454811 115.02373471 -41.46104515 118.71979024 -43.4375 122.5 C-49.12252535 120.85433477 -54.20431636 118.20967216 -59.4375 115.5 C-58.17166989 112.41615023 -56.84206298 109.36385711 -55.5 106.3125 C-54.96922852 105.01602539 -54.96922852 105.01602539 -54.42773438 103.69335938 C-51.80338741 97.83904691 -49.20038275 95.07918601 -43.42358398 92.2487793 C-41.4375 91.5 -41.4375 91.5 -39.4375 91.5 C-40.0975 90.18 -40.7575 88.86 -41.4375 87.5 C-47.3775 87.17 -53.3175 86.84 -59.4375 86.5 C-59.4375 81.22 -59.4375 75.94 -59.4375 70.5 C-54.1575 70.5 -48.8775 70.5 -43.4375 70.5 C-43.4375 65.88 -43.4375 61.26 -43.4375 56.5 C-44.49066406 56.04109375 -45.54382813 55.5821875 -46.62890625 55.109375 C-51.61421168 52.26062904 -53.20499529 47.85988935 -55.375 42.75 C-55.77267578 41.86183594 -56.17035156 40.97367187 -56.58007812 40.05859375 C-57.55217375 37.8801626 -58.50357303 35.69499941 -59.4375 33.5 C-57.14820947 32.32845707 -54.85631638 31.16261926 -52.5625 30 C-51.91152344 29.66613281 -51.26054687 29.33226562 -50.58984375 28.98828125 C-45.6640625 26.5 -45.6640625 26.5 -43.4375 26.5 C-42.43265796 28.45585325 -41.43376195 30.41476237 -40.4375 32.375 C-39.880625 33.46554687 -39.32375 34.55609375 -38.75 35.6796875 C-37.4375 38.5 -37.4375 38.5 -37.4375 40.5 C-36.1175 40.83 -34.7975 41.16 -33.4375 41.5 C-32.48104326 37.84807426 -32.10756503 36.13148843 -33.890625 32.71875 C-36.76983514 26.72766628 -36.44236437 19.44993856 -34.81640625 13.05859375 C-32.15477969 7.01374411 -26.9573474 2.27173527 -21.109375 -0.671875 C-14.63535035 -2.67844404 -6.26472423 -2.7761327 0 0 Z " fill="#000000" transform="translate(363.4375,377.5)"/>
<path d="M0 0 C0.96149963 -0.00960754 1.92299927 -0.01921509 2.91363525 -0.02911377 C3.95630554 -0.03336365 4.99897583 -0.03761353 6.07324219 -0.04199219 C7.67906158 -0.0505423 7.67906158 -0.0505423 9.31732178 -0.05926514 C11.58702605 -0.06872482 13.85674412 -0.07525295 16.12646484 -0.07910156 C19.59204265 -0.08878871 23.05702288 -0.11979594 26.52246094 -0.15136719 C28.7268845 -0.15789899 30.9313123 -0.16314877 33.13574219 -0.16699219 C34.68760223 -0.18551239 34.68760223 -0.18551239 36.27081299 -0.20440674 C42.49284482 -0.18523748 47.25059142 0.24908145 52.01464844 4.69628906 C55.00199933 8.60282485 56.50033428 10.62856942 56.46777344 15.51269531 C56.46293945 16.78886719 56.46293945 16.78886719 56.45800781 18.09082031 C56.44543945 19.425 56.44543945 19.425 56.43261719 20.78613281 C56.42810547 21.68332031 56.42359375 22.58050781 56.41894531 23.50488281 C56.4071431 25.7236993 56.39067874 27.942383 56.37011719 30.16113281 C53.74149993 29.13649876 51.16559373 28.06566925 48.60839844 26.87207031 C41.18680466 23.4833052 34.96848525 21.45530916 26.95996094 23.89550781 C19.09844391 27.09786199 13.85510333 31.59123576 10.28808594 39.34863281 C7.84413562 46.83648058 8.65569865 53.99506921 12.00683594 61.02832031 C15.84953267 67.04010374 19.70936164 70.37996323 25.87011719 73.78613281 C26.59191162 74.19782715 27.31370605 74.60952148 28.05737305 75.03369141 C29.63130335 75.93008441 31.20818081 76.82131765 32.78759766 77.70800781 C36.47632233 79.78356928 40.14503196 81.89365019 43.81567383 84.00097656 C47.99616709 86.39525609 52.18387661 88.77691633 56.37011719 91.16113281 C56.37011719 100.73113281 56.37011719 110.30113281 56.37011719 120.16113281 C32.61011719 120.16113281 8.85011719 120.16113281 -15.62988281 120.16113281 C-15.79031805 93.19909987 -15.79031805 93.19909987 -15.82519531 81.70800781 C-15.84910847 73.86642637 -15.87740083 66.02503171 -15.93164062 58.18359375 C-15.97509547 51.86178668 -15.99901955 45.54017991 -16.00939178 39.21823502 C-16.01678371 36.80608085 -16.03121829 34.39393766 -16.05280304 31.98186874 C-16.08183118 28.60371949 -16.08583892 25.2263984 -16.08398438 21.84814453 C-16.09836548 20.85048569 -16.11274658 19.85282684 -16.12756348 18.82493591 C-16.09343298 13.08098013 -15.53164435 9.6857199 -11.62988281 5.16113281 C-7.61924887 1.62795529 -5.30912114 0.04275142 0 0 Z " fill="#92C480" transform="translate(87.6298828125,119.8388671875)"/>
<path d="M0 0 C9.57 0 19.14 0 29 0 C36 7 36 7 36.0625 9.5 C35.5365625 10.7375 35.5365625 10.7375 35 12 C32.67696609 18.41410317 32.69395188 24.49278105 32.68115234 31.26928711 C32.66608391 33.09961487 32.66608391 33.09961487 32.65071106 34.96691895 C32.62520507 38.29494762 32.60829791 41.62280753 32.59528303 44.95089412 C32.57959924 48.43561899 32.55282589 51.92025869 32.5272522 55.40492249 C32.48055697 61.9955687 32.44376824 68.58623111 32.41057932 75.17695767 C32.37229232 82.68368049 32.3228995 90.19031755 32.27259517 97.69696796 C32.16941304 113.13125612 32.08157412 128.56558021 32 144 C21.44 144 10.88 144 0 144 C0 96.48 0 48.96 0 0 Z " fill="#9F9F9F" transform="translate(24,112)"/>
<path d="M0 0 C8.415 3.465 8.415 3.465 17 7 C20.89616109 8.10727876 24.62355761 9.1130702 28.5625 9.9375 C29.48740234 10.14439453 30.41230469 10.35128906 31.36523438 10.56445312 C33.5742366 11.05661424 35.78510546 11.53523417 38 12 C39.39789787 16.805401 38.66211365 20.99426218 37.93603516 25.84179688 C37.81099106 26.72207047 37.68594696 27.60234406 37.55711365 28.5092926 C37.14246551 31.41366338 36.71588283 34.31614516 36.2890625 37.21875 C35.99787205 39.23976835 35.70738519 41.26088818 35.41757202 43.28210449 C34.65278136 48.60118625 33.87767281 53.91871679 33.10064697 59.23602295 C32.46841597 63.57450845 31.84346253 67.91402715 31.21891212 72.25362396 C30.47384508 77.42984419 29.72572335 82.60562084 28.9765625 87.78125 C28.76236601 89.26134804 28.76236601 89.26134804 28.54384232 90.77134705 C28.13842808 93.56720384 27.73098066 96.36275576 27.32275391 99.15820312 C27.20321854 99.98328873 27.08368317 100.80837433 26.96052551 101.65846252 C26.84832169 102.42379807 26.73611786 103.18913361 26.62051392 103.97766113 C26.52427042 104.63762337 26.42802692 105.2975856 26.32886696 105.97754669 C25.94649856 108.32902111 25.46721917 110.66390416 25 113 C16.75 113 8.5 113 0 113 C0 75.71 0 38.42 0 0 Z " fill="#9F9F9F" transform="translate(104,343)"/>
<path d="M0 0 C6.69809768 4.76229994 11.16407958 11.54657266 13.3125 19.4375 C14.63589593 30.16397224 12.19041124 39.59787827 5.75 48.3125 C0.70575043 53.70007545 -8.15971888 58.05495894 -15.5078125 58.67578125 C-22.90127368 58.84182825 -28.33208785 58.30391044 -34.6875 54.4375 C-35.73550781 53.81875 -35.73550781 53.81875 -36.8046875 53.1875 C-43.5642531 48.69812813 -47.04974926 42.45743363 -50.0625 35.0625 C-52.02040084 23.70667512 -50.41606218 15.7043089 -44 6.25 C-32.85644711 -7.88397468 -14.8221531 -8.8531642 0 0 Z " fill="#F7D7A3" transform="translate(122.6875,29.5625)"/>
<path d="M0 0 C2.76635742 1.03466797 2.76635742 1.03466797 5.60546875 2.4921875 C6.6629834 3.02803467 7.72049805 3.56388184 8.81005859 4.1159668 C10.48189209 4.98668823 10.48189209 4.98668823 12.1875 5.875 C13.33557129 6.46128174 14.48364258 7.04756348 15.66650391 7.65161133 C19.11869488 9.41997658 22.56093808 11.20625373 26 13 C26.99177246 13.51643066 27.98354492 14.03286133 29.00537109 14.56494141 C33.7531639 17.04237612 38.4911107 19.53734609 43.21435547 22.0612793 C43.80361816 22.37105713 44.39288086 22.68083496 45 23 C45.57550095 23.34376678 46.15100189 23.68753357 46.74394226 24.04171753 C49.58174041 25.2470999 51.80066184 25.25859513 54.88256836 25.27124023 C56.06737289 25.28142685 57.25217743 25.29161346 58.47288513 25.30210876 C59.74898148 25.30424881 61.02507782 25.30638885 62.33984375 25.30859375 C64.34781238 25.32731164 66.35578103 25.34604636 68.36373997 25.36577702 C73.31165201 25.41112582 78.25969958 25.43476395 83.20776367 25.45629883 C85.98592913 25.46911655 88.76383962 25.48981572 91.54188538 25.51856995 C94.15721578 25.5448343 96.77270607 25.55870695 99.38816833 25.5589447 C100.57612503 25.57228348 101.76408173 25.58562225 102.98803711 25.59936523 C104.03076279 25.60443588 105.07348846 25.60950653 106.14781189 25.61473083 C109.4390166 26.05930168 111.33407911 27.04945095 114 29 C115.40457737 31.80915474 115.24895157 33.88810534 115 37 C113.22015595 40.1359157 112.47691793 40.84102736 109 42 C106.62026049 42.17102084 104.23621661 42.28378146 101.85180664 42.36743164 C101.12581268 42.39327835 100.39981873 42.41912506 99.65182495 42.445755 C92.87070968 42.67373666 86.08741375 42.80633569 79.30338383 42.91112614 C74.76614098 42.9825888 70.23435193 43.0835191 65.69995117 43.26196289 C41.61397339 44.18552177 24.73083813 42.46865194 4.85543823 28.04098511 C1.15022623 25.39260615 -2.71958053 23.05770647 -6.6292572 20.72523499 C-10.54056995 17.87889771 -12.77507863 15.37451949 -13.5625 10.5625 C-12.82055613 5.86352213 -11.33288893 4.33288893 -8 1 C-5.18967642 -0.40516179 -3.1237878 -0.21138947 0 0 Z " fill="#76B560" transform="translate(125,158)"/>
<path d="M0 0 C4.6316605 1.45725591 7.71826253 4.63256078 10.23828125 8.6875 C14.58959707 17.15534842 15.24085886 25.65725566 12.82421875 34.92578125 C10.7803434 40.96981263 7.21076892 45.10558113 1.94921875 48.61328125 C-1.92447081 49.12977319 -4.50867084 49.43097286 -7.98828125 47.5859375 C-13.77732428 43.08196221 -16.62462248 36.70408936 -18.05078125 29.61328125 C-18.85633344 20.60694369 -18.13187855 12.64242106 -12.28515625 5.4375 C-8.58673588 1.80460283 -5.32448472 -0.53349454 0 0 Z " fill="#BE8C5A" transform="translate(458.05078125,423.38671875)"/>
<path d="M0 0 C4.6316605 1.45725591 7.71826253 4.63256078 10.23828125 8.6875 C14.58959707 17.15534842 15.24085886 25.65725566 12.82421875 34.92578125 C10.7803434 40.96981263 7.21076892 45.10558113 1.94921875 48.61328125 C-1.92447081 49.12977319 -4.50867084 49.43097286 -7.98828125 47.5859375 C-13.77732428 43.08196221 -16.62462248 36.70408936 -18.05078125 29.61328125 C-18.85633344 20.60694369 -18.13187855 12.64242106 -12.28515625 5.4375 C-8.58673588 1.80460283 -5.32448472 -0.53349454 0 0 Z " fill="#BE8C5A" transform="translate(354.05078125,423.38671875)"/>
<path d="M0 0 C5.88986463 -0.07425639 11.77945566 -0.12865268 17.66967773 -0.16479492 C19.67265572 -0.17986465 21.6756008 -0.2003241 23.6784668 -0.22631836 C26.56046681 -0.26278127 29.44202984 -0.27974461 32.32421875 -0.29296875 C33.21711105 -0.30845261 34.11000336 -0.32393646 35.029953 -0.33988953 C39.83473067 -0.34118487 43.12280859 -0.18191753 47 3 C48.40457737 5.80915474 48.24895157 7.88810534 48 11 C46.22015595 14.1359157 45.47691793 14.84102736 42 16 C40.60344541 16.08589303 39.20314223 16.11772715 37.80395508 16.11352539 C36.96331009 16.11344986 36.1226651 16.11337433 35.25654602 16.11329651 C34.35333115 16.10813522 33.45011627 16.10297394 32.51953125 16.09765625 C31.59154221 16.0962413 30.66355316 16.09482635 29.70744324 16.09336853 C26.74242942 16.08776937 23.77749101 16.07521704 20.8125 16.0625 C18.80273547 16.05748489 16.79296975 16.052922 14.78320312 16.04882812 C9.85543968 16.03780021 4.92773263 16.02053617 0 16 C0 10.72 0 5.44 0 0 Z " fill="#9F9F9F" transform="translate(232,472)"/>
<path d="M0 0 C5.88986463 -0.07425639 11.77945566 -0.12865268 17.66967773 -0.16479492 C19.67265572 -0.17986465 21.6756008 -0.2003241 23.6784668 -0.22631836 C26.56046681 -0.26278127 29.44202984 -0.27974461 32.32421875 -0.29296875 C33.21711105 -0.30845261 34.11000336 -0.32393646 35.029953 -0.33988953 C39.83473067 -0.34118487 43.12280859 -0.18191753 47 3 C48.40457737 5.80915474 48.24895157 7.88810534 48 11 C46.22015595 14.1359157 45.47691793 14.84102736 42 16 C40.60344541 16.08589303 39.20314223 16.11772715 37.80395508 16.11352539 C36.96331009 16.11344986 36.1226651 16.11337433 35.25654602 16.11329651 C34.35333115 16.10813522 33.45011627 16.10297394 32.51953125 16.09765625 C31.59154221 16.0962413 30.66355316 16.09482635 29.70744324 16.09336853 C26.74242942 16.08776937 23.77749101 16.07521704 20.8125 16.0625 C18.80273547 16.05748489 16.79296975 16.052922 14.78320312 16.04882812 C9.85543968 16.03780021 4.92773263 16.02053617 0 16 C0 10.72 0 5.44 0 0 Z " fill="#B2B2B2" transform="translate(104,472)"/>
<path d="M0 0 C2.44502808 0.95137279 3.69782057 2.08924088 5.52368164 3.96582031 C6.14243164 4.59423828 6.76118164 5.22265625 7.39868164 5.87011719 C8.03290039 6.52947266 8.66711914 7.18882812 9.32055664 7.86816406 C9.97024414 8.53138672 10.61993164 9.19460938 11.28930664 9.87792969 C12.89002424 11.51395723 14.48331857 13.15657319 16.07055664 14.80566406 C14.37469538 18.4386949 12.33255176 20.75115452 9.44555664 23.55566406 C8.62829102 24.35488281 7.81102539 25.15410156 6.96899414 25.97753906 C6.34250977 26.58082031 5.71602539 27.18410156 5.07055664 27.80566406 C0.63429111 25.7826546 -2.31195695 22.82698648 -5.74194336 19.43066406 C-6.35231445 18.85316406 -6.96268555 18.27566406 -7.59155273 17.68066406 C-8.16325195 17.11605469 -8.73495117 16.55144531 -9.32397461 15.96972656 C-9.84838135 15.45877441 -10.37278809 14.94782227 -10.91308594 14.42138672 C-11.92944336 12.80566406 -11.92944336 12.80566406 -11.71264648 10.75756836 C-10.57099057 7.91232552 -8.76087995 6.16517183 -6.61694336 3.99316406 C-5.44711914 2.77693359 -5.44711914 2.77693359 -4.25366211 1.53613281 C-1.92944336 -0.19433594 -1.92944336 -0.19433594 0 0 Z " fill="#000000" transform="translate(485.929443359375,354.1943359375)"/>
<path d="M0 0 C2.44502808 0.95137279 3.69782057 2.08924088 5.52368164 3.96582031 C6.14243164 4.59423828 6.76118164 5.22265625 7.39868164 5.87011719 C8.03290039 6.52947266 8.66711914 7.18882812 9.32055664 7.86816406 C9.97024414 8.53138672 10.61993164 9.19460938 11.28930664 9.87792969 C12.89002424 11.51395723 14.48331857 13.15657319 16.07055664 14.80566406 C14.37469538 18.4386949 12.33255176 20.75115452 9.44555664 23.55566406 C8.62829102 24.35488281 7.81102539 25.15410156 6.96899414 25.97753906 C6.34250977 26.58082031 5.71602539 27.18410156 5.07055664 27.80566406 C0.63429111 25.7826546 -2.31195695 22.82698648 -5.74194336 19.43066406 C-6.35231445 18.85316406 -6.96268555 18.27566406 -7.59155273 17.68066406 C-8.16325195 17.11605469 -8.73495117 16.55144531 -9.32397461 15.96972656 C-9.84838135 15.45877441 -10.37278809 14.94782227 -10.91308594 14.42138672 C-11.92944336 12.80566406 -11.92944336 12.80566406 -11.71264648 10.75756836 C-10.57099057 7.91232552 -8.76087995 6.16517183 -6.61694336 3.99316406 C-5.44711914 2.77693359 -5.44711914 2.77693359 -4.25366211 1.53613281 C-1.92944336 -0.19433594 -1.92944336 -0.19433594 0 0 Z " fill="#000000" transform="translate(461.929443359375,330.1943359375)"/>
<path d="M0 0 C3.63303084 1.69586126 5.94549046 3.73800488 8.75 6.625 C9.54921875 7.44226563 10.3484375 8.25953125 11.171875 9.1015625 C11.77515625 9.72804688 12.3784375 10.35453125 13 11 C10.97699054 15.43626553 8.02132242 18.38251359 4.625 21.8125 C4.0475 22.42287109 3.47 23.03324219 2.875 23.66210938 C2.31039063 24.23380859 1.74578125 24.80550781 1.1640625 25.39453125 C0.65311035 25.91893799 0.1421582 26.44334473 -0.38427734 26.98364258 C-2 28 -2 28 -4.0480957 27.78320312 C-6.89333855 26.64154721 -8.64049223 24.83143659 -10.8125 22.6875 C-11.62332031 21.90761719 -12.43414062 21.12773437 -13.26953125 20.32421875 C-15 18 -15 18 -14.80566406 16.07055664 C-13.85429127 13.62552856 -12.71642318 12.37273607 -10.83984375 10.546875 C-10.21142578 9.928125 -9.58300781 9.309375 -8.93554688 8.671875 C-8.27619141 8.03765625 -7.61683594 7.4034375 -6.9375 6.75 C-6.27427734 6.1003125 -5.61105469 5.450625 -4.92773438 4.78125 C-3.29170683 3.1805324 -1.64909088 1.58723807 0 0 Z " fill="#000000" transform="translate(369,306)"/>
<path d="M0 0 C3.68069887 1.53643852 5.98775204 3.78150945 8.75 6.625 C9.54921875 7.44226563 10.3484375 8.25953125 11.171875 9.1015625 C11.77515625 9.72804688 12.3784375 10.35453125 13 11 C10.97885812 15.44953329 7.99028627 18.3409448 4.5625 21.75 C3.97662109 22.35199219 3.39074219 22.95398438 2.78710938 23.57421875 C2.21927734 24.14269531 1.65144531 24.71117187 1.06640625 25.296875 C0.55021729 25.81604492 0.03402832 26.33521484 -0.49780273 26.87011719 C-2 28 -2 28 -5 28 C-6.71875 26.35546875 -6.71875 26.35546875 -8.5 24.1875 C-10.58277276 21.67995122 -12.65488525 19.26646761 -15 17 C-13.67879172 14.06769807 -12.25361803 12.01335101 -9.9609375 9.765625 C-9.38085938 9.19199219 -8.80078125 8.61835938 -8.203125 8.02734375 C-7.59984375 7.44082031 -6.9965625 6.85429687 -6.375 6.25 C-5.76398438 5.64800781 -5.15296875 5.04601562 -4.5234375 4.42578125 C-3.02011376 2.94594695 -1.51065144 1.47235324 0 0 Z " fill="#000000" transform="translate(345,330)"/>
<path d="M0 0 C3.68069887 1.53643852 5.98775204 3.78150945 8.75 6.625 C9.54921875 7.44226563 10.3484375 8.25953125 11.171875 9.1015625 C11.77515625 9.72804688 12.3784375 10.35453125 13 11 C11.67879172 13.93230193 10.25361803 15.98664899 7.9609375 18.234375 C7.38085938 18.80800781 6.80078125 19.38164062 6.203125 19.97265625 C5.59984375 20.55917969 4.9965625 21.14570313 4.375 21.75 C3.76398438 22.35199219 3.15296875 22.95398438 2.5234375 23.57421875 C1.02011376 25.05405305 -0.48934856 26.52764676 -2 28 C-5.68069887 26.46356148 -7.98775204 24.21849055 -10.75 21.375 C-11.54921875 20.55773437 -12.3484375 19.74046875 -13.171875 18.8984375 C-13.77515625 18.27195312 -14.3784375 17.64546875 -15 17 C-13.67879172 14.06769807 -12.25361803 12.01335101 -9.9609375 9.765625 C-9.38085938 9.19199219 -8.80078125 8.61835938 -8.203125 8.02734375 C-7.59984375 7.44082031 -6.9965625 6.85429687 -6.375 6.25 C-5.76398438 5.64800781 -5.15296875 5.04601562 -4.5234375 4.42578125 C-3.02011376 2.94594695 -1.51065144 1.47235324 0 0 Z " fill="#000000" transform="translate(321,354)"/>
<path d="M0 0 C2.93230193 1.32120828 4.98664899 2.74638197 7.234375 5.0390625 C7.80800781 5.61914062 8.38164062 6.19921875 8.97265625 6.796875 C9.55917969 7.40015625 10.14570313 8.0034375 10.75 8.625 C11.35199219 9.23601562 11.95398438 9.84703125 12.57421875 10.4765625 C14.05405305 11.97988624 15.52764676 13.48934856 17 15 C15.46356148 18.68069887 13.21849055 20.98775204 10.375 23.75 C9.55773437 24.54921875 8.74046875 25.3484375 7.8984375 26.171875 C7.27195312 26.77515625 6.64546875 27.3784375 6 28 C3.06769807 26.67879172 1.01335101 25.25361803 -1.234375 22.9609375 C-1.80800781 22.38085938 -2.38164062 21.80078125 -2.97265625 21.203125 C-3.55917969 20.59984375 -4.14570313 19.9965625 -4.75 19.375 C-5.35199219 18.76398438 -5.95398438 18.15296875 -6.57421875 17.5234375 C-8.05405305 16.02011376 -9.52764676 14.51065144 -11 13 C-9.46356148 9.31930113 -7.21849055 7.01224796 -4.375 4.25 C-3.55773437 3.45078125 -2.74046875 2.6515625 -1.8984375 1.828125 C-0.95871094 0.92320312 -0.95871094 0.92320312 0 0 Z " fill="#000000" transform="translate(437,306)"/>
<path d="M0 0 C5.28 0 10.56 0 16 0 C16 5.28 16 10.56 16 16 C10.72 16 5.44 16 0 16 C0 10.72 0 5.44 0 0 Z " fill="#000000" transform="translate(400,376)"/>
<path d="M0 0 C5.28 0 10.56 0 16 0 C16 5.28 16 10.56 16 16 C10.72 16 5.44 16 0 16 C0 10.72 0 5.44 0 0 Z " fill="#000000" transform="translate(400,344)"/>
<path d="M0 0 C5.28 0 10.56 0 16 0 C16 5.28 16 10.56 16 16 C10.72 16 5.44 16 0 16 C0 10.72 0 5.44 0 0 Z " fill="#000000" transform="translate(400,312)"/>
<path d="M0 0 C4.0743356 0.84881992 5.54405875 2.30225596 8 5.625 C8.625 8.625 8.625 8.625 8 11.625 C5.54405875 14.94774404 4.0743356 16.40118008 0 17.25 C-4.0743356 16.40118008 -5.54405875 14.94774404 -8 11.625 C-8.625 8.625 -8.625 8.625 -8 5.625 C-5.54405875 2.30225596 -4.0743356 0.84881992 0 0 Z " fill="#B88757" transform="translate(456,391.375)"/>
<path d="M0 0 C4.0743356 0.84881992 5.54405875 2.30225596 8 5.625 C8.625 8.625 8.625 8.625 8 11.625 C5.54405875 14.94774404 4.0743356 16.40118008 0 17.25 C-4.0743356 16.40118008 -5.54405875 14.94774404 -8 11.625 C-8.625 8.625 -8.625 8.625 -8 5.625 C-5.54405875 2.30225596 -4.0743356 0.84881992 0 0 Z " fill="#B88757" transform="translate(352,391.375)"/>
</svg>
